<svg width="48" height="57" viewBox="0 0 48 57" fill="none" xmlns="http://www.w3.org/2000/svg">
<g filter="url(#filter0_ddi_916_2635)">
<path fill-rule="evenodd" clip-rule="evenodd" d="M28.3409 43.3418L24.0078 49L19.6787 43.3477C10.7129 41.3789 4 33.4314 4 23.9127C4 12.9156 12.9541 4 24 4C35.0459 4 44 12.9156 44 23.9127C44 33.4245 37.2969 41.366 28.3409 43.3418Z" fill="url(#paint0_linear_916_2635)" fill-opacity="0.502" shape-rendering="crispEdges"/>
<path d="M24 5.5C34.2237 5.5 42.5 13.7506 42.5 23.9131C42.4998 32.6999 36.3067 40.0483 28.0176 41.877C27.7154 41.9436 27.442 42.1015 27.2344 42.3281L27.1504 42.4297L24.0068 46.5332L20.8691 42.4355C20.6807 42.1896 20.4215 42.0092 20.1279 41.917L20 41.8828L19.6133 41.793C11.5102 39.8302 5.5002 32.5691 5.5 23.9131C5.5 13.7506 13.7763 5.5 24 5.5Z" stroke="url(#paint1_linear_916_2635)" stroke-width="3" stroke-linejoin="round" shape-rendering="crispEdges"/>
</g>
<g filter="url(#filter1_f_916_2635)">
<path d="M24 4.5C34.7718 4.5 43.5 13.1942 43.5 23.9131C43.4998 33.183 36.9669 40.9267 28.2334 42.8535C28.1471 42.8726 28.0674 42.9137 28.0029 42.9727L27.9443 43.0381L24.0068 48.1777L20.0752 43.0439C20.0214 42.9738 19.9508 42.9192 19.8701 42.8857L19.7861 42.8594L19.3779 42.7646C10.8401 40.6965 4.5002 33.045 4.5 23.9131C4.5 13.1942 13.2282 4.5 24 4.5Z" stroke="white" stroke-linejoin="round"/>
</g>
<path d="M24 4.40039C34.8267 4.40039 43.5996 13.1385 43.5996 23.9131C43.5994 33.2314 37.0329 41.0146 28.2549 42.9512C28.1857 42.9664 28.1219 42.9995 28.0703 43.0469L28.0234 43.0986L24.0068 48.3418L19.9961 43.1045C19.953 43.0482 19.8958 43.0053 19.8311 42.9785L19.7646 42.957L19.3545 42.8623C10.7731 40.7837 4.40059 33.0927 4.40039 23.9131C4.40039 13.1385 13.1733 4.40039 24 4.40039Z" stroke="url(#paint2_linear_916_2635)" stroke-width="0.8" stroke-linejoin="round"/>
<g filter="url(#filter2_d_916_2635)">
<path d="M28.3574 24.5254C30.9073 24.5254 33 26.6181 33 29.168C33 31.7179 30.9073 33.8105 28.3574 33.8105C25.8077 33.8104 23.7148 31.7178 23.7148 29.168C23.7148 26.6182 25.7979 24.5255 28.3574 24.5254ZM24.0752 14.1895C25.3403 14.1895 26.4115 15.007 26.8203 16.1357H30.8887C31.9591 16.136 32.835 17.0126 32.835 18.083V25.2559C31.7449 24.0101 30.1482 23.2217 28.3574 23.2217C27.3454 23.2218 26.3916 23.4742 25.5547 23.9219H19.209V25.8682H23.4043C23.015 26.4521 22.7231 27.1147 22.5576 27.8154H19.209V29.7617H22.4307C22.5864 31.309 23.3359 32.6811 24.4453 33.6543H17.2627C16.1922 33.6542 15.3164 32.7785 15.3164 31.708V18.083C15.3164 17.0125 16.1922 16.1358 17.2627 16.1357H21.3311C21.7399 15.0071 22.8103 14.1896 24.0752 14.1895ZM28.3574 31.1729C27.9974 31.173 27.6963 31.475 27.6963 31.835C27.6965 32.1948 27.9878 32.4959 28.3574 32.4961C28.7174 32.4961 29.0194 32.1949 29.0195 31.835C29.0195 31.4749 28.7175 31.1729 28.3574 31.1729ZM28.3574 25.8594C27.9975 25.8595 27.6964 26.1509 27.6963 26.5205V29.1777C27.6963 29.5377 27.9877 29.8397 28.3574 29.8398C28.7175 29.8398 29.0195 29.5476 29.0195 29.1777V26.5205C29.0194 26.1605 28.7174 25.8594 28.3574 25.8594ZM19.209 20.0293V21.9756H28.9414V20.0293H19.209ZM24.0752 16.1357C23.5401 16.136 23.1026 16.5743 23.1025 17.1094C23.1025 17.6445 23.5401 18.0828 24.0752 18.083C24.6105 18.083 25.0488 17.6447 25.0488 17.1094C25.0488 16.5741 24.6105 16.1357 24.0752 16.1357Z" fill="url(#paint3_linear_916_2635)"/>
</g>
<defs>
<filter id="filter0_ddi_916_2635" x="0" y="0" width="48" height="57" filterUnits="userSpaceOnUse" color-interpolation-filters="sRGB">
<feFlood flood-opacity="0" result="BackgroundImageFix"/>
<feColorMatrix in="SourceAlpha" type="matrix" values="0 0 0 0 0 0 0 0 0 0 0 0 0 0 0 0 0 0 127 0" result="hardAlpha"/>
<feOffset dy="4"/>
<feGaussianBlur stdDeviation="2"/>
<feComposite in2="hardAlpha" operator="out"/>
<feColorMatrix type="matrix" values="0 0 0 0 0 0 0 0 0 0 0 0 0 0 0 0 0 0 0.25 0"/>
<feBlend mode="normal" in2="BackgroundImageFix" result="effect1_dropShadow_916_2635"/>
<feColorMatrix in="SourceAlpha" type="matrix" values="0 0 0 0 0 0 0 0 0 0 0 0 0 0 0 0 0 0 127 0" result="hardAlpha"/>
<feOffset/>
<feGaussianBlur stdDeviation="2"/>
<feComposite in2="hardAlpha" operator="out"/>
<feColorMatrix type="matrix" values="0 0 0 0 1 0 0 0 0 0.34902 0 0 0 0 0.368627 0 0 0 0.3 0"/>
<feBlend mode="normal" in2="effect1_dropShadow_916_2635" result="effect2_dropShadow_916_2635"/>
<feBlend mode="normal" in="SourceGraphic" in2="effect2_dropShadow_916_2635" result="shape"/>
<feColorMatrix in="SourceAlpha" type="matrix" values="0 0 0 0 0 0 0 0 0 0 0 0 0 0 0 0 0 0 127 0" result="hardAlpha"/>
<feOffset/>
<feGaussianBlur stdDeviation="5"/>
<feComposite in2="hardAlpha" operator="arithmetic" k2="-1" k3="1"/>
<feColorMatrix type="matrix" values="0 0 0 0 1 0 0 0 0 0.34902 0 0 0 0 0.368627 0 0 0 0.7 0"/>
<feBlend mode="normal" in2="shape" result="effect3_innerShadow_916_2635"/>
</filter>
<filter id="filter1_f_916_2635" x="1" y="1" width="46" height="51" filterUnits="userSpaceOnUse" color-interpolation-filters="sRGB">
<feFlood flood-opacity="0" result="BackgroundImageFix"/>
<feBlend mode="normal" in="SourceGraphic" in2="BackgroundImageFix" result="shape"/>
<feGaussianBlur stdDeviation="1.5" result="effect1_foregroundBlur_916_2635"/>
</filter>
<filter id="filter2_d_916_2635" x="11.3164" y="14.1895" width="25.6836" height="27.6211" filterUnits="userSpaceOnUse" color-interpolation-filters="sRGB">
<feFlood flood-opacity="0" result="BackgroundImageFix"/>
<feColorMatrix in="SourceAlpha" type="matrix" values="0 0 0 0 0 0 0 0 0 0 0 0 0 0 0 0 0 0 127 0" result="hardAlpha"/>
<feOffset dy="4"/>
<feGaussianBlur stdDeviation="2"/>
<feComposite in2="hardAlpha" operator="out"/>
<feColorMatrix type="matrix" values="0 0 0 0 0 0 0 0 0 0 0 0 0 0 0 0 0 0 0.25 0"/>
<feBlend mode="normal" in2="BackgroundImageFix" result="effect1_dropShadow_916_2635"/>
<feBlend mode="normal" in="SourceGraphic" in2="effect1_dropShadow_916_2635" result="shape"/>
</filter>
<linearGradient id="paint0_linear_916_2635" x1="4" y1="43" x2="4" y2="4" gradientUnits="userSpaceOnUse">
<stop/>
<stop offset="1" stop-color="#FF595E"/>
</linearGradient>
<linearGradient id="paint1_linear_916_2635" x1="24" y1="4" x2="24" y2="36.5" gradientUnits="userSpaceOnUse">
<stop stop-color="white"/>
<stop offset="1" stop-color="#FF595E"/>
</linearGradient>
<linearGradient id="paint2_linear_916_2635" x1="24" y1="4" x2="24" y2="49" gradientUnits="userSpaceOnUse">
<stop stop-color="white" stop-opacity="0"/>
<stop offset="1" stop-color="white"/>
</linearGradient>
<linearGradient id="paint3_linear_916_2635" x1="24.1582" y1="14.1895" x2="24.1582" y2="33.8105" gradientUnits="userSpaceOnUse">
<stop stop-color="white"/>
<stop offset="1" stop-color="#FF595E"/>
</linearGradient>
</defs>
</svg>
