<svg width="56" height="14" viewBox="0 0 56 14" fill="none" xmlns="http://www.w3.org/2000/svg">
<path d="M2.198 3.04H6.342V2.34H0.966V1.206H6.342V0.478H7.658V1.206H13.034V2.34H7.658V3.04H11.802V5.924H7.658V6.624H11.998V8.458H13.412V9.536H11.998V11.37H7.658V12.084C7.658 12.952 7.196 13.386 6.272 13.386H4.55L4.27 12.126C4.802 12.182 5.32 12.224 5.824 12.224C6.16 12.224 6.342 12.07 6.342 11.776V11.37H1.848V10.306H6.342V9.536H0.588V8.458H6.342V7.66H1.862V6.624H6.342V5.924H2.198V3.04ZM10.486 4.93V4.02H7.658V4.93H10.486ZM6.342 4.93V4.02H3.514V4.93H6.342ZM7.658 7.66V8.458H10.724V7.66H7.658ZM10.724 9.536H7.658V10.306H10.724V9.536ZM17.514 0.407999L18.76 0.981999C18.41 2.088 17.948 3.138 17.388 4.118V13.442H16.086V6.05C15.694 6.554 15.274 7.03 14.84 7.492L14.406 6.078C15.806 4.454 16.842 2.564 17.514 0.407999ZM19.866 1.416L21.168 1.584C21.056 2.214 20.93 2.816 20.776 3.376H22.456V0.575999H23.786V3.376H26.88V4.678H23.786V7.688H27.398V8.976H23.786V13.386H22.456V8.976H18.48V7.688H22.456V4.678H20.342C19.992 5.56 19.572 6.358 19.068 7.086L18.214 5.98C19.026 4.734 19.586 3.208 19.866 1.416ZM30.52 0.562H31.822V3.096H33.334V4.37H31.822V5.28C32.48 5.938 33.152 6.666 33.824 7.478L33.068 8.612C32.592 7.856 32.172 7.226 31.822 6.722V13.428H30.52V7.072C30.114 8.206 29.624 9.256 29.036 10.208L28.462 8.752C29.4 7.464 30.086 6.008 30.506 4.37H28.924V3.096H30.52V0.562ZM34.65 6.918L35.868 7.184C35.42 9.144 34.79 10.824 33.978 12.252L32.816 11.51C33.684 10.082 34.286 8.556 34.65 6.918ZM40.04 6.806C40.6 8.374 41.076 10.054 41.482 11.846L40.264 12.392C39.83 10.432 39.354 8.71 38.85 7.198L40.04 6.806ZM36.722 13.288H35.308L35.042 12.042C35.462 12.098 35.882 12.126 36.274 12.126C36.61 12.126 36.792 11.93 36.792 11.552V5.896H33.502V4.622H41.44V5.896H38.122V11.874C38.122 12.812 37.646 13.288 36.722 13.288ZM34.23 1.248H40.712V2.508H34.23V1.248ZM52.094 8.57L53.41 8.92C53.074 9.984 52.668 10.95 52.192 11.804H54.964V13.036H43.064V11.804H50.764C51.268 10.894 51.702 9.816 52.094 8.57ZM45.738 8.696C46.13 9.438 46.48 10.292 46.802 11.258L45.598 11.566C45.318 10.698 44.968 9.872 44.52 9.088L45.738 8.696ZM48.972 8.416C49.294 9.2 49.574 10.11 49.826 11.132L48.636 11.426C48.398 10.516 48.104 9.648 47.74 8.808L48.972 8.416ZM45.332 7.184C44.66 7.464 43.96 7.744 43.232 8.01L42.588 6.848C44.996 6.064 46.984 5.098 48.58 3.95H49.42C51.156 5.182 53.144 6.162 55.412 6.876L54.768 8.024C54.026 7.772 53.326 7.492 52.682 7.198V8.178H45.332V7.184ZM52.29 7.016C51.058 6.428 49.952 5.77 49 5.028C48.076 5.756 46.97 6.414 45.696 7.016H52.29ZM44.968 2.802C44.618 3.474 44.226 4.104 43.792 4.664L42.644 3.936C43.512 2.858 44.114 1.71 44.478 0.478L45.766 0.758C45.668 1.066 45.57 1.346 45.472 1.626H48.958V2.802H47.208C47.404 3.222 47.558 3.614 47.684 3.978L46.48 4.412C46.312 3.852 46.116 3.32 45.892 2.802H44.968ZM50.834 2.802C50.61 3.25 50.358 3.684 50.078 4.076L48.958 3.362C49.602 2.466 50.078 1.514 50.358 0.478L51.618 0.758C51.534 1.066 51.436 1.346 51.338 1.626H55.272V2.802H53.298C53.564 3.264 53.774 3.698 53.942 4.09L52.724 4.552C52.5 3.936 52.234 3.362 51.94 2.802H50.834Z" fill="white"/>
</svg>
