<svg width="148" height="14" viewBox="0 0 148 14" fill="none" xmlns="http://www.w3.org/2000/svg">
<path d="M2.198 3.04H6.342V2.34H0.966V1.206H6.342V0.478H7.658V1.206H13.034V2.34H7.658V3.04H11.802V5.924H7.658V6.624H11.998V8.458H13.412V9.536H11.998V11.37H7.658V12.084C7.658 12.952 7.196 13.386 6.272 13.386H4.55L4.27 12.126C4.802 12.182 5.32 12.224 5.824 12.224C6.16 12.224 6.342 12.07 6.342 11.776V11.37H1.848V10.306H6.342V9.536H0.588V8.458H6.342V7.66H1.862V6.624H6.342V5.924H2.198V3.04ZM10.486 4.93V4.02H7.658V4.93H10.486ZM6.342 4.93V4.02H3.514V4.93H6.342ZM7.658 7.66V8.458H10.724V7.66H7.658ZM10.724 9.536H7.658V10.306H10.724V9.536ZM17.514 0.407999L18.76 0.981999C18.41 2.088 17.948 3.138 17.388 4.118V13.442H16.086V6.05C15.694 6.554 15.274 7.03 14.84 7.492L14.406 6.078C15.806 4.454 16.842 2.564 17.514 0.407999ZM19.866 1.416L21.168 1.584C21.056 2.214 20.93 2.816 20.776 3.376H22.456V0.575999H23.786V3.376H26.88V4.678H23.786V7.688H27.398V8.976H23.786V13.386H22.456V8.976H18.48V7.688H22.456V4.678H20.342C19.992 5.56 19.572 6.358 19.068 7.086L18.214 5.98C19.026 4.734 19.586 3.208 19.866 1.416ZM30.52 0.562H31.822V3.096H33.334V4.37H31.822V5.28C32.48 5.938 33.152 6.666 33.824 7.478L33.068 8.612C32.592 7.856 32.172 7.226 31.822 6.722V13.428H30.52V7.072C30.114 8.206 29.624 9.256 29.036 10.208L28.462 8.752C29.4 7.464 30.086 6.008 30.506 4.37H28.924V3.096H30.52V0.562ZM34.65 6.918L35.868 7.184C35.42 9.144 34.79 10.824 33.978 12.252L32.816 11.51C33.684 10.082 34.286 8.556 34.65 6.918ZM40.04 6.806C40.6 8.374 41.076 10.054 41.482 11.846L40.264 12.392C39.83 10.432 39.354 8.71 38.85 7.198L40.04 6.806ZM36.722 13.288H35.308L35.042 12.042C35.462 12.098 35.882 12.126 36.274 12.126C36.61 12.126 36.792 11.93 36.792 11.552V5.896H33.502V4.622H41.44V5.896H38.122V11.874C38.122 12.812 37.646 13.288 36.722 13.288ZM34.23 1.248H40.712V2.508H34.23V1.248ZM52.094 8.57L53.41 8.92C53.074 9.984 52.668 10.95 52.192 11.804H54.964V13.036H43.064V11.804H50.764C51.268 10.894 51.702 9.816 52.094 8.57ZM45.738 8.696C46.13 9.438 46.48 10.292 46.802 11.258L45.598 11.566C45.318 10.698 44.968 9.872 44.52 9.088L45.738 8.696ZM48.972 8.416C49.294 9.2 49.574 10.11 49.826 11.132L48.636 11.426C48.398 10.516 48.104 9.648 47.74 8.808L48.972 8.416ZM45.332 7.184C44.66 7.464 43.96 7.744 43.232 8.01L42.588 6.848C44.996 6.064 46.984 5.098 48.58 3.95H49.42C51.156 5.182 53.144 6.162 55.412 6.876L54.768 8.024C54.026 7.772 53.326 7.492 52.682 7.198V8.178H45.332V7.184ZM52.29 7.016C51.058 6.428 49.952 5.77 49 5.028C48.076 5.756 46.97 6.414 45.696 7.016H52.29ZM44.968 2.802C44.618 3.474 44.226 4.104 43.792 4.664L42.644 3.936C43.512 2.858 44.114 1.71 44.478 0.478L45.766 0.758C45.668 1.066 45.57 1.346 45.472 1.626H48.958V2.802H47.208C47.404 3.222 47.558 3.614 47.684 3.978L46.48 4.412C46.312 3.852 46.116 3.32 45.892 2.802H44.968ZM50.834 2.802C50.61 3.25 50.358 3.684 50.078 4.076L48.958 3.362C49.602 2.466 50.078 1.514 50.358 0.478L51.618 0.758C51.534 1.066 51.436 1.346 51.338 1.626H55.272V2.802H53.298C53.564 3.264 53.774 3.698 53.942 4.09L52.724 4.552C52.5 3.936 52.234 3.362 51.94 2.802H50.834ZM56.7 7.758H63.77V8.99H56.7V7.758ZM76.9786 0.631999L77.6226 1.808C76.4186 2.228 75.0886 2.48 73.6326 2.578V4.846H77.9586V6.12H76.6146V13.456H75.3126V6.12H73.6326V7.534C73.5626 9.998 73.0166 11.958 71.9946 13.428L71.0566 12.42C71.8546 11.244 72.2886 9.62 72.3446 7.534V1.486C74.0666 1.458 75.6066 1.164 76.9786 0.631999ZM65.2886 1.626H67.7806C67.6126 1.262 67.4166 0.911999 67.2066 0.589999L68.5786 0.366C68.7466 0.744 68.9286 1.164 69.0966 1.626H71.6866V2.858H65.2886V1.626ZM65.1486 4.804H66.6326C66.4506 4.314 66.2406 3.852 66.0026 3.432L67.1646 2.998C67.3886 3.502 67.6126 4.104 67.8086 4.804H69.1386C69.3626 4.216 69.5586 3.614 69.7266 2.984L70.9166 3.404C70.7486 3.922 70.5526 4.384 70.3426 4.804H71.7706V6.022H69.1806V7.282H71.5326V8.486H69.1806V12.238C69.1806 13.078 68.7186 13.498 67.7946 13.498H67.0666L66.7726 12.266C66.9826 12.322 67.1786 12.35 67.3606 12.35C67.6966 12.35 67.8646 12.21 67.8646 11.93V8.486H65.3726V7.282H67.8646V6.022H65.1486V4.804ZM66.2126 9.102L67.4166 9.354C67.0806 10.768 66.6186 12 66.0026 13.05L64.9106 12.35C65.5266 11.342 65.9606 10.25 66.2126 9.102ZM70.5946 9.004C70.9586 9.9 71.2526 10.712 71.4626 11.44L70.3426 11.86C70.1186 10.992 69.8386 10.138 69.5026 9.298L70.5946 9.004ZM79.8766 1.626H84.8046V0.548H86.1486V1.626H91.0766V2.858H86.1486V3.88H90.2646V5.112H86.1486V6.134H91.5666V7.352H86.6246C86.9606 8.122 87.3806 8.808 87.8566 9.41C88.5846 9.046 89.2706 8.514 89.9426 7.786L90.8666 8.682C90.1946 9.354 89.4386 9.872 88.6266 10.264C89.4946 11.118 90.5446 11.762 91.7486 12.21L91.0206 13.386C88.4726 12.336 86.5966 10.32 85.4066 7.352H85.0566C84.5806 8.01 83.9926 8.626 83.2926 9.186V11.818C84.2586 11.51 85.2246 11.174 86.1906 10.796L86.4426 12.014C84.9446 12.602 83.4186 13.078 81.8786 13.456L81.4306 12.322C81.7946 12.168 81.9906 11.944 81.9906 11.65V10.068C81.2906 10.474 80.5346 10.852 79.6946 11.202L78.9946 10.04C81.0806 9.326 82.6206 8.43 83.6286 7.352H79.3866V6.134H84.8046V5.112H80.6886V3.88H84.8046V2.858H79.8766V1.626ZM98.7906 0.463999H100.163V2.886H105.147V9.648H103.817V8.85H100.163V13.54H98.7906V8.85H95.1506V9.648H93.8206V2.886H98.7906V0.463999ZM95.1506 7.548H98.7906V4.188H95.1506V7.548ZM100.163 7.548H103.817V4.188H100.163V7.548ZM113.477 6.638C112.889 8.094 111.853 9.312 110.355 10.32L109.459 9.242C110.971 8.206 111.965 6.932 112.441 5.42C112.567 4.972 112.679 4.482 112.763 3.95H109.165V13.428H107.821V2.662H112.917C112.973 1.976 113.015 1.248 113.015 0.478H114.373C114.373 1.248 114.345 1.976 114.289 2.662H119.133V11.692C119.133 12.742 118.643 13.274 117.677 13.274H115.479L115.115 11.944L117.229 12.014C117.593 12.014 117.789 11.804 117.789 11.398V3.95H114.149C114.065 4.44 113.981 4.902 113.883 5.322C115.283 6.61 116.459 7.884 117.425 9.158L116.403 10.18C115.675 9.074 114.695 7.898 113.477 6.638ZM125.545 5.742V6.974H130.781V5.742H125.545ZM130.781 8.136H125.545V9.34H130.781V8.136ZM130.781 10.488H125.545V13.414H124.299V6.428C123.571 7.282 122.773 8.066 121.877 8.794L121.023 7.674C122.647 6.386 123.935 4.902 124.859 3.25H121.401V1.962H125.503C125.713 1.458 125.895 0.94 126.063 0.436L127.421 0.589999C127.281 1.066 127.127 1.528 126.959 1.962H133.721V3.25H126.385C126.161 3.712 125.909 4.16 125.643 4.594H132.027V12.168C132.027 12.938 131.579 13.33 130.683 13.358H129.115L128.793 12.154C129.311 12.196 129.801 12.224 130.263 12.224C130.599 12.224 130.781 12.07 130.781 11.762V10.488ZM140.259 2.83V12.574H138.985V11.846H136.773V12.98H135.499V2.83H136.829C137.081 2.074 137.277 1.304 137.389 0.492L138.719 0.674C138.579 1.444 138.369 2.158 138.103 2.83H140.259ZM136.773 10.614H138.985V7.856H136.773V10.614ZM136.773 6.666H138.985V4.09H136.773V6.666ZM142.779 6.19C143.703 7.338 144.417 8.332 144.907 9.2L143.857 9.942C143.325 9.018 142.597 7.996 141.701 6.862L142.779 6.19ZM147.483 2.844C147.483 7.674 147.413 10.656 147.273 11.776C147.133 12.784 146.461 13.288 145.271 13.288C144.991 13.288 144.487 13.26 143.787 13.218L143.465 12C144.081 12.028 144.613 12.056 145.061 12.056C145.621 12.056 145.943 11.762 146.027 11.174C146.111 10.474 146.153 8.122 146.181 4.132H142.667C142.275 4.972 141.827 5.742 141.295 6.442L140.497 5.392C141.421 4.048 142.065 2.41 142.401 0.478L143.717 0.645999C143.577 1.43 143.381 2.158 143.157 2.844H147.483Z" fill="white"/>
</svg>
