<svg width="44" height="56" viewBox="0 0 44 56" fill="none" xmlns="http://www.w3.org/2000/svg">
<circle cx="22" cy="22" r="21" fill="#17282C" fill-opacity="0.9"/>
<circle cx="22" cy="22" r="21" fill="url(#paint0_linear_2952_76997)" fill-opacity="0.6"/>
<circle cx="22" cy="22" r="21.5" stroke="url(#paint1_linear_2952_76997)" stroke-opacity="0.7"/>
<circle cx="22" cy="22" r="19" stroke="white" stroke-opacity="0.4" stroke-width="2" stroke-dasharray="0.4 0.8"/>
<path d="M22 39L5.54552 10.5L38.4545 10.5L22 39Z" fill="url(#paint2_linear_2952_76997)" fill-opacity="0.1"/>
<path d="M36.8492 36.8492C40.432 33.2665 42.5986 28.5092 42.9496 23.4547C43.3005 18.4001 41.8122 13.389 38.759 9.3455L36.3607 11.1564C38.9769 14.6213 40.2523 18.9152 39.9515 23.2465C39.6508 27.5777 37.7942 31.6542 34.7242 34.7242L36.8492 36.8492Z" fill="url(#paint3_linear_2952_76997)"/>
<path d="M1.71555 27.4352C3.02673 32.3286 6.06263 36.583 10.2636 39.4143C14.4646 42.2455 19.5475 43.4627 24.5753 42.8415L24.2067 39.8591C19.8984 40.3914 15.5429 39.3484 11.9431 36.9223C8.34327 34.4962 5.7418 30.8506 4.61826 26.6574L1.71555 27.4352Z" fill="url(#paint4_linear_2952_76997)"/>
<path d="M37.7872 8.15211C34.7134 4.64781 30.561 2.26581 25.9842 1.38142C21.4075 0.497034 16.6666 1.16053 12.5085 3.26737C8.3504 5.37421 5.01145 8.80463 3.01774 13.0181C1.02402 17.2317 0.488874 21.9888 1.49661 26.5399L4.43064 25.8903C3.56711 21.9904 4.02568 17.914 5.7341 14.3035C7.44251 10.6929 10.3037 7.75336 13.8667 5.94801C17.4298 4.14266 21.4923 3.57411 25.4141 4.33194C29.3359 5.08977 32.8941 7.13091 35.5281 10.1338L37.7872 8.15211Z" fill="url(#paint5_linear_2952_76997)"/>
<path fill-rule="evenodd" clip-rule="evenodd" d="M15 19.5938C15 15.796 18.1707 12.7188 22.0813 12.7188C25.9931 12.7188 29.1625 15.796 29.1625 19.5924C29.1625 21.1428 28.6339 22.5735 27.742 23.7237C30.7692 24.2248 33.0014 25.9061 33.0014 27.8933C33.0014 30.272 29.799 32.2149 25.8638 32.2149V33L23.2238 31.2442L25.8638 29.4649V30.2267C28.9685 30.2267 31.4614 28.9328 31.4614 27.3612C31.4614 25.9648 29.5317 24.8171 26.9843 24.5529C25.7121 25.7386 23.9846 26.4674 22.0813 26.4674C20.171 26.4674 18.4372 25.7327 17.1634 24.5388C14.544 24.7734 12.54 25.9381 12.54 27.3612C12.54 28.9328 15.0329 30.2267 18.1376 30.2267V29.4649L20.7776 31.2442L18.1376 33V32.2149C14.2037 32.2149 11 30.2734 11 27.8933C11 25.8748 13.3031 24.1718 16.4031 23.7009C15.5218 22.5549 15 21.1332 15 19.5938ZM18.894 19.5938C18.894 21.3015 20.3212 22.6875 22.0813 22.6875C23.8413 22.6875 25.2685 21.3001 25.2685 19.5938C25.2685 17.8846 23.8413 16.5 22.0813 16.5C20.3212 16.5 18.894 17.8833 18.894 19.5938ZM17.8325 28.8269C18.1089 28.5299 19.1759 27.3336 19.6805 26.7671C20.4354 27.0243 21.2301 27.1549 22.0304 27.1549C22.8434 27.1557 23.6507 27.02 24.4187 26.7534C24.9179 27.3144 26 28.5271 26.2791 28.8269C26.6449 29.2188 25.0361 29.2201 22.0551 29.2201C19.0755 29.2201 17.4681 29.2188 17.8325 28.8269ZM22.0813 11C22.7963 11 23.3875 11.5019 23.4989 12.1591H23.4975C22.5611 11.9876 21.6014 11.9876 20.665 12.1591C20.7722 11.5019 21.3663 11 22.0813 11Z" fill="url(#paint6_linear_2952_76997)"/>
<ellipse cx="22" cy="50.5005" rx="11" ry="4.5" fill="#6BDFE6" fill-opacity="0.14"/>
<path d="M32.874 49.8198C32.8973 49.8825 32.9167 49.9458 32.9336 50.0093L32.8389 50.0347C32.8551 50.0958 32.8681 50.1575 32.8779 50.2192L32.9727 50.2036C32.9831 50.2691 32.9896 50.3346 32.9932 50.4009L32.8975 50.4067C32.8991 50.4379 32.9004 50.4692 32.9004 50.5005C32.9004 50.5318 32.8991 50.5631 32.8975 50.5942L32.9932 50.5991C32.9897 50.6654 32.9831 50.7309 32.9727 50.7964L32.8779 50.7817C32.8681 50.8434 32.8551 50.9052 32.8389 50.9663L32.9336 50.9907C32.9167 51.0543 32.8973 51.1175 32.874 51.1802L32.7812 51.146C32.7596 51.2044 32.7345 51.2629 32.707 51.3208L32.7959 51.3628C32.7679 51.4218 32.7357 51.4794 32.7021 51.5376L32.6191 51.4888C32.5878 51.543 32.5539 51.5973 32.5176 51.6509L32.5967 51.7056C32.56 51.7596 32.5229 51.8145 32.4814 51.8677L32.4033 51.8071C32.3646 51.8568 32.3233 51.9065 32.2803 51.9556L32.3545 52.02C32.3117 52.0688 32.2665 52.1166 32.2197 52.1646L32.1494 52.0972C32.1051 52.1426 32.0587 52.1881 32.0107 52.2329L32.0781 52.3042C32.0301 52.349 31.9811 52.394 31.9297 52.438L31.8652 52.3628C31.817 52.4041 31.7671 52.4452 31.7158 52.4858L31.7764 52.561C31.7247 52.602 31.6719 52.6429 31.6172 52.6831L31.5605 52.604C31.5088 52.6421 31.4549 52.6799 31.4004 52.7173L31.4551 52.7983C31.4017 52.835 31.3468 52.8708 31.291 52.9067L31.2383 52.8257C31.1837 52.8609 31.1273 52.8956 31.0703 52.9302L31.1221 53.0151C31.0666 53.0487 31.0088 53.0798 30.9512 53.1128L30.9033 53.0288C30.8469 53.0611 30.789 53.0929 30.7305 53.1245L30.7773 53.2114C30.7198 53.2425 30.661 53.2727 30.6016 53.3032L30.5576 53.2163C30.4998 53.2459 30.4405 53.2752 30.3809 53.3042L30.4238 53.3921C30.3651 53.4207 30.3056 53.4491 30.2451 53.4771L30.2041 53.3882C30.1451 53.4155 30.085 53.4425 30.0244 53.4692L30.0635 53.5591C30.0034 53.5856 29.9424 53.6113 29.8809 53.6372L29.8438 53.5474C29.7837 53.5726 29.7226 53.5969 29.6611 53.6216L29.6973 53.7134C29.6364 53.7378 29.5749 53.7618 29.5127 53.7856L29.4775 53.6938C29.4166 53.7172 29.3552 53.7404 29.293 53.7632L29.3262 53.856C29.2646 53.8785 29.2024 53.9004 29.1396 53.9224L29.1074 53.8296C29.0456 53.8512 28.983 53.872 28.9199 53.8931L28.9512 53.9878C28.8891 54.0085 28.8259 54.0272 28.7627 54.0474L28.7334 53.9546C28.6707 53.9746 28.6068 53.9937 28.543 54.0132L28.5723 54.1089C28.5098 54.128 28.4463 54.145 28.3828 54.1636L28.3555 54.0698C28.2925 54.0882 28.229 54.1066 28.165 54.1245L28.1904 54.2192C28.1274 54.2368 28.0639 54.2539 28 54.271L27.9746 54.1763C27.9113 54.1931 27.8474 54.2097 27.7832 54.2261L27.8066 54.3218C27.7429 54.338 27.6788 54.3539 27.6143 54.3696L27.5918 54.2739C27.5283 54.2894 27.4638 54.3039 27.3994 54.3188L27.4209 54.4155C27.3568 54.4304 27.2925 54.4461 27.2275 54.4604L27.2061 54.3628C27.1424 54.3769 27.0781 54.3912 27.0137 54.4048L27.0332 54.5005C26.9684 54.5142 26.9034 54.5284 26.8379 54.5415L26.8193 54.4448C26.7552 54.4577 26.6908 54.4705 26.626 54.4829L26.6436 54.5796C26.5788 54.5919 26.5137 54.6039 26.4482 54.6157L26.4316 54.519C26.3668 54.5308 26.3009 54.542 26.2354 54.5532L26.252 54.6509C26.1872 54.662 26.122 54.6715 26.0566 54.6821L26.042 54.5854C25.977 54.596 25.9113 54.6066 25.8457 54.6167L25.8594 54.7144C25.7943 54.7243 25.7288 54.7332 25.6631 54.7427L25.6504 54.646C25.5855 54.6554 25.5196 54.6644 25.4541 54.6733L25.4668 54.77C25.4012 54.7789 25.3357 54.7899 25.2695 54.7983L25.2568 54.6987C25.1921 54.707 25.1268 54.7154 25.0615 54.7231L25.0732 54.8208C25.0074 54.8286 24.9413 54.8359 24.875 54.8433L24.8652 54.7456C24.7998 54.7528 24.7339 54.7603 24.668 54.7671L24.6768 54.8647C24.6116 54.8714 24.5461 54.8771 24.4805 54.8833L24.4717 54.7856C24.4061 54.7918 24.3404 54.7985 24.2744 54.8042L24.2812 54.9019C24.2157 54.9075 24.1499 54.9123 24.084 54.9175L24.0771 54.8198C24.0116 54.825 23.9458 54.8298 23.8799 54.8345L23.8857 54.9321C23.8198 54.9368 23.7538 54.9436 23.6875 54.9478L23.6816 54.8481C23.6162 54.8523 23.5502 54.8562 23.4844 54.8599L23.4893 54.9575C23.4233 54.9612 23.3573 54.9651 23.291 54.9683L23.2871 54.8696C23.2212 54.8728 23.1551 54.8757 23.0889 54.8784L23.0918 54.978C23.0259 54.9807 22.9598 54.9817 22.8936 54.9839L22.8916 54.8862C22.8257 54.8884 22.7596 54.8904 22.6934 54.8921L22.6953 54.9897C22.6291 54.9914 22.5627 54.9934 22.4961 54.9946L22.4951 54.896C22.4295 54.8972 22.3638 54.8982 22.2979 54.8989V54.9966C22.2319 54.9973 22.1658 54.9983 22.0996 54.9985V54.8999C22.0665 54.9 22.0332 54.9009 22 54.9009C21.9668 54.9009 21.9335 54.9 21.9004 54.8999V54.9985C21.8338 54.9983 21.7674 54.9973 21.7012 54.9966L21.7021 54.8989C21.6362 54.8982 21.5705 54.8972 21.5049 54.896L21.5029 54.9946C21.4364 54.9934 21.37 54.9914 21.3037 54.9897L21.3066 54.8921C21.2404 54.8904 21.1743 54.8884 21.1084 54.8862L21.1055 54.9839C21.0392 54.9817 20.9731 54.9807 20.9072 54.978L20.9111 54.8784C20.8449 54.8757 20.7788 54.8728 20.7129 54.8696L20.708 54.9683C20.6417 54.9651 20.5757 54.9612 20.5098 54.9575L20.5156 54.8599C20.4498 54.8562 20.3838 54.8523 20.3184 54.8481L20.3125 54.9478H20.3115C20.2452 54.9436 20.1792 54.9368 20.1133 54.9321L20.1201 54.8345C20.0542 54.8298 19.9884 54.825 19.9229 54.8198L19.915 54.9175C19.8491 54.9123 19.7833 54.9075 19.7178 54.9019L19.7256 54.8042C19.6596 54.7985 19.5939 54.7918 19.5283 54.7856L19.5186 54.8833C19.4526 54.8771 19.3868 54.8715 19.3213 54.8647L19.332 54.7671C19.2661 54.7603 19.2002 54.7528 19.1348 54.7456L19.124 54.8433C19.0577 54.8359 18.9916 54.8286 18.9258 54.8208L18.9385 54.7231C18.8732 54.7154 18.8079 54.707 18.7432 54.6987L18.7305 54.7983H18.7285C18.6627 54.79 18.5975 54.7789 18.5322 54.77L18.5459 54.6733C18.4804 54.6644 18.4145 54.6554 18.3496 54.646L18.3359 54.7427C18.2703 54.7332 18.2047 54.7243 18.1396 54.7144L18.1543 54.6167C18.0887 54.6066 18.023 54.596 17.958 54.5854L17.9424 54.6821C17.877 54.6715 17.8118 54.662 17.7471 54.6509L17.7646 54.5532C17.6991 54.542 17.6332 54.5308 17.5684 54.519L17.5508 54.6157C17.4853 54.6039 17.4202 54.5919 17.3555 54.5796L17.374 54.4829C17.3092 54.4705 17.2448 54.4577 17.1807 54.4448L17.1611 54.5415C17.0956 54.5283 17.0306 54.5142 16.9658 54.5005L16.9863 54.4048C16.9219 54.3912 16.8576 54.3769 16.7939 54.3628L16.7725 54.4604H16.7715C16.7066 54.4461 16.6423 54.4304 16.5781 54.4155L16.6006 54.3188C16.5362 54.3039 16.4717 54.2894 16.4082 54.2739L16.3848 54.3696C16.3202 54.3539 16.2561 54.338 16.1924 54.3218L16.2168 54.2261C16.1526 54.2097 16.0887 54.1931 16.0254 54.1763L15.999 54.271C15.9351 54.2539 15.8716 54.2368 15.8086 54.2192L15.835 54.1245C15.771 54.1066 15.7075 54.0882 15.6445 54.0698L15.6162 54.1636C15.5527 54.145 15.4892 54.128 15.4268 54.1089H15.4277L15.457 54.0132C15.3932 53.9937 15.3293 53.9746 15.2666 53.9546L15.2363 54.0474C15.1731 54.0272 15.1099 54.0085 15.0479 53.9878L15.0801 53.8931C15.017 53.872 14.9544 53.8512 14.8926 53.8296L14.8594 53.9224C14.7966 53.9004 14.7344 53.8785 14.6729 53.856L14.707 53.7632C14.6448 53.7404 14.5834 53.7172 14.5225 53.6938L14.4863 53.7856C14.4241 53.7618 14.3626 53.7378 14.3018 53.7134L14.3389 53.6216C14.2774 53.5969 14.2163 53.5726 14.1562 53.5474L14.1182 53.6372C14.0566 53.6113 13.9956 53.5856 13.9355 53.5591L13.9756 53.4692C13.915 53.4425 13.8549 53.4155 13.7959 53.3882L13.7539 53.4771C13.6935 53.4491 13.6339 53.4207 13.5752 53.3921L13.6191 53.3042C13.5595 53.2752 13.5002 53.2459 13.4424 53.2163L13.3975 53.3032C13.338 53.2727 13.2792 53.2425 13.2217 53.2114L13.2695 53.1245C13.211 53.0929 13.1531 53.0611 13.0967 53.0288L13.0479 53.1128C12.9902 53.0798 12.9324 53.0487 12.877 53.0151L12.9297 52.9302C12.8727 52.8956 12.8163 52.8609 12.7617 52.8257L12.708 52.9067C12.6522 52.8708 12.5973 52.835 12.5439 52.7983L12.5996 52.7173C12.5451 52.6799 12.4912 52.6421 12.4395 52.604L12.3818 52.6831C12.3272 52.6429 12.2744 52.602 12.2227 52.561L12.2842 52.4858C12.2329 52.4452 12.183 52.4041 12.1348 52.3628L12.0693 52.438C12.0179 52.394 11.9689 52.349 11.9209 52.3042L11.9893 52.2329C11.9413 52.1881 11.8949 52.1426 11.8506 52.0972L11.7793 52.1646C11.7326 52.1166 11.6873 52.0688 11.6445 52.02L11.7197 51.9556C11.6767 51.9065 11.6354 51.8568 11.5967 51.8071L11.5176 51.8677C11.4762 51.8145 11.439 51.7596 11.4023 51.7056L11.4824 51.6509C11.446 51.5973 11.4122 51.543 11.3809 51.4888L11.2969 51.5376C11.2633 51.4795 11.2311 51.4218 11.2031 51.3628L11.293 51.3208C11.2655 51.2629 11.2404 51.2044 11.2188 51.146L11.125 51.1802C11.1018 51.1175 11.0823 51.0542 11.0654 50.9907L11.1611 50.9663C11.1449 50.9052 11.1319 50.8434 11.1221 50.7817L11.0264 50.7964C11.016 50.7309 11.0093 50.6653 11.0059 50.5991L11.1025 50.5942C11.1009 50.5631 11.0996 50.5318 11.0996 50.5005C11.0996 50.4692 11.1009 50.4379 11.1025 50.4067L11.0059 50.4009C11.0094 50.3347 11.0159 50.2691 11.0264 50.2036L11.1221 50.2192C11.1319 50.1575 11.1449 50.0958 11.1611 50.0347L11.0654 50.0093L11.125 49.8198L11.2188 49.855C11.2404 49.7966 11.2655 49.738 11.293 49.6802L11.2031 49.6372C11.2311 49.5782 11.2633 49.5205 11.2969 49.4624L11.3809 49.5122C11.4122 49.458 11.4461 49.4037 11.4824 49.3501L11.4023 49.2944C11.439 49.2404 11.4761 49.1855 11.5176 49.1323L11.5967 49.1938C11.6354 49.1441 11.6767 49.0945 11.7197 49.0454L11.6445 48.98C11.6873 48.9312 11.7326 48.8834 11.7793 48.8354L11.8506 48.9038C11.8949 48.8584 11.9413 48.8128 11.9893 48.7681L11.9209 48.6958C11.9689 48.651 12.018 48.606 12.0693 48.562L12.1348 48.6382C12.183 48.5969 12.2329 48.5558 12.2842 48.5151L12.2227 48.439C12.2744 48.398 12.3272 48.3571 12.3818 48.3169L12.4395 48.397C12.4912 48.3589 12.5451 48.3211 12.5996 48.2837L12.5439 48.2017C12.5973 48.165 12.6522 48.1292 12.708 48.0933L12.7617 48.1753C12.8163 48.1401 12.8727 48.1053 12.9297 48.0708L12.877 47.9849C12.9324 47.9513 12.9902 47.9202 13.0479 47.8872L13.0967 47.9722C13.1531 47.9399 13.211 47.9081 13.2695 47.8765L13.2217 47.7886C13.2792 47.7575 13.338 47.7273 13.3975 47.6968L13.4424 47.7847C13.5002 47.755 13.5595 47.7258 13.6191 47.6968L13.5752 47.6079C13.6339 47.5793 13.6935 47.5509 13.7539 47.5229L13.7959 47.6128C13.8549 47.5855 13.915 47.5585 13.9756 47.5317L13.9355 47.4409C13.9956 47.4144 14.0566 47.3887 14.1182 47.3628L14.1562 47.4536C14.2163 47.4284 14.2774 47.404 14.3389 47.3794L14.3018 47.2866C14.3626 47.2622 14.4241 47.2382 14.4863 47.2144L14.5225 47.3071C14.5834 47.2838 14.6448 47.2605 14.707 47.2378L14.6729 47.144C14.7344 47.1215 14.7966 47.0996 14.8594 47.0776L14.8926 47.1714C14.9544 47.1498 15.017 47.129 15.0801 47.1079L15.0488 47.0132L15.0479 47.0122C15.1099 46.9915 15.1731 46.9728 15.2363 46.9526L15.2666 47.0464C15.3293 47.0264 15.3932 47.0073 15.457 46.9878L15.4277 46.8921L15.4268 46.8911C15.4892 46.872 15.5527 46.855 15.6162 46.8364L15.6445 46.9312C15.7075 46.9128 15.771 46.8943 15.835 46.8765L15.8086 46.7808C15.8716 46.7632 15.9351 46.7461 15.999 46.729L16.0254 46.8247C16.0887 46.8078 16.1526 46.7913 16.2168 46.7749L16.1924 46.6782C16.2561 46.662 16.3202 46.6461 16.3848 46.6304L16.4082 46.7271C16.4717 46.7116 16.5362 46.6971 16.6006 46.6821L16.5781 46.5845C16.6423 46.5696 16.7066 46.5539 16.7715 46.5396L16.7725 46.5405L16.7939 46.6382C16.8576 46.6241 16.9219 46.6098 16.9863 46.5962L16.9658 46.4995C17.0306 46.4858 17.0956 46.4716 17.1611 46.4585L17.1807 46.5562C17.2448 46.5433 17.3092 46.5304 17.374 46.5181L17.3555 46.4204C17.4202 46.4081 17.4853 46.3961 17.5508 46.3843L17.5684 46.4819C17.6332 46.4702 17.6991 46.459 17.7646 46.4478L17.7471 46.3491C17.8118 46.338 17.877 46.3285 17.9424 46.3179L17.958 46.4155C18.023 46.405 18.0887 46.3943 18.1543 46.3843L18.1396 46.2856C18.2047 46.2757 18.2703 46.2668 18.3359 46.2573L18.3496 46.355C18.4145 46.3456 18.4804 46.3365 18.5459 46.3276L18.5322 46.23C18.5978 46.2211 18.6634 46.2101 18.7295 46.2017L18.7305 46.2026L18.7432 46.3022C18.8079 46.294 18.8732 46.2856 18.9385 46.2778L18.9258 46.1792C18.9916 46.1714 19.0577 46.1641 19.124 46.1567L19.1348 46.2554C19.2002 46.2481 19.2661 46.2406 19.332 46.2339L19.3223 46.1353C19.3874 46.1286 19.4529 46.1229 19.5186 46.1167L19.5283 46.2153C19.5939 46.2092 19.6596 46.2025 19.7256 46.1968L19.7178 46.0981C19.7833 46.0925 19.8491 46.0877 19.915 46.0825L19.9229 46.1812C19.9884 46.176 20.0542 46.1712 20.1201 46.1665L20.1133 46.0679C20.1792 46.0632 20.2452 46.0564 20.3115 46.0522L20.3125 46.0532L20.3184 46.1528C20.3838 46.1487 20.4498 46.1448 20.5156 46.1411L20.5098 46.0425C20.5757 46.0388 20.6417 46.0349 20.708 46.0317L20.7129 46.1313C20.7788 46.1282 20.8449 46.1252 20.9111 46.1226L20.9072 46.022C20.9731 46.0193 21.0392 46.0183 21.1055 46.0161L21.1084 46.1147C21.1743 46.1126 21.2404 46.1106 21.3066 46.1089L21.3037 46.0103C21.37 46.0086 21.4364 46.0066 21.5029 46.0054L21.5049 46.105C21.5705 46.1038 21.6362 46.1028 21.7021 46.1021L21.7012 46.0034C21.7674 46.0027 21.8338 46.0017 21.9004 46.0015V46.1011C21.9335 46.101 21.9668 46.1001 22 46.1001C22.0332 46.1001 22.0665 46.101 22.0996 46.1011V46.0015C22.1658 46.0017 22.2319 46.0027 22.2979 46.0034V46.1021C22.3638 46.1028 22.4295 46.1038 22.4951 46.105L22.4961 46.0054C22.5627 46.0066 22.6291 46.0086 22.6953 46.0103L22.6934 46.1089C22.7596 46.1106 22.8257 46.1126 22.8916 46.1147L22.8936 46.0161C22.9598 46.0183 23.0259 46.0193 23.0918 46.022L23.0889 46.1226C23.1551 46.1252 23.2212 46.1282 23.2871 46.1313L23.291 46.0317C23.3573 46.0349 23.4233 46.0388 23.4893 46.0425L23.4844 46.1411C23.5502 46.1448 23.6162 46.1487 23.6816 46.1528L23.6875 46.0532V46.0522C23.7538 46.0564 23.8198 46.0632 23.8857 46.0679L23.8799 46.1665C23.9458 46.1712 24.0116 46.176 24.0771 46.1812L24.084 46.0825C24.1499 46.0877 24.2157 46.0925 24.2812 46.0981L24.2744 46.1968C24.3404 46.2025 24.4061 46.2092 24.4717 46.2153L24.4805 46.1167C24.5464 46.1229 24.6122 46.1286 24.6777 46.1353L24.668 46.2339C24.7339 46.2406 24.7998 46.2481 24.8652 46.2554L24.875 46.1567C24.9413 46.1641 25.0074 46.1714 25.0732 46.1792L25.0615 46.2778C25.1268 46.2856 25.1921 46.294 25.2568 46.3022L25.2695 46.2026V46.2017C25.3357 46.2101 25.4012 46.2211 25.4668 46.23L25.4541 46.3276C25.5196 46.3365 25.5855 46.3456 25.6504 46.355L25.6631 46.2573C25.7288 46.2668 25.7943 46.2757 25.8594 46.2856L25.8457 46.3843C25.9113 46.3943 25.977 46.405 26.042 46.4155L26.0566 46.3179C26.122 46.3285 26.1872 46.338 26.252 46.3491L26.2354 46.4478C26.3009 46.459 26.3668 46.4702 26.4316 46.4819L26.4482 46.3843C26.5137 46.3961 26.5788 46.4081 26.6436 46.4204L26.626 46.5181C26.6908 46.5304 26.7552 46.5433 26.8193 46.5562L26.8379 46.4585C26.9034 46.4716 26.9684 46.4858 27.0332 46.4995L27.0137 46.5962C27.0781 46.6098 27.1424 46.6241 27.2061 46.6382L27.2275 46.5405V46.5396C27.2925 46.5539 27.3568 46.5696 27.4209 46.5845L27.3994 46.6821C27.4638 46.6971 27.5283 46.7116 27.5918 46.7271L27.6143 46.6304C27.6788 46.6461 27.7429 46.662 27.8066 46.6782L27.7832 46.7749C27.8474 46.7913 27.9113 46.8078 27.9746 46.8247L28 46.729C28.0639 46.7461 28.1274 46.7632 28.1904 46.7808L28.165 46.8765C28.229 46.8943 28.2925 46.9128 28.3555 46.9312L28.3828 46.8364C28.4463 46.855 28.5098 46.872 28.5723 46.8911V46.8921L28.543 46.9878C28.6068 47.0073 28.6707 47.0264 28.7334 47.0464L28.7627 46.9526C28.8259 46.9728 28.8891 46.9915 28.9512 47.0122V47.0132L28.9199 47.1079C28.983 47.129 29.0456 47.1498 29.1074 47.1714L29.1396 47.0776C29.2024 47.0996 29.2646 47.1216 29.3262 47.144L29.293 47.2378C29.3552 47.2605 29.4166 47.2838 29.4775 47.3071L29.5127 47.2144C29.5749 47.2382 29.6364 47.2622 29.6973 47.2866L29.6611 47.3794C29.7226 47.404 29.7837 47.4284 29.8438 47.4536L29.8809 47.3628C29.9424 47.3887 30.0034 47.4144 30.0635 47.4409L30.0244 47.5317C30.085 47.5585 30.1451 47.5855 30.2041 47.6128L30.2451 47.5229C30.3056 47.5509 30.3651 47.5793 30.4238 47.6079L30.3809 47.6968C30.4405 47.7258 30.4998 47.755 30.5576 47.7847L30.6016 47.6968C30.661 47.7273 30.7198 47.7575 30.7773 47.7886L30.7305 47.8765C30.789 47.9081 30.8469 47.9399 30.9033 47.9722L30.9512 47.8872C31.0088 47.9202 31.0666 47.9513 31.1221 47.9849L31.0703 48.0708C31.1273 48.1053 31.1837 48.1401 31.2383 48.1753L31.291 48.0933C31.3468 48.1292 31.4017 48.165 31.4551 48.2017L31.4004 48.2837C31.4549 48.3211 31.5088 48.3589 31.5605 48.397L31.6172 48.3169C31.6719 48.3571 31.7247 48.398 31.7764 48.439L31.7158 48.5151C31.7671 48.5558 31.817 48.5969 31.8652 48.6382L31.9297 48.562C31.9811 48.606 32.0302 48.651 32.0781 48.6958L32.0107 48.7681C32.0587 48.8128 32.1051 48.8584 32.1494 48.9038L32.2197 48.8354C32.2665 48.8834 32.3117 48.9312 32.3545 48.98L32.2803 49.0454C32.3233 49.0945 32.3646 49.1441 32.4033 49.1938L32.4814 49.1323C32.5229 49.1855 32.56 49.2404 32.5967 49.2944L32.5176 49.3501C32.554 49.4037 32.5878 49.458 32.6191 49.5122L32.7021 49.4624C32.7358 49.5205 32.7679 49.5782 32.7959 49.6372L32.707 49.6802C32.7345 49.738 32.7596 49.7966 32.7812 49.855L32.874 49.8198Z" stroke="#00F0FF" stroke-opacity="0.39" stroke-width="0.2" stroke-dasharray="0.2 0.2"/>
<ellipse cx="22" cy="50.5005" rx="7" ry="2.5" fill="url(#paint7_linear_2952_76997)" fill-opacity="0.63"/>
<path d="M22 48.1001C23.9246 48.1001 25.6627 48.3791 26.916 48.8267C27.5431 49.0506 28.044 49.3155 28.3857 49.604C28.7277 49.8929 28.9004 50.1963 28.9004 50.5005C28.9004 50.8047 28.7277 51.1081 28.3857 51.397C28.044 51.6855 27.5431 51.9503 26.916 52.1743C25.6627 52.6219 23.9246 52.9009 22 52.9009C20.0754 52.9009 18.3373 52.6219 17.084 52.1743C16.4569 51.9503 15.956 51.6855 15.6143 51.397C15.2723 51.1081 15.0996 50.8047 15.0996 50.5005C15.0996 50.1963 15.2723 49.8929 15.6143 49.604C15.956 49.3155 16.4569 49.0506 17.084 48.8267C18.3373 48.3791 20.0754 48.1001 22 48.1001Z" stroke="#00F0FF" stroke-opacity="0.39" stroke-width="0.2"/>
<path d="M22 44.0005L27 51.0005L17 51.0005L22 44.0005Z" fill="url(#paint8_linear_2952_76997)" fill-opacity="0.66"/>
<defs>
<linearGradient id="paint0_linear_2952_76997" x1="22" y1="1" x2="22" y2="43" gradientUnits="userSpaceOnUse">
<stop stop-color="#3D636C" stop-opacity="0"/>
<stop offset="0.505209" stop-color="#3D636C"/>
<stop offset="1" stop-color="#3D636C" stop-opacity="0"/>
</linearGradient>
<linearGradient id="paint1_linear_2952_76997" x1="22" y1="1" x2="22" y2="43" gradientUnits="userSpaceOnUse">
<stop stop-color="white" stop-opacity="0.1"/>
<stop offset="0.515626" stop-color="white"/>
<stop offset="1" stop-color="white" stop-opacity="0.1"/>
</linearGradient>
<linearGradient id="paint2_linear_2952_76997" x1="22" y1="39" x2="22" y2="0.999998" gradientUnits="userSpaceOnUse">
<stop stop-color="white" stop-opacity="0"/>
<stop offset="0.473957" stop-color="white"/>
<stop offset="1" stop-color="white" stop-opacity="0"/>
</linearGradient>
<linearGradient id="paint3_linear_2952_76997" x1="36.3182" y1="35.3636" x2="37.2727" y2="8.15909" gradientUnits="userSpaceOnUse">
<stop stop-color="#00F0FF"/>
<stop offset="0.187487" stop-color="#00B2FF"/>
<stop offset="1" stop-color="#00B2FF" stop-opacity="0"/>
</linearGradient>
<linearGradient id="paint4_linear_2952_76997" x1="2.90909" y1="26.7727" x2="26.2955" y2="42.0455" gradientUnits="userSpaceOnUse">
<stop stop-color="#00F0FF"/>
<stop offset="0.187487" stop-color="#00B2FF"/>
<stop offset="1" stop-color="#00B2FF" stop-opacity="0"/>
</linearGradient>
<linearGradient id="paint5_linear_2952_76997" x1="36.7955" y1="8.15909" x2="2.43182" y2="23.9091" gradientUnits="userSpaceOnUse">
<stop stop-color="white" stop-opacity="0.16"/>
<stop offset="0.12603" stop-color="white"/>
<stop offset="0.359369" stop-color="#BCDCEA"/>
<stop offset="1" stop-color="white" stop-opacity="0.03"/>
</linearGradient>
<linearGradient id="paint6_linear_2952_76997" x1="27.1321" y1="33.0117" x2="29.041" y2="12.8915" gradientUnits="userSpaceOnUse">
<stop stop-color="#00F0FF"/>
<stop offset="1" stop-color="#00B2FF"/>
</linearGradient>
<linearGradient id="paint7_linear_2952_76997" x1="22" y1="48.0005" x2="22" y2="53.0005" gradientUnits="userSpaceOnUse">
<stop stop-color="#6BDFE6"/>
<stop offset="1" stop-color="#6BDFE6" stop-opacity="0"/>
</linearGradient>
<linearGradient id="paint8_linear_2952_76997" x1="19.6677" y1="43.9968" x2="19.2405" y2="50.4279" gradientUnits="userSpaceOnUse">
<stop stop-color="#00F0FF"/>
<stop offset="1" stop-color="#00B2FF"/>
</linearGradient>
</defs>
</svg>
