<svg width="64" height="64" viewBox="0 0 64 64" fill="none" xmlns="http://www.w3.org/2000/svg">
<g filter="url(#filter0_ddi_1482_13262)">
<path fill-rule="evenodd" clip-rule="evenodd" d="M36.3409 49.3418L32.0078 55L27.6787 49.3477C18.7129 47.3789 12 39.4314 12 29.9127C12 18.9156 20.9541 10 32 10C43.0459 10 52 18.9156 52 29.9127C52 39.4245 45.2969 47.366 36.3409 49.3418Z" fill="url(#paint0_linear_1482_13262)" fill-opacity="0.502" shape-rendering="crispEdges"/>
<path d="M32 11.5C42.2237 11.5 50.5 19.7506 50.5 29.9131C50.4998 38.6999 44.3067 46.0483 36.0176 47.877C35.7154 47.9436 35.442 48.1015 35.2344 48.3281L35.1504 48.4297L32.0068 52.5332L28.8691 48.4355C28.6807 48.1896 28.4215 48.0092 28.1279 47.917L28 47.8828L27.6133 47.793C19.5102 45.8302 13.5002 38.5691 13.5 29.9131C13.5 19.7506 21.7763 11.5 32 11.5Z" stroke="url(#paint1_linear_1482_13262)" stroke-width="3" stroke-linejoin="round" shape-rendering="crispEdges"/>
</g>
<g filter="url(#filter1_f_1482_13262)">
<path d="M32 10.5C42.7718 10.5 51.5 19.1942 51.5 29.9131C51.4998 39.183 44.9669 46.9267 36.2334 48.8535C36.1471 48.8726 36.0674 48.9137 36.0029 48.9727L35.9443 49.0381L32.0068 54.1777L28.0752 49.0439C28.0214 48.9738 27.9508 48.9192 27.8701 48.8857L27.7861 48.8594L27.3779 48.7646C18.8401 46.6965 12.5002 39.045 12.5 29.9131C12.5 19.1942 21.2282 10.5 32 10.5Z" stroke="white" stroke-linejoin="round"/>
</g>
<path d="M32 10.4004C42.8267 10.4004 51.5996 19.1385 51.5996 29.9131C51.5994 39.2314 45.0329 47.0146 36.2549 48.9512C36.1857 48.9664 36.1219 48.9995 36.0703 49.0469L36.0234 49.0986L32.0068 54.3418L27.9961 49.1045C27.953 49.0482 27.8958 49.0053 27.8311 48.9785L27.7646 48.957L27.3545 48.8623C18.7731 46.7837 12.4006 39.0927 12.4004 29.9131C12.4004 19.1385 21.1733 10.4004 32 10.4004Z" stroke="url(#paint2_linear_1482_13262)" stroke-width="0.8" stroke-linejoin="round"/>
<g filter="url(#filter2_d_1482_13262)">
<path fill-rule="evenodd" clip-rule="evenodd" d="M40.7268 39.0797C41.1271 39.0372 41.5274 38.9966 41.9287 38.9579C42.0174 38.9494 42.0429 38.9069 42.0335 38.8342C42.0264 38.7756 42.0208 38.7166 42.0153 38.6574L42.0099 38.6L41.0355 28.976C40.884 27.4767 40.7322 25.9771 40.5804 24.4776L40.5763 24.4371L40.5759 24.433C40.4256 22.9482 40.2754 21.4635 40.1253 19.979C40.117 19.897 40.1084 19.815 40.0999 19.7331L40.0999 19.7326C40.0786 19.5277 40.0573 19.3228 40.0384 19.1179C40.0299 19.0244 39.9856 18.9895 39.8742 19.0027C39.6687 19.0271 39.4632 19.0473 39.2574 19.0676L39.2573 19.0676C39.1681 19.0764 39.0788 19.0851 38.9895 19.0943C38.5976 19.133 38.5976 19.133 38.6326 19.4823L38.7976 21.113C39.3412 26.4827 39.8847 31.8516 40.4274 37.2206L40.6031 38.9645C40.6097 39.0334 40.6219 39.091 40.7268 39.0797ZM23.5932 37.3666L23.6079 37.2206C23.9229 34.1095 24.2376 30.9985 24.5523 27.8873L24.5525 27.8853L24.5531 27.8791L24.5538 27.8723L24.5553 27.8581C24.8377 25.0663 25.1201 22.2744 25.4028 19.4823C25.4377 19.133 25.4377 19.133 25.0468 19.0943C24.9566 19.0851 24.8663 19.0762 24.7761 19.0673C24.5709 19.0471 24.3658 19.027 24.1612 19.0027C24.0507 18.9895 24.0063 19.0244 23.9969 19.1179C23.9705 19.4049 23.9402 19.6919 23.91 19.979L23.91 19.979L23.8339 20.7321L23.8337 20.7342C23.5561 23.4813 23.2783 26.2291 22.9998 28.976C22.8374 30.5802 22.6753 32.1841 22.5131 33.788L22.5128 33.7909C22.3508 35.3938 22.1887 36.9968 22.0264 38.6C22.0232 38.6291 22.0205 38.6581 22.0177 38.6871C22.0131 38.7363 22.0084 38.7854 22.0018 38.8342C21.9924 38.9069 22.0179 38.9494 22.1076 38.9579C22.5079 38.9966 22.9083 39.0372 23.3086 39.0797C23.4134 39.091 23.4257 39.0334 23.4332 38.9645C23.486 38.4316 23.5396 37.8994 23.5932 37.3666ZM31.068 21.7563H36V21.1975H33.757H31.5139L31.7101 20.9286H35.6343V20.3949H32.058L32.2631 20.0714L30.8807 20L30.631 20.3949H28.3657V20.9286H30.2475C30.2059 20.9902 30.1375 21.0798 30.0424 21.1975H28V21.7563H29.5697C29.4686 21.8627 29.3645 21.9622 29.2575 22.0546V22.5504H33.6366L31.9064 23.0084L29.4805 22.6722L29.1327 23.2311L30.0067 23.3571C32.058 23.6484 33.479 23.8627 34.2698 24L34.689 23.4117L33.3244 23.2059L35.3935 22.5924V21.9916H30.854C30.9194 21.9272 30.9907 21.8487 31.068 21.7563ZM29 25H35.7947L36 28.3437C36 28.4955 35.9596 28.6131 35.8789 28.6964C35.7982 28.7827 35.6647 28.8437 35.4785 28.8794C35.2922 28.9181 35.0314 28.9375 34.6962 28.9375H33.5972L33.3644 28.3303H34.2119C34.3609 28.3303 34.4664 28.3259 34.5285 28.3169C34.5906 28.308 34.6279 28.2916 34.6403 28.2678C34.6589 28.244 34.6682 28.2024 34.6682 28.1428V27.8036H33.0012V28.8214H31.6508V27.8036H30.0396C29.9899 28.0268 29.8999 28.2321 29.7695 28.4196C29.6453 28.6071 29.4591 28.8006 29.2107 29L28 28.6741C28.2421 28.4598 28.4098 28.2872 28.5029 28.1562C28.6023 28.0253 28.6643 27.8735 28.6892 27.7009C28.6963 27.6606 28.7081 27.6065 28.722 27.5425C28.7688 27.3274 28.8398 27.001 28.8398 26.7143L29 25ZM31.707 26.1027L31.7305 25.625H30.1908L30.1517 26.1027H31.707ZM33.0012 26.1027H34.6682L34.6094 25.625H33.0012V26.1027ZM30.1517 27.1964H31.707V26.7143H30.1517V27.1964ZM33.0012 26.7143V27.1964H34.6682V26.7143H33.0012ZM28.4025 38.6776H31.8054C32.1861 38.6776 32.567 38.6775 32.9479 38.6774C33.7099 38.6771 34.4723 38.6769 35.2346 38.6776C35.4319 38.6776 35.4319 38.6785 35.4329 38.8675L35.4329 38.8702C35.4329 38.9334 35.4338 38.9976 35.4367 39.0609C35.448 39.2866 35.5556 39.3933 35.7785 39.3942C36.3865 39.3961 36.9946 39.3961 37.6026 39.3951C37.8981 39.3951 38.0058 39.2913 38.0058 38.9967C38.0077 37.6579 38.0086 36.32 38.002 34.9821C38.001 34.7753 37.9727 34.5657 37.9321 34.3627C37.8783 34.0983 37.7178 33.8868 37.5544 33.6791C37.4421 33.5356 37.4449 33.5224 37.6007 33.4374C37.7337 33.3641 37.8703 33.2963 38.0067 33.2285C38.0407 33.2116 38.0747 33.1947 38.1087 33.1777C38.2163 33.123 38.2786 33.0522 38.2352 32.9181C38.2102 32.8407 38.1913 32.7609 38.1724 32.6809C38.1599 32.6283 38.1475 32.5755 38.1332 32.5234C38.0804 32.3299 37.9302 32.2203 37.7338 32.2213C37.6174 32.2216 37.5009 32.221 37.3845 32.2203C37.1516 32.2191 36.9187 32.2178 36.6858 32.2241C36.548 32.2279 36.4592 32.1816 36.3799 32.0721C36.0513 31.6114 35.7209 31.1525 35.3838 30.6983C35.261 30.5331 35.1005 30.4226 34.8805 30.4141C34.6937 30.4074 34.5071 30.3975 34.3205 30.3876C34.1677 30.3795 34.0148 30.3714 33.8618 30.365C32.1472 30.2895 30.4335 30.3188 28.7207 30.4179C28.5158 30.4292 28.3572 30.5293 28.2401 30.6889C27.887 31.1657 27.5386 31.6463 27.1931 32.1288C27.1411 32.2024 27.0845 32.2232 27.0004 32.2222C26.624 32.2185 26.2484 32.2203 25.872 32.2222L25.8712 32.2222C25.7003 32.2232 25.5445 32.3223 25.5001 32.4696C25.4672 32.5816 25.4407 32.6955 25.4142 32.8092C25.4027 32.8585 25.3913 32.9077 25.3793 32.9568C25.3547 33.0559 25.3925 33.1201 25.485 33.1645C25.5848 33.2126 25.683 33.2638 25.7815 33.3151C25.8358 33.3434 25.8901 33.3718 25.9449 33.3996C26.0731 33.4649 26.1375 33.4878 26.1466 33.5244C26.1557 33.5608 26.1099 33.6109 26.0176 33.7301C25.8023 34.0077 25.6323 34.3155 25.6286 34.6695C25.6156 35.9134 25.6151 37.1573 25.6147 38.4012C25.6146 38.6085 25.6145 38.8158 25.6144 39.0231C25.6144 39.3054 25.7135 39.3933 25.9987 39.3942C26.3764 39.3948 26.7545 39.3946 27.1325 39.3944C27.3214 39.3943 27.5103 39.3942 27.6991 39.3942C28.124 39.3942 28.1863 39.33 28.1759 38.9032C28.1712 38.6813 28.1731 38.6785 28.4025 38.6776ZM29.2299 33.1345C29.2333 33.1435 29.2369 33.1531 29.241 33.1636C29.1037 33.17 28.967 33.1764 28.8309 33.1828C28.3098 33.2073 27.7961 33.2314 27.2818 33.2561C27.2724 33.2391 27.2629 33.2231 27.2525 33.207C27.2759 33.1697 27.2987 33.1321 27.3216 33.0944C27.3715 33.0119 27.4215 32.9295 27.4773 32.8511C27.6767 32.5719 27.8775 32.2936 28.0784 32.0152C28.2512 31.7757 28.4241 31.5362 28.5961 31.296C28.6952 31.1572 28.817 31.0864 28.9936 31.0807C29.3467 31.0682 29.6998 31.0515 30.0529 31.0348C30.7101 31.0037 31.3672 30.9727 32.0244 30.9684C32.5719 30.9644 33.1194 30.997 33.6672 31.0296C33.9073 31.0439 34.1475 31.0582 34.3877 31.0694C34.396 31.0697 34.4042 31.0702 34.4125 31.0708C34.4315 31.072 34.4504 31.0733 34.4689 31.0713C34.7427 31.0486 34.9315 31.1544 35.0911 31.3895C35.3394 31.7573 35.5999 32.1167 35.8605 32.476C36.0012 32.6702 36.142 32.8643 36.2808 33.0597C36.302 33.0896 36.3097 33.1293 36.3173 33.1686C36.3206 33.1852 36.3238 33.2017 36.328 33.2174C36.3129 33.2208 36.2976 33.2253 36.2822 33.2297C36.2468 33.2401 36.2109 33.2505 36.176 33.2486C34.6766 33.1636 33.1782 33.0956 31.676 33.1088C31.397 33.1109 31.118 33.1147 30.839 33.1184C30.746 33.1196 30.653 33.1209 30.56 33.122H30.4193C30.4363 33.0867 30.4536 33.0543 30.4701 33.0234C30.5022 32.9633 30.5312 32.909 30.5487 32.8511C30.6535 32.5093 30.6903 32.158 30.6469 31.803C30.5893 31.3319 30.1247 31.1175 29.7216 31.1581C29.2193 31.2101 28.9445 31.5141 28.9568 32.0192C28.9634 32.2666 29.0002 32.5149 29.0465 32.7585C29.0611 32.8315 29.1026 32.8994 29.1443 32.9676C29.1646 33.0009 29.1849 33.0342 29.2023 33.0682C29.2121 33.0873 29.2199 33.1079 29.2299 33.1345ZM27.6661 35.4957V35.4655C27.5239 35.4583 27.3817 35.4506 27.2396 35.443C27.1015 35.4355 26.9635 35.4281 26.8258 35.4211C26.5718 35.4079 26.3603 35.2096 26.3452 34.9537C26.3348 34.7961 26.3376 34.6374 26.3442 34.4788C26.3509 34.3249 26.4207 34.2673 26.5756 34.2881C27.1458 34.3636 27.7152 34.4401 28.2836 34.5213C28.5404 34.5581 28.7009 34.7441 28.7103 35.0028C28.7141 35.1067 28.7122 35.2115 28.7103 35.3154C28.7075 35.4636 28.6745 35.4947 28.5206 35.4947C28.2364 35.4957 27.9512 35.4957 27.6661 35.4957ZM35.9097 35.4664V35.4947C35.8333 35.4947 35.757 35.4946 35.6806 35.4944C35.4898 35.4941 35.2992 35.4937 35.109 35.4957C34.9447 35.4976 34.8985 35.4579 34.8985 35.2918C34.8985 35.2679 34.8984 35.2441 34.8984 35.2203C34.8982 35.1487 34.898 35.0772 34.8994 35.0057C34.906 34.7658 35.0656 34.5676 35.3054 34.5317C35.6633 34.4782 36.0222 34.4287 36.3813 34.3792C36.6058 34.3482 36.8305 34.3172 37.055 34.2853C37.1853 34.2673 37.2655 34.3249 37.2712 34.4477C37.2797 34.6327 37.2797 34.8197 37.2589 35.0028C37.2353 35.2162 37.021 35.4192 36.7793 35.423C36.5794 35.4262 36.3795 35.4385 36.1796 35.4507C36.0896 35.4562 35.9997 35.4617 35.9097 35.4664Z" fill="url(#paint3_linear_1482_13262)"/>
</g>
<defs>
<filter id="filter0_ddi_1482_13262" x="8" y="6" width="48" height="57" filterUnits="userSpaceOnUse" color-interpolation-filters="sRGB">
<feFlood flood-opacity="0" result="BackgroundImageFix"/>
<feColorMatrix in="SourceAlpha" type="matrix" values="0 0 0 0 0 0 0 0 0 0 0 0 0 0 0 0 0 0 127 0" result="hardAlpha"/>
<feOffset dy="4"/>
<feGaussianBlur stdDeviation="2"/>
<feComposite in2="hardAlpha" operator="out"/>
<feColorMatrix type="matrix" values="0 0 0 0 0 0 0 0 0 0 0 0 0 0 0 0 0 0 0.25 0"/>
<feBlend mode="normal" in2="BackgroundImageFix" result="effect1_dropShadow_1482_13262"/>
<feColorMatrix in="SourceAlpha" type="matrix" values="0 0 0 0 0 0 0 0 0 0 0 0 0 0 0 0 0 0 127 0" result="hardAlpha"/>
<feOffset/>
<feGaussianBlur stdDeviation="2"/>
<feComposite in2="hardAlpha" operator="out"/>
<feColorMatrix type="matrix" values="0 0 0 0 0.278431 0 0 0 0 0.945098 0 0 0 0 0.533333 0 0 0 0.3 0"/>
<feBlend mode="normal" in2="effect1_dropShadow_1482_13262" result="effect2_dropShadow_1482_13262"/>
<feBlend mode="normal" in="SourceGraphic" in2="effect2_dropShadow_1482_13262" result="shape"/>
<feColorMatrix in="SourceAlpha" type="matrix" values="0 0 0 0 0 0 0 0 0 0 0 0 0 0 0 0 0 0 127 0" result="hardAlpha"/>
<feOffset/>
<feGaussianBlur stdDeviation="5"/>
<feComposite in2="hardAlpha" operator="arithmetic" k2="-1" k3="1"/>
<feColorMatrix type="matrix" values="0 0 0 0 0.278431 0 0 0 0 0.945098 0 0 0 0 0.533333 0 0 0 0.7 0"/>
<feBlend mode="normal" in2="shape" result="effect3_innerShadow_1482_13262"/>
</filter>
<filter id="filter1_f_1482_13262" x="9" y="7" width="46" height="51" filterUnits="userSpaceOnUse" color-interpolation-filters="sRGB">
<feFlood flood-opacity="0" result="BackgroundImageFix"/>
<feBlend mode="normal" in="SourceGraphic" in2="BackgroundImageFix" result="shape"/>
<feGaussianBlur stdDeviation="1.5" result="effect1_foregroundBlur_1482_13262"/>
</filter>
<filter id="filter2_d_1482_13262" x="18" y="19" width="28.0354" height="28.3958" filterUnits="userSpaceOnUse" color-interpolation-filters="sRGB">
<feFlood flood-opacity="0" result="BackgroundImageFix"/>
<feColorMatrix in="SourceAlpha" type="matrix" values="0 0 0 0 0 0 0 0 0 0 0 0 0 0 0 0 0 0 127 0" result="hardAlpha"/>
<feOffset dy="4"/>
<feGaussianBlur stdDeviation="2"/>
<feComposite in2="hardAlpha" operator="out"/>
<feColorMatrix type="matrix" values="0 0 0 0 0 0 0 0 0 0 0 0 0 0 0 0 0 0 0.25 0"/>
<feBlend mode="normal" in2="BackgroundImageFix" result="effect1_dropShadow_1482_13262"/>
<feBlend mode="normal" in="SourceGraphic" in2="effect1_dropShadow_1482_13262" result="shape"/>
</filter>
<linearGradient id="paint0_linear_1482_13262" x1="12" y1="49" x2="12" y2="10" gradientUnits="userSpaceOnUse">
<stop/>
<stop offset="1" stop-color="#47F188"/>
</linearGradient>
<linearGradient id="paint1_linear_1482_13262" x1="32" y1="10" x2="32" y2="43.5" gradientUnits="userSpaceOnUse">
<stop stop-color="white"/>
<stop offset="1" stop-color="#47F188"/>
</linearGradient>
<linearGradient id="paint2_linear_1482_13262" x1="32" y1="10" x2="32" y2="55" gradientUnits="userSpaceOnUse">
<stop stop-color="white" stop-opacity="0"/>
<stop offset="1" stop-color="white"/>
</linearGradient>
<linearGradient id="paint3_linear_1482_13262" x1="32.0178" y1="19" x2="32.0178" y2="36.7421" gradientUnits="userSpaceOnUse">
<stop stop-color="white"/>
<stop offset="1" stop-color="#47F188"/>
</linearGradient>
</defs>
</svg>
