<svg width="64" height="64" viewBox="0 0 64 64" fill="none" xmlns="http://www.w3.org/2000/svg">
<g filter="url(#filter0_ddi_1482_13272)">
<path fill-rule="evenodd" clip-rule="evenodd" d="M36.3409 49.3418L32.0078 55L27.6787 49.3477C18.7129 47.3789 12 39.4314 12 29.9127C12 18.9156 20.9541 10 32 10C43.0459 10 52 18.9156 52 29.9127C52 39.4245 45.2969 47.366 36.3409 49.3418Z" fill="url(#paint0_linear_1482_13272)" fill-opacity="0.502" shape-rendering="crispEdges"/>
<path d="M32 11.5C42.2237 11.5 50.5 19.7506 50.5 29.9131C50.4998 38.6999 44.3067 46.0483 36.0176 47.877C35.7154 47.9436 35.442 48.1015 35.2344 48.3281L35.1504 48.4297L32.0068 52.5332L28.8691 48.4355C28.6807 48.1896 28.4215 48.0092 28.1279 47.917L28 47.8828L27.6133 47.793C19.5102 45.8302 13.5002 38.5691 13.5 29.9131C13.5 19.7506 21.7763 11.5 32 11.5Z" stroke="url(#paint1_linear_1482_13272)" stroke-width="3" stroke-linejoin="round" shape-rendering="crispEdges"/>
</g>
<g filter="url(#filter1_f_1482_13272)">
<path d="M32 10.5C42.7718 10.5 51.5 19.1942 51.5 29.9131C51.4998 39.183 44.9669 46.9267 36.2334 48.8535C36.1471 48.8726 36.0674 48.9137 36.0029 48.9727L35.9443 49.0381L32.0068 54.1777L28.0752 49.0439C28.0214 48.9738 27.9508 48.9192 27.8701 48.8857L27.7861 48.8594L27.3779 48.7646C18.8401 46.6965 12.5002 39.045 12.5 29.9131C12.5 19.1942 21.2282 10.5 32 10.5Z" stroke="white" stroke-linejoin="round"/>
</g>
<path d="M32 10.4004C42.8267 10.4004 51.5996 19.1385 51.5996 29.9131C51.5994 39.2314 45.0329 47.0146 36.2549 48.9512C36.1857 48.9664 36.1219 48.9995 36.0703 49.0469L36.0234 49.0986L32.0068 54.3418L27.9961 49.1045C27.953 49.0482 27.8958 49.0053 27.8311 48.9785L27.7646 48.957L27.3545 48.8623C18.7731 46.7837 12.4006 39.0927 12.4004 29.9131C12.4004 19.1385 21.1733 10.4004 32 10.4004Z" stroke="url(#paint2_linear_1482_13272)" stroke-width="0.8" stroke-linejoin="round"/>
<g filter="url(#filter2_d_1482_13272)">
<path fill-rule="evenodd" clip-rule="evenodd" d="M40.7268 40.0797C41.1271 40.0372 41.5274 39.9966 41.9287 39.9579C42.0174 39.9494 42.0429 39.9069 42.0335 39.8342C42.0264 39.7756 42.0208 39.7166 42.0153 39.6574L42.0099 39.6L41.0355 29.976C40.884 28.4767 40.7322 26.9771 40.5804 25.4776L40.5763 25.4371L40.5759 25.433C40.4256 23.9482 40.2754 22.4635 40.1253 20.979C40.117 20.897 40.1084 20.815 40.0999 20.7331L40.0999 20.7326C40.0786 20.5277 40.0573 20.3228 40.0384 20.1179C40.0299 20.0244 39.9856 19.9895 39.8742 20.0027C39.6687 20.0271 39.4632 20.0473 39.2574 20.0676L39.2573 20.0676C39.1681 20.0764 39.0788 20.0851 38.9895 20.0943C38.5976 20.133 38.5976 20.133 38.6326 20.4823L38.7976 22.113C39.3412 27.4827 39.8847 32.8516 40.4274 38.2206L40.6031 39.9645C40.6097 40.0334 40.6219 40.091 40.7268 40.0797ZM23.5932 38.3666L23.6079 38.2206C23.9229 35.1095 24.2376 31.9985 24.5523 28.8873L24.5525 28.8853L24.5531 28.8791L24.5538 28.8723L24.5553 28.8581C24.8377 26.0663 25.1201 23.2744 25.4028 20.4823C25.4377 20.133 25.4377 20.133 25.0468 20.0943C24.9566 20.0851 24.8663 20.0762 24.7761 20.0673C24.5709 20.0471 24.3658 20.027 24.1612 20.0027C24.0507 19.9895 24.0063 20.0244 23.9969 20.1179C23.9705 20.4049 23.9402 20.6919 23.91 20.979L23.91 20.979L23.8339 21.7321L23.8337 21.7342C23.5561 24.4813 23.2783 27.2291 22.9998 29.976C22.8374 31.5802 22.6753 33.1841 22.5131 34.788L22.5128 34.7909C22.3508 36.3938 22.1887 37.9968 22.0264 39.6C22.0232 39.6291 22.0205 39.6581 22.0177 39.6871C22.0131 39.7363 22.0084 39.7854 22.0018 39.8342C21.9924 39.9069 22.0179 39.9494 22.1076 39.9579C22.5079 39.9966 22.9083 40.0372 23.3086 40.0797C23.4134 40.091 23.4257 40.0334 23.4332 39.9645C23.486 39.4316 23.5396 38.8994 23.5932 38.3666ZM31.068 22.7563H36V22.1975H33.757H31.5139L31.7101 21.9286H35.6343V21.3949H32.058L32.2631 21.0714L30.8807 21L30.631 21.3949H28.3657V21.9286H30.2475C30.2059 21.9902 30.1375 22.0798 30.0424 22.1975H28V22.7563H29.5697C29.4686 22.8627 29.3645 22.9622 29.2575 23.0546V23.5504H33.6366L31.9064 24.0084L29.4805 23.6722L29.1327 24.2311L30.0067 24.3571C32.058 24.6484 33.479 24.8627 34.2698 25L34.689 24.4117L33.3244 24.2059L35.3935 23.5924V22.9916H30.854C30.9194 22.9272 30.9907 22.8487 31.068 22.7563ZM29 26H35.7947L36 29.3437C36 29.4955 35.9596 29.6131 35.8789 29.6964C35.7982 29.7827 35.6647 29.8437 35.4785 29.8794C35.2922 29.9181 35.0314 29.9375 34.6962 29.9375H33.5972L33.3644 29.3303H34.2119C34.3609 29.3303 34.4664 29.3259 34.5285 29.3169C34.5906 29.308 34.6279 29.2916 34.6403 29.2678C34.6589 29.244 34.6682 29.2024 34.6682 29.1428V28.8036H33.0012V29.8214H31.6508V28.8036H30.0396C29.9899 29.0268 29.8999 29.2321 29.7695 29.4196C29.6453 29.6071 29.4591 29.8006 29.2107 30L28 29.6741C28.2421 29.4598 28.4098 29.2872 28.5029 29.1562C28.6023 29.0253 28.6643 28.8735 28.6892 28.7009C28.6963 28.6606 28.7081 28.6065 28.722 28.5425C28.7688 28.3274 28.8398 28.001 28.8398 27.7143L29 26ZM31.707 27.1027L31.7305 26.625H30.1908L30.1517 27.1027H31.707ZM33.0012 27.1027H34.6682L34.6094 26.625H33.0012V27.1027ZM30.1517 28.1964H31.707V27.7143H30.1517V28.1964ZM33.0012 27.7143V28.1964H34.6682V27.7143H33.0012ZM28.4025 39.6776H31.8054C32.1861 39.6776 32.567 39.6775 32.9479 39.6774C33.7099 39.6771 34.4723 39.6769 35.2346 39.6776C35.4319 39.6776 35.4319 39.6785 35.4329 39.8675L35.4329 39.8702C35.4329 39.9334 35.4338 39.9976 35.4367 40.0609C35.448 40.2866 35.5556 40.3933 35.7785 40.3942C36.3865 40.3961 36.9946 40.3961 37.6026 40.3951C37.8981 40.3951 38.0058 40.2913 38.0058 39.9967C38.0077 38.6579 38.0086 37.32 38.002 35.9821C38.001 35.7753 37.9727 35.5657 37.9321 35.3627C37.8783 35.0983 37.7178 34.8868 37.5544 34.6791C37.4421 34.5356 37.4449 34.5224 37.6007 34.4374C37.7337 34.3641 37.8703 34.2963 38.0067 34.2285C38.0407 34.2116 38.0747 34.1947 38.1087 34.1777C38.2163 34.123 38.2786 34.0522 38.2352 33.9181C38.2102 33.8407 38.1913 33.7609 38.1724 33.6809C38.1599 33.6283 38.1475 33.5755 38.1332 33.5234C38.0804 33.3299 37.9302 33.2203 37.7338 33.2213C37.6174 33.2216 37.5009 33.221 37.3845 33.2203C37.1516 33.2191 36.9187 33.2178 36.6858 33.2241C36.548 33.2279 36.4592 33.1816 36.3799 33.0721C36.0513 32.6114 35.7209 32.1525 35.3838 31.6983C35.261 31.5331 35.1005 31.4226 34.8805 31.4141C34.6937 31.4074 34.5071 31.3975 34.3205 31.3876C34.1677 31.3795 34.0148 31.3714 33.8618 31.365C32.1472 31.2895 30.4335 31.3188 28.7207 31.4179C28.5158 31.4292 28.3572 31.5293 28.2401 31.6889C27.887 32.1657 27.5386 32.6463 27.1931 33.1288C27.1411 33.2024 27.0845 33.2232 27.0004 33.2222C26.624 33.2185 26.2484 33.2203 25.872 33.2222L25.8712 33.2222C25.7003 33.2232 25.5445 33.3223 25.5001 33.4696C25.4672 33.5816 25.4407 33.6955 25.4142 33.8092C25.4027 33.8585 25.3913 33.9077 25.3793 33.9568C25.3547 34.0559 25.3925 34.1201 25.485 34.1645C25.5848 34.2126 25.683 34.2638 25.7815 34.3151C25.8358 34.3434 25.8901 34.3718 25.9449 34.3996C26.0731 34.4649 26.1375 34.4878 26.1466 34.5244C26.1557 34.5608 26.1099 34.6109 26.0176 34.7301C25.8023 35.0077 25.6323 35.3155 25.6286 35.6695C25.6156 36.9134 25.6151 38.1573 25.6147 39.4012C25.6146 39.6085 25.6145 39.8158 25.6144 40.0231C25.6144 40.3054 25.7135 40.3933 25.9987 40.3942C26.3764 40.3948 26.7545 40.3946 27.1325 40.3944C27.3214 40.3943 27.5103 40.3942 27.6991 40.3942C28.124 40.3942 28.1863 40.33 28.1759 39.9032C28.1712 39.6813 28.1731 39.6785 28.4025 39.6776ZM29.2299 34.1345C29.2333 34.1435 29.2369 34.1531 29.241 34.1636C29.1037 34.17 28.967 34.1764 28.8309 34.1828C28.3098 34.2073 27.7961 34.2314 27.2818 34.2561C27.2724 34.2391 27.2629 34.2231 27.2525 34.207C27.2759 34.1697 27.2987 34.1321 27.3216 34.0944C27.3715 34.0119 27.4215 33.9295 27.4773 33.8511C27.6767 33.5719 27.8775 33.2936 28.0784 33.0152C28.2512 32.7757 28.4241 32.5362 28.5961 32.296C28.6952 32.1572 28.817 32.0864 28.9936 32.0807C29.3467 32.0682 29.6998 32.0515 30.0529 32.0348C30.7101 32.0037 31.3672 31.9727 32.0244 31.9684C32.5719 31.9644 33.1194 31.997 33.6672 32.0296C33.9073 32.0439 34.1475 32.0582 34.3877 32.0694C34.396 32.0697 34.4042 32.0702 34.4125 32.0708C34.4315 32.072 34.4504 32.0733 34.4689 32.0713C34.7427 32.0486 34.9315 32.1544 35.0911 32.3895C35.3394 32.7573 35.5999 33.1167 35.8605 33.476C36.0012 33.6702 36.142 33.8643 36.2808 34.0597C36.302 34.0896 36.3097 34.1293 36.3173 34.1686C36.3206 34.1852 36.3238 34.2017 36.328 34.2174C36.3129 34.2208 36.2976 34.2253 36.2822 34.2297C36.2468 34.2401 36.2109 34.2505 36.176 34.2486C34.6766 34.1636 33.1782 34.0956 31.676 34.1088C31.397 34.1109 31.118 34.1147 30.839 34.1184C30.746 34.1196 30.653 34.1209 30.56 34.122H30.4193C30.4363 34.0867 30.4536 34.0543 30.4701 34.0234C30.5022 33.9633 30.5312 33.909 30.5487 33.8511C30.6535 33.5093 30.6903 33.158 30.6469 32.803C30.5893 32.3319 30.1247 32.1175 29.7216 32.1581C29.2193 32.2101 28.9445 32.5141 28.9568 33.0192C28.9634 33.2666 29.0002 33.5149 29.0465 33.7585C29.0611 33.8315 29.1026 33.8994 29.1443 33.9676C29.1646 34.0009 29.1849 34.0342 29.2023 34.0682C29.2121 34.0873 29.2199 34.1079 29.2299 34.1345ZM27.6661 36.4957V36.4655C27.5239 36.4583 27.3817 36.4506 27.2396 36.443C27.1015 36.4355 26.9635 36.4281 26.8258 36.4211C26.5718 36.4079 26.3603 36.2096 26.3452 35.9537C26.3348 35.7961 26.3376 35.6374 26.3442 35.4788C26.3509 35.3249 26.4207 35.2673 26.5756 35.2881C27.1458 35.3636 27.7152 35.4401 28.2836 35.5213C28.5404 35.5581 28.7009 35.7441 28.7103 36.0028C28.7141 36.1067 28.7122 36.2115 28.7103 36.3154C28.7075 36.4636 28.6745 36.4947 28.5206 36.4947C28.2364 36.4957 27.9512 36.4957 27.6661 36.4957ZM35.9097 36.4664V36.4947C35.8333 36.4947 35.757 36.4946 35.6806 36.4944C35.4898 36.4941 35.2992 36.4937 35.109 36.4957C34.9447 36.4976 34.8985 36.4579 34.8985 36.2918C34.8985 36.2679 34.8984 36.2441 34.8984 36.2203C34.8982 36.1487 34.898 36.0772 34.8994 36.0057C34.906 35.7658 35.0656 35.5676 35.3054 35.5317C35.6633 35.4782 36.0222 35.4287 36.3813 35.3792C36.6058 35.3482 36.8305 35.3172 37.055 35.2853C37.1853 35.2673 37.2655 35.3249 37.2712 35.4477C37.2797 35.6327 37.2797 35.8197 37.2589 36.0028C37.2353 36.2162 37.021 36.4192 36.7793 36.423C36.5794 36.4262 36.3795 36.4385 36.1796 36.4507C36.0896 36.4562 35.9997 36.4617 35.9097 36.4664Z" fill="url(#paint3_linear_1482_13272)"/>
</g>
<defs>
<filter id="filter0_ddi_1482_13272" x="8" y="6" width="48" height="57" filterUnits="userSpaceOnUse" color-interpolation-filters="sRGB">
<feFlood flood-opacity="0" result="BackgroundImageFix"/>
<feColorMatrix in="SourceAlpha" type="matrix" values="0 0 0 0 0 0 0 0 0 0 0 0 0 0 0 0 0 0 127 0" result="hardAlpha"/>
<feOffset dy="4"/>
<feGaussianBlur stdDeviation="2"/>
<feComposite in2="hardAlpha" operator="out"/>
<feColorMatrix type="matrix" values="0 0 0 0 0 0 0 0 0 0 0 0 0 0 0 0 0 0 0.25 0"/>
<feBlend mode="normal" in2="BackgroundImageFix" result="effect1_dropShadow_1482_13272"/>
<feColorMatrix in="SourceAlpha" type="matrix" values="0 0 0 0 0 0 0 0 0 0 0 0 0 0 0 0 0 0 127 0" result="hardAlpha"/>
<feOffset/>
<feGaussianBlur stdDeviation="2"/>
<feComposite in2="hardAlpha" operator="out"/>
<feColorMatrix type="matrix" values="0 0 0 0 0.996078 0 0 0 0 0.698039 0 0 0 0 0.266667 0 0 0 0.3 0"/>
<feBlend mode="normal" in2="effect1_dropShadow_1482_13272" result="effect2_dropShadow_1482_13272"/>
<feBlend mode="normal" in="SourceGraphic" in2="effect2_dropShadow_1482_13272" result="shape"/>
<feColorMatrix in="SourceAlpha" type="matrix" values="0 0 0 0 0 0 0 0 0 0 0 0 0 0 0 0 0 0 127 0" result="hardAlpha"/>
<feOffset/>
<feGaussianBlur stdDeviation="5"/>
<feComposite in2="hardAlpha" operator="arithmetic" k2="-1" k3="1"/>
<feColorMatrix type="matrix" values="0 0 0 0 0.996078 0 0 0 0 0.698039 0 0 0 0 0.266667 0 0 0 0.7 0"/>
<feBlend mode="normal" in2="shape" result="effect3_innerShadow_1482_13272"/>
</filter>
<filter id="filter1_f_1482_13272" x="9" y="7" width="46" height="51" filterUnits="userSpaceOnUse" color-interpolation-filters="sRGB">
<feFlood flood-opacity="0" result="BackgroundImageFix"/>
<feBlend mode="normal" in="SourceGraphic" in2="BackgroundImageFix" result="shape"/>
<feGaussianBlur stdDeviation="1.5" result="effect1_foregroundBlur_1482_13272"/>
</filter>
<filter id="filter2_d_1482_13272" x="18" y="20" width="28.0354" height="28.3958" filterUnits="userSpaceOnUse" color-interpolation-filters="sRGB">
<feFlood flood-opacity="0" result="BackgroundImageFix"/>
<feColorMatrix in="SourceAlpha" type="matrix" values="0 0 0 0 0 0 0 0 0 0 0 0 0 0 0 0 0 0 127 0" result="hardAlpha"/>
<feOffset dy="4"/>
<feGaussianBlur stdDeviation="2"/>
<feComposite in2="hardAlpha" operator="out"/>
<feColorMatrix type="matrix" values="0 0 0 0 0 0 0 0 0 0 0 0 0 0 0 0 0 0 0.25 0"/>
<feBlend mode="normal" in2="BackgroundImageFix" result="effect1_dropShadow_1482_13272"/>
<feBlend mode="normal" in="SourceGraphic" in2="effect1_dropShadow_1482_13272" result="shape"/>
</filter>
<linearGradient id="paint0_linear_1482_13272" x1="12" y1="49" x2="12" y2="10" gradientUnits="userSpaceOnUse">
<stop/>
<stop offset="1" stop-color="#FEB244"/>
</linearGradient>
<linearGradient id="paint1_linear_1482_13272" x1="32" y1="10" x2="32" y2="43.5" gradientUnits="userSpaceOnUse">
<stop stop-color="white"/>
<stop offset="1" stop-color="#FEB244"/>
</linearGradient>
<linearGradient id="paint2_linear_1482_13272" x1="32" y1="10" x2="32" y2="55" gradientUnits="userSpaceOnUse">
<stop stop-color="white" stop-opacity="0"/>
<stop offset="1" stop-color="white"/>
</linearGradient>
<linearGradient id="paint3_linear_1482_13272" x1="32.0177" y1="20" x2="32.0177" y2="40.3958" gradientUnits="userSpaceOnUse">
<stop stop-color="white"/>
<stop offset="1" stop-color="#FEB244"/>
</linearGradient>
</defs>
</svg>
