<svg width="64" height="64" viewBox="0 0 64 64" fill="none" xmlns="http://www.w3.org/2000/svg">
<g filter="url(#filter0_ddi_1516_14112)">
<path fill-rule="evenodd" clip-rule="evenodd" d="M36.3409 49.3418L32.0078 55L27.6787 49.3477C18.7129 47.3789 12 39.4314 12 29.9127C12 18.9156 20.9541 10 32 10C43.0459 10 52 18.9156 52 29.9127C52 39.4245 45.2969 47.366 36.3409 49.3418Z" fill="url(#paint0_linear_1516_14112)" fill-opacity="0.502" shape-rendering="crispEdges"/>
<path d="M32 11.5C42.2237 11.5 50.5 19.7506 50.5 29.9131C50.4998 38.6999 44.3067 46.0483 36.0176 47.877C35.7154 47.9436 35.442 48.1015 35.2344 48.3281L35.1504 48.4297L32.0068 52.5332L28.8691 48.4355C28.6807 48.1896 28.4215 48.0092 28.1279 47.917L28 47.8828L27.6133 47.793C19.5102 45.8302 13.5002 38.5691 13.5 29.9131C13.5 19.7506 21.7763 11.5 32 11.5Z" stroke="url(#paint1_linear_1516_14112)" stroke-width="3" stroke-linejoin="round" shape-rendering="crispEdges"/>
</g>
<g filter="url(#filter1_f_1516_14112)">
<path d="M32 10.5C42.7718 10.5 51.5 19.1942 51.5 29.9131C51.4998 39.183 44.9669 46.9267 36.2334 48.8535C36.1471 48.8726 36.0674 48.9137 36.0029 48.9727L35.9443 49.0381L32.0068 54.1777L28.0752 49.0439C28.0214 48.9738 27.9508 48.9192 27.8701 48.8857L27.7861 48.8594L27.3779 48.7646C18.8401 46.6965 12.5002 39.045 12.5 29.9131C12.5 19.1942 21.2282 10.5 32 10.5Z" stroke="white" stroke-linejoin="round"/>
</g>
<path d="M32 10.4004C42.8267 10.4004 51.5996 19.1385 51.5996 29.9131C51.5994 39.2314 45.0329 47.0146 36.2549 48.9512C36.1857 48.9664 36.1219 48.9995 36.0703 49.0469L36.0234 49.0986L32.0068 54.3418L27.9961 49.1045C27.953 49.0482 27.8958 49.0053 27.8311 48.9785L27.7646 48.957L27.3545 48.8623C18.7731 46.7837 12.4006 39.0927 12.4004 29.9131C12.4004 19.1385 21.1733 10.4004 32 10.4004Z" stroke="url(#paint2_linear_1516_14112)" stroke-width="0.8" stroke-linejoin="round"/>
<g filter="url(#filter2_d_1516_14112)">
<path fill-rule="evenodd" clip-rule="evenodd" d="M35.896 38.9548C35.896 38.9548 35.8939 38.9548 35.8918 38.9548C32.6087 38.9548 29.9466 36.2937 29.9466 33.0095C29.9466 29.7264 32.6087 27.0653 35.8918 27.0653C39.176 27.0643 41.8381 29.7243 41.8392 33.0085C41.8402 36.2916 39.1792 38.9537 35.896 38.9548ZM35.915 34.5537C36.7045 34.5537 37.3434 33.9443 37.3434 33.1937C37.3434 32.4421 36.7045 31.8327 35.915 31.8327C35.1266 31.8327 34.4876 32.4421 34.4876 33.1937C34.4876 33.9443 35.1266 34.5537 35.915 34.5537ZM31.155 33.1937C31.1571 33.9927 31.3771 34.7769 31.7929 35.46C32.2171 36.1569 32.8181 36.7306 33.5339 37.1211L34.9623 34.7643C34.3929 34.4485 34.0118 33.8632 34.0118 33.1937H31.155ZM33.536 29.2653L34.9645 31.6221C35.5571 31.2958 36.276 31.2958 36.8687 31.6221L38.296 29.2653C36.8129 28.4558 35.0202 28.4558 33.536 29.2653ZM37.8181 33.1958C37.8181 33.8632 37.435 34.4506 36.8666 34.7643L38.2939 37.12C39.8213 36.2811 40.6739 34.76 40.676 33.1958H37.8181ZM28.7866 30.299V30.2969C28.7866 30.0432 28.9929 29.8369 29.2455 29.8369H29.7013C29.5413 30.1337 29.4034 30.4421 29.2897 30.759H29.2455C28.9918 30.7579 28.7866 30.5527 28.7866 30.299ZM37.056 26.4127V23.8474C37.056 23.5937 36.8497 23.3874 36.596 23.3874H26.4897C26.2676 23.3874 26.0771 23.5464 26.0371 23.7653L26.0297 23.8474V27.5348C26.0297 27.7611 26.1929 27.9485 26.4066 27.9864L26.4897 27.9948H31.1592C30.8455 28.2748 30.5581 28.5832 30.3013 28.9158H28.3276C28.1055 28.9158 27.915 29.0748 27.875 29.2927L27.8676 29.3758V33.0632C27.8676 33.2885 28.0308 33.4758 28.2445 33.5148L28.3276 33.5221H28.9045C28.9687 34.4906 29.2413 35.4337 29.7023 36.2864H26.9476V37.9453C26.9476 38.0464 26.8666 38.1285 26.7645 38.1295H24.376C24.2739 38.1295 24.1918 38.0464 24.1918 37.9453V36.2864H22.5381C22.4371 36.2864 22.355 36.2032 22.355 36.1021V34.6285C22.355 34.5264 22.4371 34.4443 22.5392 34.4443H24.1918V27.6295L23.6413 27.6306C23.4381 27.6306 23.2729 27.4664 23.2729 27.2632V24.119C23.2729 23.9158 23.4381 23.7516 23.6413 23.7516L24.1918 23.7506V22.0053C24.1918 21.7506 24.3981 21.5453 24.6518 21.5453H26.6929V20.1621C26.6929 19.9085 26.8992 19.7021 27.1529 19.7021H35.9329C36.1866 19.7021 36.3929 19.9085 36.3929 20.1621L36.3918 21.5453H38.4339C38.6876 21.5453 38.8939 21.7506 38.8939 22.0053L38.8929 23.7506L39.4455 23.7516C39.6476 23.7516 39.8118 23.9169 39.8118 24.119V27.2632C39.8118 27.3864 39.7508 27.4958 39.6581 27.5621C38.8823 26.9979 37.995 26.6064 37.056 26.4127ZM25.1181 31.8158L25.1108 31.8643V33.3379C25.1108 33.4232 25.1687 33.4948 25.2466 33.5158L25.295 33.5221H26.7645C26.8476 33.5221 26.9202 33.4664 26.9423 33.3864L26.9487 33.3379V31.8643C26.9487 31.7621 26.8666 31.68 26.7645 31.68H25.295C25.2129 31.68 25.1402 31.7358 25.1181 31.8158Z" fill="url(#paint3_linear_1516_14112)"/>
</g>
<defs>
<filter id="filter0_ddi_1516_14112" x="8" y="6" width="48" height="57" filterUnits="userSpaceOnUse" color-interpolation-filters="sRGB">
<feFlood flood-opacity="0" result="BackgroundImageFix"/>
<feColorMatrix in="SourceAlpha" type="matrix" values="0 0 0 0 0 0 0 0 0 0 0 0 0 0 0 0 0 0 127 0" result="hardAlpha"/>
<feOffset dy="4"/>
<feGaussianBlur stdDeviation="2"/>
<feComposite in2="hardAlpha" operator="out"/>
<feColorMatrix type="matrix" values="0 0 0 0 0 0 0 0 0 0 0 0 0 0 0 0 0 0 0.25 0"/>
<feBlend mode="normal" in2="BackgroundImageFix" result="effect1_dropShadow_1516_14112"/>
<feColorMatrix in="SourceAlpha" type="matrix" values="0 0 0 0 0 0 0 0 0 0 0 0 0 0 0 0 0 0 127 0" result="hardAlpha"/>
<feOffset/>
<feGaussianBlur stdDeviation="2"/>
<feComposite in2="hardAlpha" operator="out"/>
<feColorMatrix type="matrix" values="0 0 0 0 0.278431 0 0 0 0 0.945098 0 0 0 0 0.533333 0 0 0 0.3 0"/>
<feBlend mode="normal" in2="effect1_dropShadow_1516_14112" result="effect2_dropShadow_1516_14112"/>
<feBlend mode="normal" in="SourceGraphic" in2="effect2_dropShadow_1516_14112" result="shape"/>
<feColorMatrix in="SourceAlpha" type="matrix" values="0 0 0 0 0 0 0 0 0 0 0 0 0 0 0 0 0 0 127 0" result="hardAlpha"/>
<feOffset/>
<feGaussianBlur stdDeviation="5"/>
<feComposite in2="hardAlpha" operator="arithmetic" k2="-1" k3="1"/>
<feColorMatrix type="matrix" values="0 0 0 0 0.278431 0 0 0 0 0.945098 0 0 0 0 0.533333 0 0 0 0.7 0"/>
<feBlend mode="normal" in2="shape" result="effect3_innerShadow_1516_14112"/>
</filter>
<filter id="filter1_f_1516_14112" x="9" y="7" width="46" height="51" filterUnits="userSpaceOnUse" color-interpolation-filters="sRGB">
<feFlood flood-opacity="0" result="BackgroundImageFix"/>
<feBlend mode="normal" in="SourceGraphic" in2="BackgroundImageFix" result="shape"/>
<feGaussianBlur stdDeviation="1.5" result="effect1_foregroundBlur_1516_14112"/>
</filter>
<filter id="filter2_d_1516_14112" x="18.355" y="19.7021" width="27.4841" height="27.2527" filterUnits="userSpaceOnUse" color-interpolation-filters="sRGB">
<feFlood flood-opacity="0" result="BackgroundImageFix"/>
<feColorMatrix in="SourceAlpha" type="matrix" values="0 0 0 0 0 0 0 0 0 0 0 0 0 0 0 0 0 0 127 0" result="hardAlpha"/>
<feOffset dy="4"/>
<feGaussianBlur stdDeviation="2"/>
<feComposite in2="hardAlpha" operator="out"/>
<feColorMatrix type="matrix" values="0 0 0 0 0 0 0 0 0 0 0 0 0 0 0 0 0 0 0.25 0"/>
<feBlend mode="normal" in2="BackgroundImageFix" result="effect1_dropShadow_1516_14112"/>
<feBlend mode="normal" in="SourceGraphic" in2="effect1_dropShadow_1516_14112" result="shape"/>
</filter>
<linearGradient id="paint0_linear_1516_14112" x1="12" y1="49" x2="12" y2="10" gradientUnits="userSpaceOnUse">
<stop/>
<stop offset="1" stop-color="#47F188"/>
</linearGradient>
<linearGradient id="paint1_linear_1516_14112" x1="32" y1="10" x2="32" y2="43.5" gradientUnits="userSpaceOnUse">
<stop stop-color="white"/>
<stop offset="1" stop-color="#47F188"/>
</linearGradient>
<linearGradient id="paint2_linear_1516_14112" x1="32" y1="10" x2="32" y2="55" gradientUnits="userSpaceOnUse">
<stop stop-color="white" stop-opacity="0"/>
<stop offset="1" stop-color="white"/>
</linearGradient>
<linearGradient id="paint3_linear_1516_14112" x1="32.0972" y1="19.7021" x2="32.0972" y2="36.4498" gradientUnits="userSpaceOnUse">
<stop stop-color="white"/>
<stop offset="1" stop-color="#47F188"/>
</linearGradient>
</defs>
</svg>
