<svg width="44" height="56" viewBox="0 0 44 56" fill="none" xmlns="http://www.w3.org/2000/svg">
<path d="M22 2L40.1865 12.5V33.5L22 44L3.81347 33.5V12.5L22 2Z" fill="#17282C" fill-opacity="0.9"/>
<path d="M22 2L40.1865 12.5V33.5L22 44L3.81347 33.5V12.5L22 2Z" fill="url(#paint0_linear_4296_25984)" fill-opacity="0.6"/>
<path d="M40.6865 33.7891L40.4365 33.9326L22.25 44.4326L22 44.5771L21.75 44.4326L3.56348 33.9326L3.31348 33.7891V12.2109L3.56348 12.0674L21.75 1.56738L22 1.42285L22.25 1.56738L40.4365 12.0674L40.6865 12.2109V33.7891Z" stroke="url(#paint1_linear_4296_25984)" stroke-opacity="0.7"/>
<path d="M22 2L40.1865 12.5V33.5L22 44L3.81347 33.5V12.5L22 2Z" fill="url(#paint2_linear_4296_25984)" fill-opacity="0.6"/>
<path d="M39.1865 13.0771V32.9219L22 42.8447L4.81348 32.9219V13.0771L22 3.1543L39.1865 13.0771Z" stroke="url(#paint3_linear_4296_25984)" stroke-opacity="0.9" stroke-width="2"/>
<path d="M30.5869 10.958L31.2891 11.3623V11.3633L31.0391 11.7959L31.3896 11.998L31.6396 11.5654V11.5645L32.3408 11.9697V11.9707L32.0908 12.4033L32.4414 12.6055L32.6914 12.1729V12.1719L33.3916 12.5771H33.3926L33.1426 13.0107L33.4932 13.2129L33.7422 12.7793L34.4434 13.1846H34.4443L34.1943 13.6172L34.5449 13.8203L34.7939 13.3867L35.4951 13.791V13.792L35.2451 14.2246L35.5957 14.4268L35.8457 13.9941V13.9932L36.5459 14.3984H36.5469L36.4883 14.5H36.2227V14.7021H36.3721L36.2969 14.832L36.4727 14.9326L36.6055 14.7021H36.7227V15.5117H36.2227V15.917H36.7227V16.7266H36.2227V17.1309H36.7227V17.9404H36.2227V18.3457H36.7227V19.1543H36.2227V19.5596H36.7227V20.3691H36.2227V20.7734H36.7227V21.583H36.2227V21.9883H36.7227V22.7979H36.2227V23.2021H36.7227V24.0117H36.2227V24.417H36.7227V25.2266H36.2227V25.6309H36.7227V26.4404H36.2227V26.8457H36.7227V27.6543H36.2227V28.0596H36.7227V28.8691H36.2227V29.2734H36.7227V30.083H36.2227V30.4883H36.7227V31.2979H36.6055L36.4727 31.0674L36.2969 31.168L36.3721 31.2979H36.2227V31.5H36.4883L36.5459 31.6006L35.8457 32.0059L35.5957 31.5732L35.2451 31.7754L35.4951 32.208L34.7939 32.6123L34.5449 32.1797L34.1943 32.3828L34.4434 32.8145L33.7422 33.2197L33.4932 32.7871L33.1426 32.9893L33.3916 33.4219L32.6914 33.8271L32.4414 33.3945L32.0908 33.5967L32.3408 34.0293L31.6396 34.4346L31.3896 34.002L31.0391 34.2041L31.2891 34.6367L30.5869 35.041L30.3379 34.6084L29.9873 34.8115L30.2373 35.2441L29.5361 35.6484L29.2861 35.2158L28.9355 35.418L29.1846 35.8506L28.4844 36.2549L28.2354 35.8232L27.8848 36.0254L28.1348 36.458L27.4326 36.8623L27.1836 36.4297L26.833 36.6328L27.082 37.0645L26.3809 37.4697L26.1318 37.0371L25.7812 37.2393L26.0303 37.6719L25.3301 38.0771L25.0801 37.6445L24.7295 37.8467L24.9795 38.2793L24.2783 38.6846L24.0283 38.252L23.6777 38.4541L23.9277 38.8867L23.2256 39.291L22.9766 38.8584L22.626 39.0605L22.876 39.4941L22.1748 39.8984L22.1162 39.7979L22.25 39.5674L22.0752 39.4658L22 39.5957L21.9248 39.4658L21.75 39.5674L21.8828 39.7979L21.8252 39.8984H21.8242L21.123 39.4941L21.374 39.0605L21.0234 38.8584L20.7734 39.291L20.0713 38.8867H20.0723L20.3223 38.4541L19.9717 38.252L19.7207 38.6846L19.0195 38.2793H19.0205L19.2705 37.8467L18.9199 37.6445L18.6689 38.0771L17.9688 37.6719L18.2188 37.2393L17.8682 37.0371L17.6182 37.4697L16.917 37.0645L17.167 36.6328L16.8164 36.4297L16.5664 36.8623L15.8643 36.458L16.1152 36.0254L15.7646 35.8232L15.5146 36.2549L14.8145 35.8506L15.0645 35.418L14.7139 35.2158L14.4639 35.6484H14.4629L13.7617 35.2441L14.0127 34.8105L13.6621 34.6084L13.4121 35.041L12.71 34.6367H12.7109L12.9609 34.2041L12.6104 34.002L12.3594 34.4346L11.6582 34.0293H11.6592L11.9092 33.5967L11.5586 33.3945L11.3076 33.8271L10.6074 33.4219L10.8574 32.9893L10.5068 32.7871L10.2568 33.2197L9.55566 32.8145L9.80566 32.3828L9.45508 32.1797L9.20508 32.6123L8.50391 32.208H8.50488L8.75488 31.7754L8.4043 31.5732L8.1543 32.0059H8.15332L7.45312 31.6006L7.51172 31.5H7.77734V31.2979H7.62793L7.70312 31.168L7.52734 31.0674L7.39453 31.2979H7.27734V30.4883H7.77734V30.083H7.27734V29.2734H7.77734V28.8691H7.27734V28.0596H7.77734V27.6543H7.27734V26.8457H7.77734V26.4404H7.27734V25.6309H7.77734V25.2266H7.27734V24.417H7.77734V24.0117H7.27734V23.2021H7.77734V22.7979H7.27734V21.9883H7.77734V21.583H7.27734V20.7734H7.77734V20.3691H7.27734V19.5596H7.77734V19.1543H7.27734V18.3457H7.77734V17.9404H7.27734V17.1309H7.77734V16.7266H7.27734V15.917H7.77734V15.5117H7.27734V14.7021H7.39453L7.52734 14.9326L7.70312 14.832L7.62793 14.7021H7.77734V14.5H7.51172L7.45312 14.3984L8.15332 13.9932L8.1543 13.9941L8.4043 14.4268L8.75488 14.2246L8.50488 13.792L8.50391 13.791L9.20508 13.3867L9.45508 13.8203L9.80566 13.6172L9.55566 13.1846L10.2568 12.7793L10.5068 13.2129L10.8574 13.0107L10.6074 12.5771L11.3076 12.1719L11.3086 12.1729L11.5586 12.6055L11.9092 12.4033L11.6592 11.9707L11.6582 11.9697L12.3594 11.5645L12.3604 11.5654L12.6104 11.998L12.9609 11.7959L12.7109 11.3633L12.71 11.3623L13.4121 10.958L13.6621 11.3916L14.0127 11.1885L13.7627 10.7559L13.7617 10.7549L14.4629 10.3506L14.4639 10.3516L14.7139 10.7842L15.0645 10.582L14.8145 10.1484L15.5146 9.74414L15.7646 10.1768L16.1152 9.97461L15.8652 9.54199L15.8643 9.54102L16.5664 9.13672L16.8164 9.57031L17.167 9.36719L16.917 8.93457L17.6182 8.5293L17.8682 8.96289L18.2188 8.76074L17.9688 8.32715L18.6689 7.92188L18.6699 7.92285L18.9199 8.35547L19.2705 8.15332L19.0205 7.7207L19.0195 7.71973L19.7207 7.31445L19.7217 7.31543L19.9717 7.74805L20.3223 7.5459L20.0723 7.11328L20.0713 7.1123L20.7734 6.70801L21.0234 7.1416L21.374 6.93945L21.124 6.50586L21.123 6.50488L21.8242 6.10059L21.8252 6.10156L21.8828 6.20117L21.75 6.43262L21.9248 6.53418L22 6.40332L22.0752 6.53418L22.25 6.43262L22.1162 6.20117L22.1748 6.10156V6.10059L22.876 6.50488V6.50586L22.626 6.93945L22.9766 7.1416L23.2256 6.70801L23.9277 7.1123V7.11328L23.6777 7.5459L24.0283 7.74805L24.2783 7.31543V7.31445L24.9795 7.71973V7.7207L24.7295 8.15332L25.0801 8.35547L25.3301 7.92285V7.92188L26.0303 8.32715H26.0312L25.7812 8.76074L26.1318 8.96289L26.3809 8.5293L27.082 8.93457H27.083L26.833 9.36719L27.1836 9.57031L27.4326 9.13672L28.1348 9.54102V9.54199L27.8848 9.97461L28.2354 10.1768L28.4844 9.74414L29.1846 10.1484H29.1855L28.9355 10.582L29.2861 10.7842L29.5361 10.3516V10.3506L30.2373 10.7549V10.7559L29.9873 11.1895L30.3379 11.3916L30.5869 10.958Z" stroke="url(#paint4_linear_4296_25984)" stroke-opacity="0.5" stroke-dasharray="0.4 0.8"/>
<path d="M3.81346 45L22 55.5L40.1865 45L3.81346 45Z" fill="url(#paint5_linear_4296_25984)" fill-opacity="0.6"/>
<path d="M7.5459 46L36.4541 46L22 54.3457L7.5459 46Z" stroke="url(#paint6_linear_4296_25984)" stroke-opacity="0.9" stroke-width="2"/>
<path d="M3.81346 39L22 49.5L40.1865 39" stroke="url(#paint7_linear_4296_25984)" stroke-opacity="0.9" stroke-width="2"/>
<path fill-rule="evenodd" clip-rule="evenodd" d="M25.5411 33.2526C25.5411 33.2526 25.5389 33.2526 25.5368 33.2526C22.2537 33.2526 19.5916 30.5916 19.5916 27.3074C19.5916 24.0242 22.2537 21.3632 25.5368 21.3632C28.8211 21.3621 31.4832 24.0221 31.4842 27.3063C31.4853 30.5895 28.8242 33.2516 25.5411 33.2526ZM25.56 28.8516C26.3495 28.8516 26.9884 28.2421 26.9884 27.4916C26.9884 26.74 26.3495 26.1305 25.56 26.1305C24.7716 26.1305 24.1326 26.74 24.1326 27.4916C24.1326 28.2421 24.7716 28.8516 25.56 28.8516ZM20.8 27.4916C20.8021 28.2905 21.0221 29.0747 21.4379 29.7579C21.8621 30.4547 22.4632 31.0284 23.1789 31.4189L24.6074 29.0621C24.0379 28.7463 23.6568 28.1611 23.6568 27.4916H20.8ZM23.1811 23.5632L24.6095 25.92C25.2021 25.5937 25.9211 25.5937 26.5137 25.92L27.9411 23.5632C26.4579 22.7537 24.6653 22.7537 23.1811 23.5632ZM27.4632 27.4937C27.4632 28.1611 27.08 28.7484 26.5116 29.0621L27.9389 31.4179C29.4663 30.5789 30.3189 29.0579 30.3211 27.4937H27.4632ZM18.4316 24.5968V24.5947C18.4316 24.3411 18.6379 24.1347 18.8905 24.1347H19.3463C19.1863 24.4316 19.0484 24.74 18.9347 25.0568H18.8905C18.6368 25.0558 18.4316 24.8505 18.4316 24.5968ZM26.7011 20.7105V18.1453C26.7011 17.8916 26.4947 17.6853 26.2411 17.6853H16.1347C15.9126 17.6853 15.7221 17.8442 15.6821 18.0632L15.6747 18.1453V21.8326C15.6747 22.0589 15.8379 22.2463 16.0516 22.2842L16.1347 22.2926H20.8042C20.4905 22.5726 20.2032 22.8811 19.9463 23.2137H17.9726C17.7505 23.2137 17.56 23.3726 17.52 23.5905L17.5126 23.6737V27.3611C17.5126 27.5863 17.6758 27.7737 17.8895 27.8126L17.9726 27.82H18.5495C18.6137 28.7884 18.8863 29.7316 19.3474 30.5842H16.5926V32.2432C16.5926 32.3442 16.5116 32.4263 16.4095 32.4274H14.0211C13.9189 32.4274 13.8368 32.3442 13.8368 32.2432V30.5842H12.1832C12.0821 30.5842 12 30.5011 12 30.4V28.9263C12 28.8242 12.0821 28.7421 12.1842 28.7421H13.8368V21.9274L13.2863 21.9284C13.0832 21.9284 12.9179 21.7642 12.9179 21.5611V18.4168C12.9179 18.2137 13.0832 18.0495 13.2863 18.0495L13.8368 18.0484V16.3032C13.8368 16.0484 14.0432 15.8432 14.2968 15.8432H16.3379V14.46C16.3379 14.2063 16.5442 14 16.7979 14H25.5779C25.8316 14 26.0379 14.2063 26.0379 14.46L26.0368 15.8432H28.0789C28.3326 15.8432 28.5389 16.0484 28.5389 16.3032L28.5379 18.0484L29.0905 18.0495C29.2926 18.0495 29.4568 18.2147 29.4568 18.4168V21.5611C29.4568 21.6842 29.3958 21.7937 29.3032 21.86C28.5274 21.2958 27.64 20.9042 26.7011 20.7105ZM14.7632 26.1137L14.7558 26.1621V27.6358C14.7558 27.7211 14.8137 27.7926 14.8916 27.8137L14.94 27.82H16.4095C16.4926 27.82 16.5653 27.7642 16.5874 27.6842L16.5937 27.6358V26.1621C16.5937 26.06 16.5116 25.9779 16.4095 25.9779H14.94C14.8579 25.9779 14.7853 26.0337 14.7632 26.1137Z" fill="url(#paint8_linear_4296_25984)"/>
<defs>
<linearGradient id="paint0_linear_4296_25984" x1="22" y1="2" x2="22" y2="44" gradientUnits="userSpaceOnUse">
<stop stop-color="#3D636C" stop-opacity="0"/>
<stop offset="0.505209" stop-color="#3D636C"/>
<stop offset="1" stop-color="#3D636C" stop-opacity="0"/>
</linearGradient>
<linearGradient id="paint1_linear_4296_25984" x1="22" y1="2" x2="22" y2="44" gradientUnits="userSpaceOnUse">
<stop stop-color="white" stop-opacity="0.1"/>
<stop offset="0.515626" stop-color="white"/>
<stop offset="1" stop-color="white" stop-opacity="0.1"/>
</linearGradient>
<linearGradient id="paint2_linear_4296_25984" x1="22" y1="2" x2="22" y2="44" gradientUnits="userSpaceOnUse">
<stop stop-color="#3D636C" stop-opacity="0"/>
<stop offset="0.505209" stop-color="#3D636C"/>
<stop offset="1" stop-color="#3D636C" stop-opacity="0"/>
</linearGradient>
<linearGradient id="paint3_linear_4296_25984" x1="22" y1="2" x2="22" y2="44" gradientUnits="userSpaceOnUse">
<stop stop-color="#00B2FF" stop-opacity="0.1"/>
<stop offset="0.515626" stop-color="#00B2FF"/>
<stop offset="1" stop-color="#00B2FF" stop-opacity="0.1"/>
</linearGradient>
<linearGradient id="paint4_linear_4296_25984" x1="22" y1="6" x2="22" y2="40" gradientUnits="userSpaceOnUse">
<stop stop-color="#00B2FF" stop-opacity="0.1"/>
<stop offset="0.515626" stop-color="#00F0FF"/>
<stop offset="1" stop-color="#00B2FF" stop-opacity="0.1"/>
</linearGradient>
<linearGradient id="paint5_linear_4296_25984" x1="22" y1="55.5" x2="22" y2="45" gradientUnits="userSpaceOnUse">
<stop stop-color="#3D636C" stop-opacity="0"/>
<stop offset="0.505209" stop-color="#3D636C"/>
<stop offset="1" stop-color="#3D636C" stop-opacity="0"/>
</linearGradient>
<linearGradient id="paint6_linear_4296_25984" x1="22" y1="55.5" x2="22" y2="45" gradientUnits="userSpaceOnUse">
<stop stop-color="#00B2FF"/>
<stop offset="0.891086" stop-color="#00B2FF" stop-opacity="0"/>
</linearGradient>
<linearGradient id="paint7_linear_4296_25984" x1="22" y1="43" x2="22" y2="51" gradientUnits="userSpaceOnUse">
<stop stop-color="white" stop-opacity="0"/>
<stop offset="1" stop-color="white"/>
</linearGradient>
<linearGradient id="paint8_linear_4296_25984" x1="21.7421" y1="14" x2="21.7421" y2="33.2526" gradientUnits="userSpaceOnUse">
<stop stop-color="white"/>
<stop offset="1" stop-color="#00B2FF"/>
</linearGradient>
</defs>
</svg>
