<svg width="44" height="56" viewBox="0 0 44 56" fill="none" xmlns="http://www.w3.org/2000/svg">
<path d="M22 2L40.1865 12.5V33.5L22 44L3.81347 33.5V12.5L22 2Z" fill="#17282C" fill-opacity="0.9"/>
<path d="M22 2L40.1865 12.5V33.5L22 44L3.81347 33.5V12.5L22 2Z" fill="url(#paint0_linear_4296_25995)" fill-opacity="0.6"/>
<path d="M40.6865 33.7891L40.4365 33.9326L22.25 44.4326L22 44.5771L21.75 44.4326L3.56348 33.9326L3.31348 33.7891V12.2109L3.56348 12.0674L21.75 1.56738L22 1.42285L22.25 1.56738L40.4365 12.0674L40.6865 12.2109V33.7891Z" stroke="url(#paint1_linear_4296_25995)" stroke-opacity="0.7"/>
<path d="M22 2L40.1865 12.5V33.5L22 44L3.81347 33.5V12.5L22 2Z" fill="url(#paint2_linear_4296_25995)" fill-opacity="0.6"/>
<path d="M39.1865 13.0771V32.9219L22 42.8447L4.81348 32.9219V13.0771L22 3.1543L39.1865 13.0771Z" stroke="url(#paint3_linear_4296_25995)" stroke-opacity="0.9" stroke-width="2"/>
<path d="M30.5869 10.958L31.2891 11.3623V11.3633L31.0391 11.7959L31.3896 11.998L31.6396 11.5654V11.5645L32.3408 11.9697V11.9707L32.0908 12.4033L32.4414 12.6055L32.6914 12.1729V12.1719L33.3916 12.5771H33.3926L33.1426 13.0107L33.4932 13.2129L33.7422 12.7793L34.4434 13.1846H34.4443L34.1943 13.6172L34.5449 13.8203L34.7939 13.3867L35.4951 13.791V13.792L35.2451 14.2246L35.5957 14.4268L35.8457 13.9941V13.9932L36.5459 14.3984H36.5469L36.4883 14.5H36.2227V14.7021H36.3721L36.2969 14.832L36.4727 14.9326L36.6055 14.7021H36.7227V15.5117H36.2227V15.917H36.7227V16.7266H36.2227V17.1309H36.7227V17.9404H36.2227V18.3457H36.7227V19.1543H36.2227V19.5596H36.7227V20.3691H36.2227V20.7734H36.7227V21.583H36.2227V21.9883H36.7227V22.7979H36.2227V23.2021H36.7227V24.0117H36.2227V24.417H36.7227V25.2266H36.2227V25.6309H36.7227V26.4404H36.2227V26.8457H36.7227V27.6543H36.2227V28.0596H36.7227V28.8691H36.2227V29.2734H36.7227V30.083H36.2227V30.4883H36.7227V31.2979H36.6055L36.4727 31.0674L36.2969 31.168L36.3721 31.2979H36.2227V31.5H36.4883L36.5459 31.6006L35.8457 32.0059L35.5957 31.5732L35.2451 31.7754L35.4951 32.208L34.7939 32.6123L34.5449 32.1797L34.1943 32.3828L34.4434 32.8145L33.7422 33.2197L33.4932 32.7871L33.1426 32.9893L33.3916 33.4219L32.6914 33.8271L32.4414 33.3945L32.0908 33.5967L32.3408 34.0293L31.6396 34.4346L31.3896 34.002L31.0391 34.2041L31.2891 34.6367L30.5869 35.041L30.3379 34.6084L29.9873 34.8115L30.2373 35.2441L29.5361 35.6484L29.2861 35.2158L28.9355 35.418L29.1846 35.8506L28.4844 36.2549L28.2354 35.8232L27.8848 36.0254L28.1348 36.458L27.4326 36.8623L27.1836 36.4297L26.833 36.6328L27.082 37.0645L26.3809 37.4697L26.1318 37.0371L25.7812 37.2393L26.0303 37.6719L25.3301 38.0771L25.0801 37.6445L24.7295 37.8467L24.9795 38.2793L24.2783 38.6846L24.0283 38.252L23.6777 38.4541L23.9277 38.8867L23.2256 39.291L22.9766 38.8584L22.626 39.0605L22.876 39.4941L22.1748 39.8984L22.1162 39.7979L22.25 39.5674L22.0752 39.4658L22 39.5957L21.9248 39.4658L21.75 39.5674L21.8828 39.7979L21.8252 39.8984H21.8242L21.123 39.4941L21.374 39.0605L21.0234 38.8584L20.7734 39.291L20.0713 38.8867H20.0723L20.3223 38.4541L19.9717 38.252L19.7207 38.6846L19.0195 38.2793H19.0205L19.2705 37.8467L18.9199 37.6445L18.6689 38.0771L17.9688 37.6719L18.2188 37.2393L17.8682 37.0371L17.6182 37.4697L16.917 37.0645L17.167 36.6328L16.8164 36.4297L16.5664 36.8623L15.8643 36.458L16.1152 36.0254L15.7646 35.8232L15.5146 36.2549L14.8145 35.8506L15.0645 35.418L14.7139 35.2158L14.4639 35.6484H14.4629L13.7617 35.2441L14.0127 34.8105L13.6621 34.6084L13.4121 35.041L12.71 34.6367H12.7109L12.9609 34.2041L12.6104 34.002L12.3594 34.4346L11.6582 34.0293H11.6592L11.9092 33.5967L11.5586 33.3945L11.3076 33.8271L10.6074 33.4219L10.8574 32.9893L10.5068 32.7871L10.2568 33.2197L9.55566 32.8145L9.80566 32.3828L9.45508 32.1797L9.20508 32.6123L8.50391 32.208H8.50488L8.75488 31.7754L8.4043 31.5732L8.1543 32.0059H8.15332L7.45312 31.6006L7.51172 31.5H7.77734V31.2979H7.62793L7.70312 31.168L7.52734 31.0674L7.39453 31.2979H7.27734V30.4883H7.77734V30.083H7.27734V29.2734H7.77734V28.8691H7.27734V28.0596H7.77734V27.6543H7.27734V26.8457H7.77734V26.4404H7.27734V25.6309H7.77734V25.2266H7.27734V24.417H7.77734V24.0117H7.27734V23.2021H7.77734V22.7979H7.27734V21.9883H7.77734V21.583H7.27734V20.7734H7.77734V20.3691H7.27734V19.5596H7.77734V19.1543H7.27734V18.3457H7.77734V17.9404H7.27734V17.1309H7.77734V16.7266H7.27734V15.917H7.77734V15.5117H7.27734V14.7021H7.39453L7.52734 14.9326L7.70312 14.832L7.62793 14.7021H7.77734V14.5H7.51172L7.45312 14.3984L8.15332 13.9932L8.1543 13.9941L8.4043 14.4268L8.75488 14.2246L8.50488 13.792L8.50391 13.791L9.20508 13.3867L9.45508 13.8203L9.80566 13.6172L9.55566 13.1846L10.2568 12.7793L10.5068 13.2129L10.8574 13.0107L10.6074 12.5771L11.3076 12.1719L11.3086 12.1729L11.5586 12.6055L11.9092 12.4033L11.6592 11.9707L11.6582 11.9697L12.3594 11.5645L12.3604 11.5654L12.6104 11.998L12.9609 11.7959L12.7109 11.3633L12.71 11.3623L13.4121 10.958L13.6621 11.3916L14.0127 11.1885L13.7627 10.7559L13.7617 10.7549L14.4629 10.3506L14.4639 10.3516L14.7139 10.7842L15.0645 10.582L14.8145 10.1484L15.5146 9.74414L15.7646 10.1768L16.1152 9.97461L15.8652 9.54199L15.8643 9.54102L16.5664 9.13672L16.8164 9.57031L17.167 9.36719L16.917 8.93457L17.6182 8.5293L17.8682 8.96289L18.2188 8.76074L17.9688 8.32715L18.6689 7.92188L18.6699 7.92285L18.9199 8.35547L19.2705 8.15332L19.0205 7.7207L19.0195 7.71973L19.7207 7.31445L19.7217 7.31543L19.9717 7.74805L20.3223 7.5459L20.0723 7.11328L20.0713 7.1123L20.7734 6.70801L21.0234 7.1416L21.374 6.93945L21.124 6.50586L21.123 6.50488L21.8242 6.10059L21.8252 6.10156L21.8828 6.20117L21.75 6.43262L21.9248 6.53418L22 6.40332L22.0752 6.53418L22.25 6.43262L22.1162 6.20117L22.1748 6.10156V6.10059L22.876 6.50488V6.50586L22.626 6.93945L22.9766 7.1416L23.2256 6.70801L23.9277 7.1123V7.11328L23.6777 7.5459L24.0283 7.74805L24.2783 7.31543V7.31445L24.9795 7.71973V7.7207L24.7295 8.15332L25.0801 8.35547L25.3301 7.92285V7.92188L26.0303 8.32715H26.0312L25.7812 8.76074L26.1318 8.96289L26.3809 8.5293L27.082 8.93457H27.083L26.833 9.36719L27.1836 9.57031L27.4326 9.13672L28.1348 9.54102V9.54199L27.8848 9.97461L28.2354 10.1768L28.4844 9.74414L29.1846 10.1484H29.1855L28.9355 10.582L29.2861 10.7842L29.5361 10.3516V10.3506L30.2373 10.7549V10.7559L29.9873 11.1895L30.3379 11.3916L30.5869 10.958Z" stroke="url(#paint4_linear_4296_25995)" stroke-opacity="0.5" stroke-dasharray="0.4 0.8"/>
<path d="M3.81346 45L22 55.5L40.1865 45L3.81346 45Z" fill="url(#paint5_linear_4296_25995)" fill-opacity="0.6"/>
<path d="M7.5459 46L36.4541 46L22 54.3457L7.5459 46Z" stroke="url(#paint6_linear_4296_25995)" stroke-opacity="0.9" stroke-width="2"/>
<path d="M3.81346 39L22 49.5L40.1865 39" stroke="url(#paint7_linear_4296_25995)" stroke-opacity="0.9" stroke-width="2"/>
<path d="M30.3922 17.6158C30.1302 17.5807 29.8841 17.6984 29.7365 17.8971V16.7879C29.7365 15.4941 28.687 14.4447 27.3931 14.4447H23.9441C23.8421 14.1863 23.589 14 23.2901 14H20.713C20.4159 14 20.1627 14.1846 20.059 14.4447H16.6117C15.3179 14.4465 14.2666 15.4959 14.2666 16.7896V17.8953C14.1189 17.6967 13.8728 17.5789 13.6109 17.6141C13.2259 17.665 12.9552 18.0201 13.0062 18.4033C13.029 18.5791 13.2523 20.0152 14.2649 20.518V29.3861C14.2649 29.9047 14.685 30.323 15.2018 30.323H15.7204V31.2969C15.7204 31.6854 16.0351 32 16.4236 32H17.3606C17.7491 32 18.0638 31.6854 18.0638 31.2969V30.3266H25.934V31.2969C25.934 31.6854 26.2487 32 26.6372 32H27.5742C27.9627 32 28.2774 31.6854 28.2774 31.2969V30.3266H28.7977C29.3163 30.3266 29.7347 29.9064 29.7347 29.3896V20.5197C30.7473 20.0187 30.9705 18.5809 30.9934 18.4051C31.0461 18.0201 30.7772 17.6686 30.3922 17.6158ZM20.713 15.735H23.2919C23.5503 15.735 23.7612 15.9459 23.7612 16.2043C23.7612 16.4627 23.5485 16.6719 23.2901 16.6719H20.713C20.4546 16.6719 20.2436 16.4609 20.2436 16.2025C20.2436 15.9441 20.4546 15.735 20.713 15.735ZM16.6117 18.8322C16.6117 18.4455 16.9281 18.1291 17.3149 18.1291H26.69C27.0767 18.1291 27.3931 18.4455 27.3931 18.8322V22.9807C27.3931 23.3674 27.0767 23.6838 26.69 23.6838H17.3149C16.9281 23.6838 16.6117 23.3674 16.6117 22.9807V18.8322ZM17.1338 27.9219C16.6152 27.9219 16.1968 27.5018 16.1968 26.985C16.1968 26.4664 16.617 26.048 17.1338 26.048C17.6524 26.048 18.0708 26.4682 18.0708 26.985C18.0708 27.5018 17.6524 27.9219 17.1338 27.9219ZM26.8693 27.9148C26.3507 27.9148 25.9323 27.4947 25.9323 26.9779C25.9323 26.4594 26.3524 26.041 26.8693 26.041C27.3861 26.041 27.8063 26.4611 27.8063 26.9779C27.808 27.4947 27.3879 27.9148 26.8693 27.9148Z" fill="url(#paint8_linear_4296_25995)"/>
<defs>
<linearGradient id="paint0_linear_4296_25995" x1="22" y1="2" x2="22" y2="44" gradientUnits="userSpaceOnUse">
<stop stop-color="#3D636C" stop-opacity="0"/>
<stop offset="0.505209" stop-color="#3D636C"/>
<stop offset="1" stop-color="#3D636C" stop-opacity="0"/>
</linearGradient>
<linearGradient id="paint1_linear_4296_25995" x1="22" y1="2" x2="22" y2="44" gradientUnits="userSpaceOnUse">
<stop stop-color="white" stop-opacity="0.1"/>
<stop offset="0.515626" stop-color="white"/>
<stop offset="1" stop-color="white" stop-opacity="0.1"/>
</linearGradient>
<linearGradient id="paint2_linear_4296_25995" x1="22" y1="2" x2="22" y2="44" gradientUnits="userSpaceOnUse">
<stop stop-color="#3D636C" stop-opacity="0"/>
<stop offset="0.505209" stop-color="#3D636C"/>
<stop offset="1" stop-color="#3D636C" stop-opacity="0"/>
</linearGradient>
<linearGradient id="paint3_linear_4296_25995" x1="22" y1="2" x2="22" y2="44" gradientUnits="userSpaceOnUse">
<stop stop-color="#00B2FF" stop-opacity="0.1"/>
<stop offset="0.515626" stop-color="#00B2FF"/>
<stop offset="1" stop-color="#00B2FF" stop-opacity="0.1"/>
</linearGradient>
<linearGradient id="paint4_linear_4296_25995" x1="22" y1="6" x2="22" y2="40" gradientUnits="userSpaceOnUse">
<stop stop-color="#00B2FF" stop-opacity="0.1"/>
<stop offset="0.515626" stop-color="#00F0FF"/>
<stop offset="1" stop-color="#00B2FF" stop-opacity="0.1"/>
</linearGradient>
<linearGradient id="paint5_linear_4296_25995" x1="22" y1="55.5" x2="22" y2="45" gradientUnits="userSpaceOnUse">
<stop stop-color="#3D636C" stop-opacity="0"/>
<stop offset="0.505209" stop-color="#3D636C"/>
<stop offset="1" stop-color="#3D636C" stop-opacity="0"/>
</linearGradient>
<linearGradient id="paint6_linear_4296_25995" x1="22" y1="55.5" x2="22" y2="45" gradientUnits="userSpaceOnUse">
<stop stop-color="#00B2FF"/>
<stop offset="0.891086" stop-color="#00B2FF" stop-opacity="0"/>
</linearGradient>
<linearGradient id="paint7_linear_4296_25995" x1="22" y1="43" x2="22" y2="51" gradientUnits="userSpaceOnUse">
<stop stop-color="white" stop-opacity="0"/>
<stop offset="1" stop-color="white"/>
</linearGradient>
<linearGradient id="paint8_linear_4296_25995" x1="22" y1="14" x2="22" y2="32" gradientUnits="userSpaceOnUse">
<stop stop-color="white"/>
<stop offset="1" stop-color="#00B2FF"/>
</linearGradient>
</defs>
</svg>
