<svg width="44" height="56" viewBox="0 0 44 56" fill="none" xmlns="http://www.w3.org/2000/svg">
<path d="M22 2L40.1865 12.5V33.5L22 44L3.81347 33.5V12.5L22 2Z" fill="#17282C" fill-opacity="0.9"/>
<path d="M22 2L40.1865 12.5V33.5L22 44L3.81347 33.5V12.5L22 2Z" fill="url(#paint0_linear_6090_34174)" fill-opacity="0.6"/>
<path d="M40.6865 33.7891L40.4365 33.9326L22.25 44.4326L22 44.5771L21.75 44.4326L3.56348 33.9326L3.31348 33.7891V12.2109L3.56348 12.0674L21.75 1.56738L22 1.42285L22.25 1.56738L40.4365 12.0674L40.6865 12.2109V33.7891Z" stroke="url(#paint1_linear_6090_34174)" stroke-opacity="0.7"/>
<path d="M22 2L40.1865 12.5V33.5L22 44L3.81347 33.5V12.5L22 2Z" fill="url(#paint2_linear_6090_34174)" fill-opacity="0.6"/>
<path d="M39.1865 13.0771V32.9219L22 42.8447L4.81348 32.9219V13.0771L22 3.1543L39.1865 13.0771Z" stroke="url(#paint3_linear_6090_34174)" stroke-opacity="0.9" stroke-width="2"/>
<path d="M30.5869 10.958L31.2891 11.3623V11.3633L31.0391 11.7959L31.3896 11.998L31.6396 11.5654V11.5645L32.3408 11.9697V11.9707L32.0908 12.4033L32.4414 12.6055L32.6914 12.1729V12.1719L33.3916 12.5771H33.3926L33.1426 13.0107L33.4932 13.2129L33.7422 12.7793L34.4434 13.1846H34.4443L34.1943 13.6172L34.5449 13.8203L34.7939 13.3867L35.4951 13.791V13.792L35.2451 14.2246L35.5957 14.4268L35.8457 13.9941V13.9932L36.5459 14.3984H36.5469L36.4883 14.5H36.2227V14.7021H36.3721L36.2969 14.832L36.4727 14.9326L36.6055 14.7021H36.7227V15.5117H36.2227V15.917H36.7227V16.7266H36.2227V17.1309H36.7227V17.9404H36.2227V18.3457H36.7227V19.1543H36.2227V19.5596H36.7227V20.3691H36.2227V20.7734H36.7227V21.583H36.2227V21.9883H36.7227V22.7979H36.2227V23.2021H36.7227V24.0117H36.2227V24.417H36.7227V25.2266H36.2227V25.6309H36.7227V26.4404H36.2227V26.8457H36.7227V27.6543H36.2227V28.0596H36.7227V28.8691H36.2227V29.2734H36.7227V30.083H36.2227V30.4883H36.7227V31.2979H36.6055L36.4727 31.0674L36.2969 31.168L36.3721 31.2979H36.2227V31.5H36.4883L36.5459 31.6006L35.8457 32.0059L35.5957 31.5732L35.2451 31.7754L35.4951 32.208L34.7939 32.6123L34.5449 32.1797L34.1943 32.3828L34.4434 32.8145L33.7422 33.2197L33.4932 32.7871L33.1426 32.9893L33.3916 33.4219L32.6914 33.8271L32.4414 33.3945L32.0908 33.5967L32.3408 34.0293L31.6396 34.4346L31.3896 34.002L31.0391 34.2041L31.2891 34.6367L30.5869 35.041L30.3379 34.6084L29.9873 34.8115L30.2373 35.2441L29.5361 35.6484L29.2861 35.2158L28.9355 35.418L29.1846 35.8506L28.4844 36.2549L28.2354 35.8232L27.8848 36.0254L28.1348 36.458L27.4326 36.8623L27.1836 36.4297L26.833 36.6328L27.082 37.0645L26.3809 37.4697L26.1318 37.0371L25.7812 37.2393L26.0303 37.6719L25.3301 38.0771L25.0801 37.6445L24.7295 37.8467L24.9795 38.2793L24.2783 38.6846L24.0283 38.252L23.6777 38.4541L23.9277 38.8867L23.2256 39.291L22.9766 38.8584L22.626 39.0605L22.876 39.4941L22.1748 39.8984L22.1162 39.7979L22.25 39.5674L22.0752 39.4658L22 39.5957L21.9248 39.4658L21.75 39.5674L21.8828 39.7979L21.8252 39.8984H21.8242L21.123 39.4941L21.374 39.0605L21.0234 38.8584L20.7734 39.291L20.0713 38.8867H20.0723L20.3223 38.4541L19.9717 38.252L19.7207 38.6846L19.0195 38.2793H19.0205L19.2705 37.8467L18.9199 37.6445L18.6689 38.0771L17.9688 37.6719L18.2188 37.2393L17.8682 37.0371L17.6182 37.4697L16.917 37.0645L17.167 36.6328L16.8164 36.4297L16.5664 36.8623L15.8643 36.458L16.1152 36.0254L15.7646 35.8232L15.5146 36.2549L14.8145 35.8506L15.0645 35.418L14.7139 35.2158L14.4639 35.6484H14.4629L13.7617 35.2441L14.0127 34.8105L13.6621 34.6084L13.4121 35.041L12.71 34.6367H12.7109L12.9609 34.2041L12.6104 34.002L12.3594 34.4346L11.6582 34.0293H11.6592L11.9092 33.5967L11.5586 33.3945L11.3076 33.8271L10.6074 33.4219L10.8574 32.9893L10.5068 32.7871L10.2568 33.2197L9.55566 32.8145L9.80566 32.3828L9.45508 32.1797L9.20508 32.6123L8.50391 32.208H8.50488L8.75488 31.7754L8.4043 31.5732L8.1543 32.0059H8.15332L7.45312 31.6006L7.51172 31.5H7.77734V31.2979H7.62793L7.70312 31.168L7.52734 31.0674L7.39453 31.2979H7.27734V30.4883H7.77734V30.083H7.27734V29.2734H7.77734V28.8691H7.27734V28.0596H7.77734V27.6543H7.27734V26.8457H7.77734V26.4404H7.27734V25.6309H7.77734V25.2266H7.27734V24.417H7.77734V24.0117H7.27734V23.2021H7.77734V22.7979H7.27734V21.9883H7.77734V21.583H7.27734V20.7734H7.77734V20.3691H7.27734V19.5596H7.77734V19.1543H7.27734V18.3457H7.77734V17.9404H7.27734V17.1309H7.77734V16.7266H7.27734V15.917H7.77734V15.5117H7.27734V14.7021H7.39453L7.52734 14.9326L7.70312 14.832L7.62793 14.7021H7.77734V14.5H7.51172L7.45312 14.3984L8.15332 13.9932L8.1543 13.9941L8.4043 14.4268L8.75488 14.2246L8.50488 13.792L8.50391 13.791L9.20508 13.3867L9.45508 13.8203L9.80566 13.6172L9.55566 13.1846L10.2568 12.7793L10.5068 13.2129L10.8574 13.0107L10.6074 12.5771L11.3076 12.1719L11.3086 12.1729L11.5586 12.6055L11.9092 12.4033L11.6592 11.9707L11.6582 11.9697L12.3594 11.5645L12.3604 11.5654L12.6104 11.998L12.9609 11.7959L12.7109 11.3633L12.71 11.3623L13.4121 10.958L13.6621 11.3916L14.0127 11.1885L13.7627 10.7559L13.7617 10.7549L14.4629 10.3506L14.4639 10.3516L14.7139 10.7842L15.0645 10.582L14.8145 10.1484L15.5146 9.74414L15.7646 10.1768L16.1152 9.97461L15.8652 9.54199L15.8643 9.54102L16.5664 9.13672L16.8164 9.57031L17.167 9.36719L16.917 8.93457L17.6182 8.5293L17.8682 8.96289L18.2188 8.76074L17.9688 8.32715L18.6689 7.92188L18.6699 7.92285L18.9199 8.35547L19.2705 8.15332L19.0205 7.7207L19.0195 7.71973L19.7207 7.31445L19.7217 7.31543L19.9717 7.74805L20.3223 7.5459L20.0723 7.11328L20.0713 7.1123L20.7734 6.70801L21.0234 7.1416L21.374 6.93945L21.124 6.50586L21.123 6.50488L21.8242 6.10059L21.8252 6.10156L21.8828 6.20117L21.75 6.43262L21.9248 6.53418L22 6.40332L22.0752 6.53418L22.25 6.43262L22.1162 6.20117L22.1748 6.10156V6.10059L22.876 6.50488V6.50586L22.626 6.93945L22.9766 7.1416L23.2256 6.70801L23.9277 7.1123V7.11328L23.6777 7.5459L24.0283 7.74805L24.2783 7.31543V7.31445L24.9795 7.71973V7.7207L24.7295 8.15332L25.0801 8.35547L25.3301 7.92285V7.92188L26.0303 8.32715H26.0312L25.7812 8.76074L26.1318 8.96289L26.3809 8.5293L27.082 8.93457H27.083L26.833 9.36719L27.1836 9.57031L27.4326 9.13672L28.1348 9.54102V9.54199L27.8848 9.97461L28.2354 10.1768L28.4844 9.74414L29.1846 10.1484H29.1855L28.9355 10.582L29.2861 10.7842L29.5361 10.3516V10.3506L30.2373 10.7549V10.7559L29.9873 11.1895L30.3379 11.3916L30.5869 10.958Z" stroke="url(#paint4_linear_6090_34174)" stroke-opacity="0.5" stroke-dasharray="0.4 0.8"/>
<path d="M3.81346 45L22 55.5L40.1865 45L3.81346 45Z" fill="url(#paint5_linear_6090_34174)" fill-opacity="0.6"/>
<path d="M7.5459 46L36.4541 46L22 54.3457L7.5459 46Z" stroke="url(#paint6_linear_6090_34174)" stroke-opacity="0.9" stroke-width="2"/>
<path d="M3.81346 39L22 49.5L40.1865 39" stroke="url(#paint7_linear_6090_34174)" stroke-opacity="0.9" stroke-width="2"/>
<path fill-rule="evenodd" clip-rule="evenodd" d="M22.5358 14C22.0688 14 21.6901 14.3786 21.6901 14.8457C21.6901 15.3127 22.0688 15.6913 22.5358 15.6913H24.2272C24.6942 15.6913 25.0728 15.3127 25.0728 14.8457C25.0728 14.3786 24.6942 14 24.2272 14H22.5358ZM28.0715 16.7367C27.8084 16.4982 27.4349 16.3526 27.0685 16.3526H20.1856C18.3035 16.3526 16.7958 18.2657 15.9875 19.2914L15.9866 19.2925C15.9563 19.3309 15.9271 19.3682 15.8991 19.404C15.7649 19.5752 15.6561 19.714 15.5755 19.7917C15.3629 19.9984 14.906 20.2356 14.697 20.3367C13.7033 20.4622 12.7148 20.6256 11.7336 20.8264C9.36452 21.3292 9.00041 23.0029 9.00041 23.9554V25.7713C8.99635 25.9023 9.0224 26.0324 9.07657 26.1518C9.13073 26.2711 9.21157 26.3764 9.31284 26.4596C9.54658 26.6534 9.87193 26.7027 10.1303 26.7027C10.239 26.7027 10.3375 26.6874 10.4161 26.6753C10.4684 26.6672 10.5119 26.6604 10.5438 26.6604H12.1564C12.1729 27.963 13.2029 29.013 14.4703 29.013C15.7388 29.013 16.7653 27.963 16.7841 26.6604H27.9189C27.9365 27.963 28.9665 29.013 30.2327 29.013C31.5012 29.013 32.5289 27.963 32.5466 26.6604H33.5261C34.1933 26.6604 34.3143 26.207 34.3695 25.9839C34.4094 25.8324 34.4282 25.7666 34.5409 25.7161L34.6208 25.6855C35.0131 25.561 35.2739 25.3602 35.3913 25.0865C35.4613 24.9142 35.447 24.7583 35.4363 24.6425C35.433 24.6068 35.4301 24.5748 35.4301 24.5474V22.1631C35.4301 21.6392 35.4148 20.063 34.3554 20.063H28.4967V19.4264C28.4991 18.7863 28.5026 18.0158 28.5085 17.6951C28.5179 17.183 28.3346 16.9645 28.0715 16.7367ZM12.867 26.6217C12.867 25.7114 13.5835 24.9691 14.4691 24.9691C15.3512 24.9691 16.0724 25.709 16.0724 26.6217C16.0724 27.5319 15.3512 28.2743 14.4691 28.2743C13.587 28.2743 12.867 27.5343 12.867 26.6217ZM28.6295 26.6217C28.6295 25.7114 29.3471 24.9691 30.2315 24.9691H30.2327C31.1148 24.9691 31.8348 25.709 31.8348 26.6217C31.8348 27.5319 31.1136 28.2743 30.2327 28.2743C29.3494 28.2743 28.6295 27.5343 28.6295 26.6217ZM20.1774 18.6477H20.7647V21.2258H18.371C18.3708 21.2258 18.3705 21.2258 18.3702 21.2258C18.3614 21.2259 18.3049 21.2264 18.2617 21.1741C18.2265 21.133 18.1255 20.9603 18.2265 20.44C18.4297 19.39 19.7898 18.6477 20.1774 18.6477ZM21.2991 18.65H25.9268V21.2258H21.2991V18.65Z" fill="url(#paint8_linear_6090_34174)"/>
<defs>
<linearGradient id="paint0_linear_6090_34174" x1="22" y1="2" x2="22" y2="44" gradientUnits="userSpaceOnUse">
<stop stop-color="#3D636C" stop-opacity="0"/>
<stop offset="0.505209" stop-color="#3D636C"/>
<stop offset="1" stop-color="#3D636C" stop-opacity="0"/>
</linearGradient>
<linearGradient id="paint1_linear_6090_34174" x1="22" y1="2" x2="22" y2="44" gradientUnits="userSpaceOnUse">
<stop stop-color="white" stop-opacity="0.1"/>
<stop offset="0.515626" stop-color="white"/>
<stop offset="1" stop-color="white" stop-opacity="0.1"/>
</linearGradient>
<linearGradient id="paint2_linear_6090_34174" x1="22" y1="2" x2="22" y2="44" gradientUnits="userSpaceOnUse">
<stop stop-color="#3D636C" stop-opacity="0"/>
<stop offset="0.505209" stop-color="#3D636C"/>
<stop offset="1" stop-color="#3D636C" stop-opacity="0"/>
</linearGradient>
<linearGradient id="paint3_linear_6090_34174" x1="22" y1="2" x2="22" y2="44" gradientUnits="userSpaceOnUse">
<stop stop-color="#00B2FF" stop-opacity="0.1"/>
<stop offset="0.515626" stop-color="#00B2FF"/>
<stop offset="1" stop-color="#00B2FF" stop-opacity="0.1"/>
</linearGradient>
<linearGradient id="paint4_linear_6090_34174" x1="22" y1="6" x2="22" y2="40" gradientUnits="userSpaceOnUse">
<stop stop-color="#00B2FF" stop-opacity="0.1"/>
<stop offset="0.515626" stop-color="#00F0FF"/>
<stop offset="1" stop-color="#00B2FF" stop-opacity="0.1"/>
</linearGradient>
<linearGradient id="paint5_linear_6090_34174" x1="22" y1="55.5" x2="22" y2="45" gradientUnits="userSpaceOnUse">
<stop stop-color="#3D636C" stop-opacity="0"/>
<stop offset="0.505209" stop-color="#3D636C"/>
<stop offset="1" stop-color="#3D636C" stop-opacity="0"/>
</linearGradient>
<linearGradient id="paint6_linear_6090_34174" x1="22" y1="55.5" x2="22" y2="45" gradientUnits="userSpaceOnUse">
<stop stop-color="#00B2FF"/>
<stop offset="0.891086" stop-color="#00B2FF" stop-opacity="0"/>
</linearGradient>
<linearGradient id="paint7_linear_6090_34174" x1="22" y1="43" x2="22" y2="51" gradientUnits="userSpaceOnUse">
<stop stop-color="white" stop-opacity="0"/>
<stop offset="1" stop-color="white"/>
</linearGradient>
<linearGradient id="paint8_linear_6090_34174" x1="28.3905" y1="29.021" x2="29.1346" y2="15.2073" gradientUnits="userSpaceOnUse">
<stop stop-color="#00F0FF"/>
<stop offset="1" stop-color="#00B2FF"/>
</linearGradient>
</defs>
</svg>
