<svg width="44" height="56" viewBox="0 0 44 56" fill="none" xmlns="http://www.w3.org/2000/svg">
<circle cx="22" cy="22" r="21" fill="#17282C" fill-opacity="0.9"/>
<circle cx="22" cy="22" r="21" fill="url(#paint0_linear_6846_31036)" fill-opacity="0.6"/>
<circle cx="22" cy="22" r="21.5" stroke="url(#paint1_linear_6846_31036)" stroke-opacity="0.7"/>
<circle cx="22" cy="22" r="19" stroke="white" stroke-opacity="0.4" stroke-width="2" stroke-dasharray="0.4 0.8"/>
<path d="M22 39L5.54552 10.5L38.4545 10.5L22 39Z" fill="url(#paint2_linear_6846_31036)" fill-opacity="0.1"/>
<path d="M36.8492 36.8492C40.432 33.2665 42.5986 28.5092 42.9496 23.4547C43.3005 18.4001 41.8122 13.389 38.759 9.3455L36.3607 11.1564C38.9769 14.6213 40.2523 18.9152 39.9515 23.2465C39.6508 27.5777 37.7942 31.6542 34.7242 34.7242L36.8492 36.8492Z" fill="url(#paint3_linear_6846_31036)"/>
<path d="M1.71555 27.4352C3.02673 32.3286 6.06263 36.583 10.2636 39.4143C14.4646 42.2455 19.5475 43.4627 24.5753 42.8415L24.2067 39.8591C19.8984 40.3914 15.5429 39.3484 11.9431 36.9223C8.34327 34.4962 5.7418 30.8506 4.61826 26.6574L1.71555 27.4352Z" fill="url(#paint4_linear_6846_31036)"/>
<path d="M37.7872 8.15211C34.7134 4.64781 30.561 2.26581 25.9842 1.38142C21.4075 0.497034 16.6666 1.16053 12.5085 3.26737C8.3504 5.37421 5.01145 8.80463 3.01774 13.0181C1.02402 17.2317 0.488874 21.9888 1.49661 26.5399L4.43064 25.8903C3.56711 21.9904 4.02568 17.914 5.7341 14.3035C7.44251 10.6929 10.3037 7.75336 13.8667 5.94801C17.4298 4.14266 21.4923 3.57411 25.4141 4.33194C29.3359 5.08977 32.8941 7.13091 35.5281 10.1338L37.7872 8.15211Z" fill="url(#paint5_linear_6846_31036)"/>
<path fill-rule="evenodd" clip-rule="evenodd" d="M19.8512 34.8022L20.1986 30.0998C20.1986 29.6898 20.5302 29.3582 20.9398 29.3582H22.8877C23.2973 29.3582 23.6289 29.6898 23.6289 30.0998L23.9766 34.8022H24.9793V36.1102H18.8485V34.8022H19.8512ZM26.9053 18.8905C26.7916 20.011 25.8453 20.8854 24.6948 20.8854H22.7811V16.9009H23.1436C23.1459 16.8986 23.1484 16.8984 23.1487 16.8984L23.1487 15.3491C24.0844 14.891 24.7287 13.9296 24.7287 12.8174C24.7315 11.2613 23.4702 10 21.9141 10C20.3579 10 19.0941 11.2613 19.0941 12.8174C19.0941 13.9316 19.7404 14.8944 20.6787 15.3514V16.9009H21.0447V20.8854H19.3056C18.1551 20.8854 17.2088 20.0109 17.0951 18.8904H17.5638L17.5664 18.8876V17.5291C18.3924 17.1266 18.9609 16.2791 18.9609 15.298C18.9609 13.927 17.8511 12.8175 16.4805 12.8175C15.1098 12.8175 14 13.9295 14 15.298C14 16.2789 14.5684 17.1262 15.3941 17.5288V18.8904H15.8253V19.0994C15.8253 20.7365 17.1516 22.0629 18.7887 22.0629H21.0447V29.3582H22.7811V22.0629H25.0422C26.6793 22.0629 28.0057 20.7365 28.0057 19.0994V18.8905H28.6038L28.6066 18.8876V17.5284C29.432 17.1257 30 16.2786 30 15.2979C30 14.4128 29.5274 13.5928 28.7599 13.149C28.383 12.931 27.9552 12.8161 27.5197 12.8161C27.0842 12.8161 26.6564 12.931 26.2795 13.149C25.5117 13.5928 25.0391 14.4125 25.0391 15.2979C25.0391 16.2791 25.6079 17.1268 26.4341 17.5291V18.8905H26.9053Z" fill="url(#paint6_linear_6846_31036)"/>
<ellipse cx="22" cy="50.5006" rx="11" ry="4.5" fill="#6BDFE6" fill-opacity="0.14"/>
<path d="M32.874 49.8199C32.8973 49.8827 32.9167 49.9459 32.9336 50.0094L32.8389 50.0348C32.8551 50.0959 32.8681 50.1577 32.8779 50.2194L32.9727 50.2037C32.9831 50.2692 32.9896 50.3348 32.9932 50.401L32.8975 50.4069C32.8991 50.438 32.9004 50.4693 32.9004 50.5006C32.9004 50.5319 32.8991 50.5632 32.8975 50.5944L32.9932 50.5992C32.9897 50.6655 32.9831 50.731 32.9727 50.7965L32.8779 50.7819C32.8681 50.8436 32.8551 50.9053 32.8389 50.9664L32.9336 50.9908C32.9167 51.0544 32.8973 51.1176 32.874 51.1803L32.7812 51.1461C32.7596 51.2045 32.7345 51.2631 32.707 51.3209L32.7959 51.3629C32.7679 51.4219 32.7357 51.4796 32.7021 51.5377L32.6191 51.4889C32.5878 51.5431 32.5539 51.5974 32.5176 51.651L32.5967 51.7057C32.56 51.7597 32.5229 51.8146 32.4814 51.8678L32.4033 51.8073C32.3646 51.857 32.3233 51.9066 32.2803 51.9557L32.3545 52.0201C32.3117 52.0689 32.2665 52.1167 32.2197 52.1647L32.1494 52.0973C32.1051 52.1427 32.0587 52.1883 32.0107 52.233L32.0781 52.3043C32.0301 52.3491 31.9811 52.3941 31.9297 52.4381L31.8652 52.3629C31.817 52.4042 31.7671 52.4453 31.7158 52.486L31.7764 52.5612C31.7247 52.6021 31.6719 52.643 31.6172 52.6832L31.5605 52.6041C31.5088 52.6422 31.4549 52.68 31.4004 52.7174L31.4551 52.7985C31.4017 52.8351 31.3468 52.8709 31.291 52.9069L31.2383 52.8258C31.1837 52.861 31.1273 52.8958 31.0703 52.9303L31.1221 53.0153C31.0666 53.0489 31.0088 53.08 30.9512 53.1129L30.9033 53.0289C30.8469 53.0612 30.789 53.093 30.7305 53.1246L30.7773 53.2115C30.7198 53.2427 30.661 53.2729 30.6016 53.3033L30.5576 53.2164C30.4998 53.2461 30.4405 53.2753 30.3809 53.3043L30.4238 53.3922C30.3651 53.4208 30.3056 53.4492 30.2451 53.4772L30.2041 53.3883C30.1451 53.4156 30.085 53.4426 30.0244 53.4694L30.0635 53.5592C30.0034 53.5857 29.9424 53.6115 29.8809 53.6373L29.8438 53.5475C29.7837 53.5727 29.7226 53.5971 29.6611 53.6217L29.6973 53.7135C29.6364 53.7379 29.5749 53.762 29.5127 53.7858L29.4775 53.694C29.4166 53.7173 29.3552 53.7406 29.293 53.7633L29.3262 53.8561C29.2646 53.8786 29.2024 53.9006 29.1396 53.9225L29.1074 53.8297C29.0456 53.8513 28.983 53.8721 28.9199 53.8932L28.9512 53.9879C28.8891 54.0086 28.8259 54.0273 28.7627 54.0475L28.7334 53.9547C28.6707 53.9747 28.6068 53.9938 28.543 54.0133L28.5723 54.109C28.5098 54.1281 28.4463 54.1452 28.3828 54.1637L28.3555 54.0699C28.2925 54.0883 28.229 54.1068 28.165 54.1246L28.1904 54.2194C28.1274 54.2369 28.0639 54.2541 28 54.2711L27.9746 54.1764C27.9113 54.1933 27.8474 54.2098 27.7832 54.2262L27.8066 54.3219C27.7429 54.3381 27.6788 54.354 27.6143 54.3698L27.5918 54.274C27.5283 54.2895 27.4638 54.304 27.3994 54.319L27.4209 54.4156C27.3568 54.4305 27.2925 54.4462 27.2275 54.4606L27.2061 54.3629C27.1424 54.377 27.0781 54.3913 27.0137 54.4049L27.0332 54.5006C26.9684 54.5143 26.9034 54.5285 26.8379 54.5416L26.8193 54.4449C26.7552 54.4578 26.6908 54.4707 26.626 54.483L26.6436 54.5797C26.5788 54.5921 26.5137 54.604 26.4482 54.6158L26.4316 54.5192C26.3668 54.5309 26.3009 54.5421 26.2354 54.5533L26.252 54.651C26.1872 54.6621 26.122 54.6716 26.0566 54.6823L26.042 54.5856C25.977 54.5961 25.9113 54.6068 25.8457 54.6168L25.8594 54.7145C25.7943 54.7245 25.7288 54.7333 25.6631 54.7428L25.6504 54.6461C25.5855 54.6555 25.5196 54.6646 25.4541 54.6735L25.4668 54.7701C25.4012 54.779 25.3357 54.7901 25.2695 54.7985L25.2568 54.6989C25.1921 54.7071 25.1268 54.7155 25.0615 54.7233L25.0732 54.8209C25.0074 54.8287 24.9413 54.8361 24.875 54.8434L24.8652 54.7457C24.7998 54.753 24.7339 54.7605 24.668 54.7672L24.6768 54.8649C24.6116 54.8715 24.5461 54.8772 24.4805 54.8834L24.4717 54.7858C24.4061 54.7919 24.3404 54.7986 24.2744 54.8043L24.2812 54.902C24.2157 54.9076 24.1499 54.9124 24.084 54.9176L24.0771 54.8199C24.0116 54.8251 23.9458 54.8299 23.8799 54.8346L23.8857 54.9323C23.8198 54.9369 23.7538 54.9437 23.6875 54.9479L23.6816 54.8483C23.6162 54.8524 23.5502 54.8563 23.4844 54.86L23.4893 54.9576C23.4233 54.9613 23.3573 54.9652 23.291 54.9684L23.2871 54.8698C23.2212 54.8729 23.1551 54.8759 23.0889 54.8785L23.0918 54.9781C23.0259 54.9808 22.9598 54.9818 22.8936 54.984L22.8916 54.8864C22.8257 54.8885 22.7596 54.8905 22.6934 54.8922L22.6953 54.9899C22.6291 54.9916 22.5627 54.9935 22.4961 54.9948L22.4951 54.8961C22.4295 54.8973 22.3638 54.8983 22.2979 54.899V54.9967C22.2319 54.9974 22.1658 54.9984 22.0996 54.9987V54.9C22.0665 54.9001 22.0332 54.901 22 54.901C21.9668 54.901 21.9335 54.9001 21.9004 54.9V54.9987C21.8338 54.9984 21.7674 54.9974 21.7012 54.9967L21.7021 54.899C21.6362 54.8983 21.5705 54.8973 21.5049 54.8961L21.5029 54.9948C21.4364 54.9935 21.37 54.9916 21.3037 54.9899L21.3066 54.8922C21.2404 54.8905 21.1743 54.8885 21.1084 54.8864L21.1055 54.984C21.0392 54.9818 20.9731 54.9808 20.9072 54.9781L20.9111 54.8785C20.8449 54.8759 20.7788 54.8729 20.7129 54.8698L20.708 54.9684C20.6417 54.9652 20.5757 54.9613 20.5098 54.9576L20.5156 54.86C20.4498 54.8563 20.3838 54.8524 20.3184 54.8483L20.3125 54.9479H20.3115C20.2452 54.9437 20.1792 54.9369 20.1133 54.9323L20.1201 54.8346C20.0542 54.8299 19.9884 54.8251 19.9229 54.8199L19.915 54.9176C19.8491 54.9124 19.7833 54.9076 19.7178 54.902L19.7256 54.8043C19.6596 54.7986 19.5939 54.7919 19.5283 54.7858L19.5186 54.8834C19.4526 54.8772 19.3868 54.8716 19.3213 54.8649L19.332 54.7672C19.2661 54.7605 19.2002 54.753 19.1348 54.7457L19.124 54.8434C19.0577 54.8361 18.9916 54.8287 18.9258 54.8209L18.9385 54.7233C18.8732 54.7155 18.8079 54.7071 18.7432 54.6989L18.7305 54.7985H18.7285C18.6627 54.7901 18.5975 54.779 18.5322 54.7701L18.5459 54.6735C18.4804 54.6646 18.4145 54.6555 18.3496 54.6461L18.3359 54.7428C18.2703 54.7333 18.2047 54.7245 18.1396 54.7145L18.1543 54.6168C18.0887 54.6068 18.023 54.5961 17.958 54.5856L17.9424 54.6823C17.877 54.6716 17.8118 54.6621 17.7471 54.651L17.7646 54.5533C17.6991 54.5421 17.6332 54.5309 17.5684 54.5192L17.5508 54.6158C17.4853 54.604 17.4202 54.5921 17.3555 54.5797L17.374 54.483C17.3092 54.4707 17.2448 54.4578 17.1807 54.4449L17.1611 54.5416C17.0956 54.5285 17.0306 54.5143 16.9658 54.5006L16.9863 54.4049C16.9219 54.3913 16.8576 54.377 16.7939 54.3629L16.7725 54.4606H16.7715C16.7066 54.4462 16.6423 54.4305 16.5781 54.4156L16.6006 54.319C16.5362 54.304 16.4717 54.2895 16.4082 54.274L16.3848 54.3698C16.3202 54.354 16.2561 54.3381 16.1924 54.3219L16.2168 54.2262C16.1526 54.2098 16.0887 54.1933 16.0254 54.1764L15.999 54.2711C15.9351 54.2541 15.8716 54.2369 15.8086 54.2194L15.835 54.1246C15.771 54.1068 15.7075 54.0883 15.6445 54.0699L15.6162 54.1637C15.5527 54.1452 15.4892 54.1281 15.4268 54.109H15.4277L15.457 54.0133C15.3932 53.9938 15.3293 53.9747 15.2666 53.9547L15.2363 54.0475C15.1731 54.0273 15.1099 54.0086 15.0479 53.9879L15.0801 53.8932C15.017 53.8721 14.9544 53.8513 14.8926 53.8297L14.8594 53.9225C14.7966 53.9006 14.7344 53.8786 14.6729 53.8561L14.707 53.7633C14.6448 53.7406 14.5834 53.7173 14.5225 53.694L14.4863 53.7858C14.4241 53.762 14.3626 53.7379 14.3018 53.7135L14.3389 53.6217C14.2774 53.5971 14.2163 53.5727 14.1562 53.5475L14.1182 53.6373C14.0566 53.6114 13.9956 53.5857 13.9355 53.5592L13.9756 53.4694C13.915 53.4426 13.8549 53.4156 13.7959 53.3883L13.7539 53.4772C13.6935 53.4492 13.6339 53.4208 13.5752 53.3922L13.6191 53.3043C13.5595 53.2753 13.5002 53.2461 13.4424 53.2164L13.3975 53.3033C13.338 53.2729 13.2792 53.2427 13.2217 53.2115L13.2695 53.1246C13.211 53.093 13.1531 53.0612 13.0967 53.0289L13.0479 53.1129C12.9902 53.08 12.9324 53.0489 12.877 53.0153L12.9297 52.9303C12.8727 52.8958 12.8163 52.861 12.7617 52.8258L12.708 52.9069C12.6522 52.8709 12.5973 52.8351 12.5439 52.7985L12.5996 52.7174C12.5451 52.68 12.4912 52.6422 12.4395 52.6041L12.3818 52.6832C12.3272 52.643 12.2744 52.6021 12.2227 52.5612L12.2842 52.486C12.2329 52.4453 12.183 52.4042 12.1348 52.3629L12.0693 52.4381C12.0179 52.3941 11.9689 52.3491 11.9209 52.3043L11.9893 52.233C11.9413 52.1883 11.8949 52.1427 11.8506 52.0973L11.7793 52.1647C11.7326 52.1167 11.6873 52.0689 11.6445 52.0201L11.7197 51.9557C11.6767 51.9066 11.6354 51.857 11.5967 51.8073L11.5176 51.8678C11.4762 51.8146 11.439 51.7597 11.4023 51.7057L11.4824 51.651C11.446 51.5974 11.4122 51.5431 11.3809 51.4889L11.2969 51.5377C11.2633 51.4796 11.2311 51.4219 11.2031 51.3629L11.293 51.3209C11.2655 51.2631 11.2404 51.2045 11.2188 51.1461L11.125 51.1803C11.1018 51.1176 11.0823 51.0544 11.0654 50.9908L11.1611 50.9664C11.1449 50.9053 11.1319 50.8436 11.1221 50.7819L11.0264 50.7965C11.016 50.731 11.0093 50.6655 11.0059 50.5992L11.1025 50.5944C11.1009 50.5632 11.0996 50.5319 11.0996 50.5006C11.0996 50.4693 11.1009 50.438 11.1025 50.4069L11.0059 50.401C11.0094 50.3348 11.0159 50.2692 11.0264 50.2037L11.1221 50.2194C11.1319 50.1577 11.1449 50.0959 11.1611 50.0348L11.0654 50.0094L11.125 49.8199L11.2188 49.8551C11.2404 49.7967 11.2655 49.7382 11.293 49.6803L11.2031 49.6373C11.2311 49.5784 11.2633 49.5206 11.2969 49.4625L11.3809 49.5123C11.4122 49.4581 11.4461 49.4038 11.4824 49.3502L11.4023 49.2946C11.439 49.2405 11.4761 49.1856 11.5176 49.1324L11.5967 49.194C11.6354 49.1443 11.6767 49.0946 11.7197 49.0455L11.6445 48.9801C11.6873 48.9314 11.7326 48.8835 11.7793 48.8356L11.8506 48.9039C11.8949 48.8585 11.9413 48.813 11.9893 48.7682L11.9209 48.6959C11.9689 48.6512 12.018 48.6061 12.0693 48.5621L12.1348 48.6383C12.183 48.597 12.2329 48.5559 12.2842 48.5153L12.2227 48.4391C12.2744 48.3982 12.3272 48.3572 12.3818 48.317L12.4395 48.3971C12.4912 48.359 12.5451 48.3212 12.5996 48.2838L12.5439 48.2018C12.5973 48.1651 12.6522 48.1293 12.708 48.0934L12.7617 48.1754C12.8163 48.1402 12.8727 48.1055 12.9297 48.0709L12.877 47.985C12.9324 47.9514 12.9902 47.9203 13.0479 47.8873L13.0967 47.9723C13.1531 47.94 13.211 47.9082 13.2695 47.8766L13.2217 47.7887C13.2792 47.7576 13.338 47.7274 13.3975 47.6969L13.4424 47.7848C13.5002 47.7552 13.5595 47.7259 13.6191 47.6969L13.5752 47.608C13.6339 47.5794 13.6935 47.5511 13.7539 47.5231L13.7959 47.6129C13.8549 47.5856 13.915 47.5586 13.9756 47.5319L13.9355 47.441C13.9956 47.4146 14.0566 47.3888 14.1182 47.3629L14.1562 47.4537C14.2163 47.4285 14.2774 47.4042 14.3389 47.3795L14.3018 47.2867C14.3626 47.2624 14.4241 47.2383 14.4863 47.2145L14.5225 47.3073C14.5834 47.2839 14.6448 47.2607 14.707 47.2379L14.6729 47.1442C14.7344 47.1217 14.7966 47.0997 14.8594 47.0778L14.8926 47.1715C14.9544 47.1499 15.017 47.1291 15.0801 47.108L15.0488 47.0133L15.0479 47.0123C15.1099 46.9916 15.1731 46.9729 15.2363 46.9528L15.2666 47.0465C15.3293 47.0265 15.3932 47.0074 15.457 46.9879L15.4277 46.8922L15.4268 46.8912C15.4892 46.8722 15.5527 46.8551 15.6162 46.8365L15.6445 46.9313C15.7075 46.9129 15.771 46.8944 15.835 46.8766L15.8086 46.7809C15.8716 46.7633 15.9351 46.7462 15.999 46.7291L16.0254 46.8248C16.0887 46.808 16.1526 46.7914 16.2168 46.775L16.1924 46.6783C16.2561 46.6621 16.3202 46.6462 16.3848 46.6305L16.4082 46.7272C16.4717 46.7117 16.5362 46.6972 16.6006 46.6823L16.5781 46.5846C16.6423 46.5697 16.7066 46.554 16.7715 46.5397L16.7725 46.5406L16.7939 46.6383C16.8576 46.6242 16.9219 46.6099 16.9863 46.5963L16.9658 46.4996C17.0306 46.486 17.0956 46.4718 17.1611 46.4586L17.1807 46.5563C17.2448 46.5434 17.3092 46.5306 17.374 46.5182L17.3555 46.4205C17.4202 46.4082 17.4853 46.3963 17.5508 46.3844L17.5684 46.4821C17.6332 46.4703 17.6991 46.4591 17.7646 46.4479L17.7471 46.3492C17.8118 46.3381 17.877 46.3286 17.9424 46.318L17.958 46.4156C18.023 46.4051 18.0887 46.3945 18.1543 46.3844L18.1396 46.2858C18.2047 46.2758 18.2703 46.2669 18.3359 46.2574L18.3496 46.3551C18.4145 46.3457 18.4804 46.3367 18.5459 46.3278L18.5322 46.2301C18.5978 46.2212 18.6634 46.2102 18.7295 46.2018L18.7305 46.2028L18.7432 46.3024C18.8079 46.2941 18.8732 46.2857 18.9385 46.278L18.9258 46.1793C18.9916 46.1715 19.0577 46.1642 19.124 46.1569L19.1348 46.2555C19.2002 46.2483 19.2661 46.2408 19.332 46.234L19.3223 46.1354C19.3874 46.1287 19.4529 46.123 19.5186 46.1168L19.5283 46.2155C19.5939 46.2093 19.6596 46.2026 19.7256 46.1969L19.7178 46.0983C19.7833 46.0926 19.8491 46.0878 19.915 46.0826L19.9229 46.1813C19.9884 46.1761 20.0542 46.1713 20.1201 46.1666L20.1133 46.068C20.1792 46.0633 20.2452 46.0565 20.3115 46.0524L20.3125 46.0533L20.3184 46.153C20.3838 46.1488 20.4498 46.1449 20.5156 46.1412L20.5098 46.0426C20.5757 46.039 20.6417 46.035 20.708 46.0319L20.7129 46.1315C20.7788 46.1283 20.8449 46.1254 20.9111 46.1227L20.9072 46.0221C20.9731 46.0194 21.0392 46.0184 21.1055 46.0162L21.1084 46.1149C21.1743 46.1127 21.2404 46.1107 21.3066 46.109L21.3037 46.0104C21.37 46.0087 21.4364 46.0067 21.5029 46.0055L21.5049 46.1051C21.5705 46.1039 21.6362 46.1029 21.7021 46.1022L21.7012 46.0035C21.7674 46.0028 21.8338 46.0018 21.9004 46.0016V46.1012C21.9335 46.1011 21.9668 46.1002 22 46.1002C22.0332 46.1002 22.0665 46.1011 22.0996 46.1012V46.0016C22.1658 46.0018 22.2319 46.0028 22.2979 46.0035V46.1022C22.3638 46.1029 22.4295 46.1039 22.4951 46.1051L22.4961 46.0055C22.5627 46.0067 22.6291 46.0087 22.6953 46.0104L22.6934 46.109C22.7596 46.1107 22.8257 46.1127 22.8916 46.1149L22.8936 46.0162C22.9598 46.0184 23.0259 46.0194 23.0918 46.0221L23.0889 46.1227C23.1551 46.1254 23.2212 46.1283 23.2871 46.1315L23.291 46.0319C23.3573 46.035 23.4233 46.039 23.4893 46.0426L23.4844 46.1412C23.5502 46.1449 23.6162 46.1488 23.6816 46.153L23.6875 46.0533V46.0524C23.7538 46.0565 23.8198 46.0633 23.8857 46.068L23.8799 46.1666C23.9458 46.1713 24.0116 46.1761 24.0771 46.1813L24.084 46.0826C24.1499 46.0878 24.2157 46.0926 24.2812 46.0983L24.2744 46.1969C24.3404 46.2026 24.4061 46.2093 24.4717 46.2155L24.4805 46.1168C24.5464 46.123 24.6122 46.1287 24.6777 46.1354L24.668 46.234C24.7339 46.2408 24.7998 46.2483 24.8652 46.2555L24.875 46.1569C24.9413 46.1642 25.0074 46.1715 25.0732 46.1793L25.0615 46.278C25.1268 46.2857 25.1921 46.2941 25.2568 46.3024L25.2695 46.2028V46.2018C25.3357 46.2102 25.4012 46.2212 25.4668 46.2301L25.4541 46.3278C25.5196 46.3367 25.5855 46.3457 25.6504 46.3551L25.6631 46.2574C25.7288 46.2669 25.7943 46.2758 25.8594 46.2858L25.8457 46.3844C25.9113 46.3945 25.977 46.4051 26.042 46.4156L26.0566 46.318C26.122 46.3286 26.1872 46.3381 26.252 46.3492L26.2354 46.4479C26.3009 46.4591 26.3668 46.4703 26.4316 46.4821L26.4482 46.3844C26.5137 46.3962 26.5788 46.4082 26.6436 46.4205L26.626 46.5182C26.6908 46.5306 26.7552 46.5434 26.8193 46.5563L26.8379 46.4586C26.9034 46.4718 26.9684 46.486 27.0332 46.4996L27.0137 46.5963C27.0781 46.6099 27.1424 46.6242 27.2061 46.6383L27.2275 46.5406V46.5397C27.2925 46.554 27.3568 46.5697 27.4209 46.5846L27.3994 46.6823C27.4638 46.6972 27.5283 46.7117 27.5918 46.7272L27.6143 46.6305C27.6788 46.6462 27.7429 46.6621 27.8066 46.6783L27.7832 46.775C27.8474 46.7914 27.9113 46.808 27.9746 46.8248L28 46.7291C28.0639 46.7462 28.1274 46.7633 28.1904 46.7809L28.165 46.8766C28.229 46.8944 28.2925 46.9129 28.3555 46.9313L28.3828 46.8365C28.4463 46.8551 28.5098 46.8722 28.5723 46.8912V46.8922L28.543 46.9879C28.6068 47.0074 28.6707 47.0265 28.7334 47.0465L28.7627 46.9528C28.8259 46.9729 28.8891 46.9916 28.9512 47.0123V47.0133L28.9199 47.108C28.983 47.1291 29.0456 47.1499 29.1074 47.1715L29.1396 47.0778C29.2024 47.0997 29.2646 47.1217 29.3262 47.1442L29.293 47.2379C29.3552 47.2607 29.4166 47.2839 29.4775 47.3073L29.5127 47.2145C29.5749 47.2383 29.6364 47.2624 29.6973 47.2867L29.6611 47.3795C29.7226 47.4042 29.7837 47.4285 29.8438 47.4537L29.8809 47.3629C29.9424 47.3888 30.0034 47.4146 30.0635 47.441L30.0244 47.5319C30.085 47.5586 30.1451 47.5856 30.2041 47.6129L30.2451 47.5231C30.3056 47.5511 30.3651 47.5794 30.4238 47.608L30.3809 47.6969C30.4405 47.7259 30.4998 47.7552 30.5576 47.7848L30.6016 47.6969C30.661 47.7274 30.7198 47.7576 30.7773 47.7887L30.7305 47.8766C30.789 47.9082 30.8469 47.94 30.9033 47.9723L30.9512 47.8873C31.0088 47.9203 31.0666 47.9514 31.1221 47.985L31.0703 48.0709C31.1273 48.1055 31.1837 48.1402 31.2383 48.1754L31.291 48.0934C31.3468 48.1293 31.4017 48.1651 31.4551 48.2018L31.4004 48.2838C31.4549 48.3212 31.5088 48.359 31.5605 48.3971L31.6172 48.317C31.6719 48.3572 31.7247 48.3982 31.7764 48.4391L31.7158 48.5153C31.7671 48.5559 31.817 48.597 31.8652 48.6383L31.9297 48.5621C31.9811 48.6061 32.0302 48.6512 32.0781 48.6959L32.0107 48.7682C32.0587 48.813 32.1051 48.8585 32.1494 48.9039L32.2197 48.8356C32.2665 48.8835 32.3117 48.9314 32.3545 48.9801L32.2803 49.0455C32.3233 49.0946 32.3646 49.1443 32.4033 49.194L32.4814 49.1324C32.5229 49.1856 32.56 49.2405 32.5967 49.2946L32.5176 49.3502C32.554 49.4038 32.5878 49.4581 32.6191 49.5123L32.7021 49.4625C32.7358 49.5207 32.7679 49.5783 32.7959 49.6373L32.707 49.6803C32.7345 49.7382 32.7596 49.7967 32.7812 49.8551L32.874 49.8199Z" stroke="#00F0FF" stroke-opacity="0.39" stroke-width="0.2" stroke-dasharray="0.2 0.2"/>
<ellipse cx="22" cy="50.5006" rx="7" ry="2.5" fill="url(#paint7_linear_6846_31036)" fill-opacity="0.63"/>
<path d="M22 48.1002C23.9246 48.1002 25.6627 48.3792 26.916 48.8268C27.5431 49.0508 28.044 49.3156 28.3857 49.6041C28.7277 49.893 28.9004 50.1964 28.9004 50.5006C28.9004 50.8048 28.7277 51.1082 28.3857 51.3971C28.044 51.6856 27.5431 51.9505 26.916 52.1744C25.6627 52.622 23.9246 52.901 22 52.901C20.0754 52.901 18.3373 52.622 17.084 52.1744C16.4569 51.9505 15.956 51.6856 15.6143 51.3971C15.2723 51.1082 15.0996 50.8048 15.0996 50.5006C15.0996 50.1964 15.2723 49.893 15.6143 49.6041C15.956 49.3156 16.4569 49.0508 17.084 48.8268C18.3373 48.3792 20.0754 48.1002 22 48.1002Z" stroke="#00F0FF" stroke-opacity="0.39" stroke-width="0.2"/>
<path d="M22 44.0006L27 51.0006L17 51.0006L22 44.0006Z" fill="url(#paint8_linear_6846_31036)" fill-opacity="0.66"/>
<defs>
<linearGradient id="paint0_linear_6846_31036" x1="22" y1="1" x2="22" y2="43" gradientUnits="userSpaceOnUse">
<stop stop-color="#3D636C" stop-opacity="0"/>
<stop offset="0.505209" stop-color="#3D636C"/>
<stop offset="1" stop-color="#3D636C" stop-opacity="0"/>
</linearGradient>
<linearGradient id="paint1_linear_6846_31036" x1="22" y1="1" x2="22" y2="43" gradientUnits="userSpaceOnUse">
<stop stop-color="white" stop-opacity="0.1"/>
<stop offset="0.515626" stop-color="white"/>
<stop offset="1" stop-color="white" stop-opacity="0.1"/>
</linearGradient>
<linearGradient id="paint2_linear_6846_31036" x1="22" y1="39" x2="22" y2="0.999998" gradientUnits="userSpaceOnUse">
<stop stop-color="white" stop-opacity="0"/>
<stop offset="0.473957" stop-color="white"/>
<stop offset="1" stop-color="white" stop-opacity="0"/>
</linearGradient>
<linearGradient id="paint3_linear_6846_31036" x1="36.3182" y1="35.3636" x2="37.2727" y2="8.15909" gradientUnits="userSpaceOnUse">
<stop stop-color="#00F0FF"/>
<stop offset="0.187487" stop-color="#00B2FF"/>
<stop offset="1" stop-color="#00B2FF" stop-opacity="0"/>
</linearGradient>
<linearGradient id="paint4_linear_6846_31036" x1="2.90909" y1="26.7727" x2="26.2955" y2="42.0455" gradientUnits="userSpaceOnUse">
<stop stop-color="#00F0FF"/>
<stop offset="0.187487" stop-color="#00B2FF"/>
<stop offset="1" stop-color="#00B2FF" stop-opacity="0"/>
</linearGradient>
<linearGradient id="paint5_linear_6846_31036" x1="36.7955" y1="8.15909" x2="2.43182" y2="23.9091" gradientUnits="userSpaceOnUse">
<stop stop-color="white" stop-opacity="0.16"/>
<stop offset="0.12603" stop-color="white"/>
<stop offset="0.359369" stop-color="#BCDCEA"/>
<stop offset="1" stop-color="white" stop-opacity="0.03"/>
</linearGradient>
<linearGradient id="paint6_linear_6846_31036" x1="25.7317" y1="36.1241" x2="29.3751" y2="12.594" gradientUnits="userSpaceOnUse">
<stop stop-color="#00F0FF"/>
<stop offset="1" stop-color="#00B2FF"/>
</linearGradient>
<linearGradient id="paint7_linear_6846_31036" x1="22" y1="48.0006" x2="22" y2="53.0006" gradientUnits="userSpaceOnUse">
<stop stop-color="#6BDFE6"/>
<stop offset="1" stop-color="#6BDFE6" stop-opacity="0"/>
</linearGradient>
<linearGradient id="paint8_linear_6846_31036" x1="19.6677" y1="43.9969" x2="19.2405" y2="50.428" gradientUnits="userSpaceOnUse">
<stop stop-color="#00F0FF"/>
<stop offset="1" stop-color="#00B2FF"/>
</linearGradient>
</defs>
</svg>
