<svg width="64" height="64" viewBox="0 0 64 64" fill="none" xmlns="http://www.w3.org/2000/svg">
<g filter="url(#filter0_ddi_1322_12871)">
<path fill-rule="evenodd" clip-rule="evenodd" d="M36.3409 49.3418L32.0078 55L27.6787 49.3477C18.7129 47.3789 12 39.4314 12 29.9127C12 18.9156 20.9541 10 32 10C43.0459 10 52 18.9156 52 29.9127C52 39.4245 45.2969 47.366 36.3409 49.3418Z" fill="url(#paint0_linear_1322_12871)" fill-opacity="0.502" shape-rendering="crispEdges"/>
<path d="M32 11.5C42.2237 11.5 50.5 19.7506 50.5 29.9131C50.4998 38.6999 44.3067 46.0483 36.0176 47.877C35.7154 47.9436 35.442 48.1015 35.2344 48.3281L35.1504 48.4297L32.0068 52.5332L28.8691 48.4355C28.6807 48.1896 28.4215 48.0092 28.1279 47.917L28 47.8828L27.6133 47.793C19.5102 45.8302 13.5002 38.5691 13.5 29.9131C13.5 19.7506 21.7763 11.5 32 11.5Z" stroke="url(#paint1_linear_1322_12871)" stroke-width="3" stroke-linejoin="round" shape-rendering="crispEdges"/>
</g>
<g filter="url(#filter1_f_1322_12871)">
<path d="M32 10.5C42.7718 10.5 51.5 19.1942 51.5 29.9131C51.4998 39.183 44.9669 46.9267 36.2334 48.8535C36.1471 48.8726 36.0674 48.9137 36.0029 48.9727L35.9443 49.0381L32.0068 54.1777L28.0752 49.0439C28.0214 48.9738 27.9508 48.9192 27.8701 48.8857L27.7861 48.8594L27.3779 48.7646C18.8401 46.6965 12.5002 39.045 12.5 29.9131C12.5 19.1942 21.2282 10.5 32 10.5Z" stroke="white" stroke-linejoin="round"/>
</g>
<path d="M32 10.4004C42.8267 10.4004 51.5996 19.1385 51.5996 29.9131C51.5994 39.2314 45.0329 47.0146 36.2549 48.9512C36.1857 48.9664 36.1219 48.9995 36.0703 49.0469L36.0234 49.0986L32.0068 54.3418L27.9961 49.1045C27.953 49.0482 27.8958 49.0053 27.8311 48.9785L27.7646 48.957L27.3545 48.8623C18.7731 46.7837 12.4006 39.0927 12.4004 29.9131C12.4004 19.1385 21.1733 10.4004 32 10.4004Z" stroke="url(#paint2_linear_1322_12871)" stroke-width="0.8" stroke-linejoin="round"/>
<g filter="url(#filter2_d_1322_12871)">
<path fill-rule="evenodd" clip-rule="evenodd" d="M40 33.1477C39.8071 34.6576 39.1919 35.9107 38.1883 36.9432C36.4721 38.7117 34.3925 39.4259 31.8888 38.9594C31.9924 38.878 32.0549 38.8202 32.1255 38.775C33.1452 38.1158 34.1524 37.4323 34.9658 36.5156C35.3024 36.1358 35.5426 35.6684 35.8158 35.2335C35.9167 35.0744 35.8783 34.9415 35.7524 34.7715C35.6015 34.5681 35.4819 34.2986 35.4578 34.0464C35.4042 33.4659 35.4167 32.8783 35.3989 32.2933C35.3971 32.2228 35.3721 32.1523 35.3497 32.0374C34.8524 32.3123 34.6443 32.8059 34.2658 33.2589C34.1595 32.8258 34.1024 32.4452 33.9711 32.0926C33.7729 31.5619 33.5237 31.0501 33.2952 30.5303C33.2862 30.5104 33.2746 30.4878 33.2577 30.4778C33.0621 30.3585 32.8648 30.2418 32.6674 30.1243C32.6362 30.3178 32.5773 30.5113 32.5782 30.7057C32.5808 31.7816 32.338 32.7879 31.7799 33.7073C31.6736 33.8809 31.5433 34.0401 31.4138 34.1965C31.3647 34.2552 31.2504 34.3402 31.2263 34.3231C31.1567 34.2751 31.0941 34.1883 31.0709 34.1052C30.9611 33.7092 30.8745 33.3068 30.7584 32.9135C30.7218 32.7888 30.6191 32.683 30.5468 32.5691C30.4379 32.6468 30.3048 32.7038 30.2245 32.8041C29.8985 33.2083 29.8494 33.7119 29.878 34.1929C29.9093 34.7064 30.0539 35.2118 30.1423 35.7217C30.1611 35.8302 30.153 35.9441 30.1575 36.0553C30.0423 36.0192 29.9021 36.0147 29.8182 35.9423C29.3905 35.5707 29.1806 35.0572 28.9708 34.5455C28.7824 34.0862 28.5931 33.626 28.3842 33.1757C28.3315 33.0627 28.2029 32.9859 28.1092 32.8927C28.0163 33.0121 27.8752 33.1188 27.8404 33.2535C27.7832 33.4795 27.7493 33.7309 27.7868 33.9578C27.8279 34.2046 27.7681 34.3176 27.5359 34.3185C27.1645 34.3185 27.1055 34.5292 27.1323 34.8483C27.1984 35.6205 27.4984 36.3049 27.9654 36.8926C28.4931 37.5562 29.086 38.1674 29.6494 38.803C29.695 38.8545 29.7298 38.916 29.8334 39.0634C29.5851 39.0127 29.4298 38.9847 29.2762 38.9485C27.994 38.642 26.7885 38.1601 25.7849 37.2714C24.8992 36.4875 24.392 35.5147 24.4206 34.2833C24.4482 33.1133 24.3804 31.9479 24 30.7346C24.1857 30.8123 24.3018 30.8675 24.4223 30.9109C24.8304 31.061 25.2394 31.2056 25.6474 31.353C25.8814 31.438 25.9742 31.2879 26.0019 31.1044C26.2233 29.6361 26.4564 28.1669 26.0474 26.6914C26.0287 26.6236 26.0367 26.5476 26.0957 26.431C26.6109 27.0096 27.1261 27.5892 27.6841 28.2166C28.9914 26.4644 28.9199 24.5215 28.6413 22.517C29.5137 23.187 30.3905 23.8298 30.9915 24.8768C31.0959 24.6887 31.1763 24.5603 31.2415 24.4247C31.4968 23.8913 31.654 23.3344 31.6254 22.7349C31.5763 21.7078 31.5317 20.6808 31.4718 19.6537C31.4602 19.4584 31.3852 19.2658 31.3397 19.0723C31.3727 19.0479 31.4058 19.0244 31.4379 19C31.8201 19.3969 32.2103 19.7866 32.5835 20.1907C33.7497 21.4502 34.1568 23.0369 34.4425 24.6734C34.4675 24.8225 34.4899 24.9726 34.5059 25.1227C34.5363 25.4175 34.7283 25.5386 34.9265 25.3334C35.1238 25.1299 35.2488 24.8406 35.3622 24.5703C35.4453 24.3705 35.4596 24.139 35.5158 23.8633C35.6265 23.9555 35.6971 23.9989 35.7471 24.0595C36.331 24.7719 36.7346 25.5757 36.8882 26.4916C36.9748 27.0132 37.0114 27.5421 37.0784 28.0665C37.09 28.1551 37.1204 28.2862 37.1766 28.3097C37.2391 28.336 37.3802 28.2862 37.4222 28.2239C37.6374 27.9083 37.8454 27.5855 38.0285 27.2501C38.1169 27.0874 38.1428 26.8903 38.2517 26.7085C39.3714 28.8287 39.2312 31.1125 39.108 33.4144C39.4294 33.5491 39.65 33.277 40 33.1477ZM31.9719 26.327C31.8969 26.327 31.7594 26.4554 31.7576 26.5295C31.7415 27.2094 31.7478 27.8893 31.7513 28.5692C31.7513 28.6054 31.7888 28.6406 31.8612 28.7681C31.9969 28.5313 32.1746 28.354 32.1942 28.1606C32.2522 27.6063 32.2549 27.0458 32.2522 26.487C32.2522 26.4283 32.0692 26.327 31.9719 26.327ZM26.1841 39.6718C26.2796 39.6637 26.376 39.6646 26.4725 39.6646C29.8941 39.6673 33.3157 39.6709 36.7382 39.6736C36.9409 39.6736 37.1463 39.651 37.3463 39.6727C37.4257 39.6809 37.5561 39.7767 37.5597 39.8391C37.5793 40.2125 37.5695 40.5877 37.5695 40.9937C37.0918 40.9937 36.6766 40.9937 36.2614 40.9937C32.9675 40.9937 29.6744 40.9891 26.3805 41C26.0769 41.0009 25.9492 40.9177 25.9742 40.6013C25.9912 40.3861 25.9796 40.1673 25.959 39.9512C25.9412 39.7686 26.0189 39.6872 26.1841 39.6718Z" fill="url(#paint3_linear_1322_12871)"/>
</g>
<defs>
<filter id="filter0_ddi_1322_12871" x="8" y="6" width="48" height="57" filterUnits="userSpaceOnUse" color-interpolation-filters="sRGB">
<feFlood flood-opacity="0" result="BackgroundImageFix"/>
<feColorMatrix in="SourceAlpha" type="matrix" values="0 0 0 0 0 0 0 0 0 0 0 0 0 0 0 0 0 0 127 0" result="hardAlpha"/>
<feOffset dy="4"/>
<feGaussianBlur stdDeviation="2"/>
<feComposite in2="hardAlpha" operator="out"/>
<feColorMatrix type="matrix" values="0 0 0 0 0 0 0 0 0 0 0 0 0 0 0 0 0 0 0.25 0"/>
<feBlend mode="normal" in2="BackgroundImageFix" result="effect1_dropShadow_1322_12871"/>
<feColorMatrix in="SourceAlpha" type="matrix" values="0 0 0 0 0 0 0 0 0 0 0 0 0 0 0 0 0 0 127 0" result="hardAlpha"/>
<feOffset/>
<feGaussianBlur stdDeviation="2"/>
<feComposite in2="hardAlpha" operator="out"/>
<feColorMatrix type="matrix" values="0 0 0 0 0.996078 0 0 0 0 0.698039 0 0 0 0 0.266667 0 0 0 0.3 0"/>
<feBlend mode="normal" in2="effect1_dropShadow_1322_12871" result="effect2_dropShadow_1322_12871"/>
<feBlend mode="normal" in="SourceGraphic" in2="effect2_dropShadow_1322_12871" result="shape"/>
<feColorMatrix in="SourceAlpha" type="matrix" values="0 0 0 0 0 0 0 0 0 0 0 0 0 0 0 0 0 0 127 0" result="hardAlpha"/>
<feOffset/>
<feGaussianBlur stdDeviation="5"/>
<feComposite in2="hardAlpha" operator="arithmetic" k2="-1" k3="1"/>
<feColorMatrix type="matrix" values="0 0 0 0 0.996078 0 0 0 0 0.698039 0 0 0 0 0.266667 0 0 0 0.7 0"/>
<feBlend mode="normal" in2="shape" result="effect3_innerShadow_1322_12871"/>
</filter>
<filter id="filter1_f_1322_12871" x="9" y="7" width="46" height="51" filterUnits="userSpaceOnUse" color-interpolation-filters="sRGB">
<feFlood flood-opacity="0" result="BackgroundImageFix"/>
<feBlend mode="normal" in="SourceGraphic" in2="BackgroundImageFix" result="shape"/>
<feGaussianBlur stdDeviation="1.5" result="effect1_foregroundBlur_1322_12871"/>
</filter>
<filter id="filter2_d_1322_12871" x="20" y="19" width="24" height="30" filterUnits="userSpaceOnUse" color-interpolation-filters="sRGB">
<feFlood flood-opacity="0" result="BackgroundImageFix"/>
<feColorMatrix in="SourceAlpha" type="matrix" values="0 0 0 0 0 0 0 0 0 0 0 0 0 0 0 0 0 0 127 0" result="hardAlpha"/>
<feOffset dy="4"/>
<feGaussianBlur stdDeviation="2"/>
<feComposite in2="hardAlpha" operator="out"/>
<feColorMatrix type="matrix" values="0 0 0 0 0 0 0 0 0 0 0 0 0 0 0 0 0 0 0.25 0"/>
<feBlend mode="normal" in2="BackgroundImageFix" result="effect1_dropShadow_1322_12871"/>
<feBlend mode="normal" in="SourceGraphic" in2="effect1_dropShadow_1322_12871" result="shape"/>
</filter>
<linearGradient id="paint0_linear_1322_12871" x1="12" y1="49" x2="12" y2="10" gradientUnits="userSpaceOnUse">
<stop/>
<stop offset="1" stop-color="#FEB244"/>
</linearGradient>
<linearGradient id="paint1_linear_1322_12871" x1="32" y1="10" x2="32" y2="43.5" gradientUnits="userSpaceOnUse">
<stop stop-color="white"/>
<stop offset="1" stop-color="#FEB244"/>
</linearGradient>
<linearGradient id="paint2_linear_1322_12871" x1="32" y1="10" x2="32" y2="55" gradientUnits="userSpaceOnUse">
<stop stop-color="white" stop-opacity="0"/>
<stop offset="1" stop-color="white"/>
</linearGradient>
<linearGradient id="paint3_linear_1322_12871" x1="32" y1="19" x2="32" y2="41" gradientUnits="userSpaceOnUse">
<stop stop-color="white"/>
<stop offset="1" stop-color="#FEB244"/>
</linearGradient>
</defs>
</svg>
