<svg width="64" height="64" viewBox="0 0 64 64" fill="none" xmlns="http://www.w3.org/2000/svg">
<g filter="url(#filter0_ddi_1322_12864)">
<path fill-rule="evenodd" clip-rule="evenodd" d="M36.3409 49.3418L32.0078 55L27.6787 49.3477C18.7129 47.3789 12 39.4314 12 29.9127C12 18.9156 20.9541 10 32 10C43.0459 10 52 18.9156 52 29.9127C52 39.4245 45.2969 47.366 36.3409 49.3418Z" fill="url(#paint0_linear_1322_12864)" fill-opacity="0.502" shape-rendering="crispEdges"/>
<path d="M32 11.5C42.2237 11.5 50.5 19.7506 50.5 29.9131C50.4998 38.6999 44.3067 46.0483 36.0176 47.877C35.7154 47.9436 35.442 48.1015 35.2344 48.3281L35.1504 48.4297L32.0068 52.5332L28.8691 48.4355C28.6807 48.1896 28.4215 48.0092 28.1279 47.917L28 47.8828L27.6133 47.793C19.5102 45.8302 13.5002 38.5691 13.5 29.9131C13.5 19.7506 21.7763 11.5 32 11.5Z" stroke="url(#paint1_linear_1322_12864)" stroke-width="3" stroke-linejoin="round" shape-rendering="crispEdges"/>
</g>
<g filter="url(#filter1_f_1322_12864)">
<path d="M32 10.5C42.7718 10.5 51.5 19.1942 51.5 29.9131C51.4998 39.183 44.9669 46.9267 36.2334 48.8535C36.1471 48.8726 36.0674 48.9137 36.0029 48.9727L35.9443 49.0381L32.0068 54.1777L28.0752 49.0439C28.0214 48.9738 27.9508 48.9192 27.8701 48.8857L27.7861 48.8594L27.3779 48.7646C18.8401 46.6965 12.5002 39.045 12.5 29.9131C12.5 19.1942 21.2282 10.5 32 10.5Z" stroke="white" stroke-linejoin="round"/>
</g>
<path d="M32 10.4004C42.8267 10.4004 51.5996 19.1385 51.5996 29.9131C51.5994 39.2314 45.0329 47.0146 36.2549 48.9512C36.1857 48.9664 36.1219 48.9995 36.0703 49.0469L36.0234 49.0986L32.0068 54.3418L27.9961 49.1045C27.953 49.0482 27.8958 49.0053 27.8311 48.9785L27.7646 48.957L27.3545 48.8623C18.7731 46.7837 12.4006 39.0927 12.4004 29.9131C12.4004 19.1385 21.1733 10.4004 32 10.4004Z" stroke="url(#paint2_linear_1322_12864)" stroke-width="0.8" stroke-linejoin="round"/>
<g filter="url(#filter2_d_1322_12864)">
<path fill-rule="evenodd" clip-rule="evenodd" d="M40 32.1477C39.8071 33.6576 39.1919 34.9107 38.1883 35.9432C36.4721 37.7117 34.3925 38.4259 31.8888 37.9594C31.9924 37.878 32.0549 37.8202 32.1255 37.775C33.1452 37.1158 34.1524 36.4323 34.9658 35.5156C35.3024 35.1358 35.5426 34.6684 35.8158 34.2335C35.9167 34.0744 35.8783 33.9415 35.7524 33.7715C35.6015 33.5681 35.4819 33.2986 35.4578 33.0464C35.4042 32.4659 35.4167 31.8783 35.3989 31.2933C35.3971 31.2228 35.3721 31.1523 35.3497 31.0374C34.8524 31.3123 34.6443 31.8059 34.2658 32.2589C34.1595 31.8258 34.1024 31.4452 33.9711 31.0926C33.7729 30.5619 33.5237 30.0501 33.2952 29.5303C33.2862 29.5104 33.2746 29.4878 33.2577 29.4778C33.0621 29.3585 32.8648 29.2418 32.6674 29.1243C32.6362 29.3178 32.5773 29.5113 32.5782 29.7057C32.5808 30.7816 32.338 31.7879 31.7799 32.7073C31.6736 32.8809 31.5433 33.0401 31.4138 33.1965C31.3647 33.2552 31.2504 33.3402 31.2263 33.3231C31.1567 33.2751 31.0941 33.1883 31.0709 33.1052C30.9611 32.7092 30.8745 32.3068 30.7584 31.9135C30.7218 31.7888 30.6191 31.683 30.5468 31.5691C30.4379 31.6468 30.3048 31.7038 30.2245 31.8041C29.8985 32.2083 29.8494 32.7119 29.878 33.1929C29.9093 33.7064 30.0539 34.2118 30.1423 34.7217C30.1611 34.8302 30.153 34.9441 30.1575 35.0553C30.0423 35.0192 29.9021 35.0147 29.8182 34.9423C29.3905 34.5707 29.1806 34.0572 28.9708 33.5455C28.7824 33.0862 28.5931 32.626 28.3842 32.1757C28.3315 32.0627 28.2029 31.9859 28.1092 31.8927C28.0163 32.0121 27.8752 32.1188 27.8404 32.2535C27.7832 32.4795 27.7493 32.7309 27.7868 32.9578C27.8279 33.2046 27.7681 33.3176 27.5359 33.3185C27.1645 33.3185 27.1055 33.5292 27.1323 33.8483C27.1984 34.6205 27.4984 35.3049 27.9654 35.8926C28.4931 36.5562 29.086 37.1674 29.6494 37.803C29.695 37.8545 29.7298 37.916 29.8334 38.0634C29.5851 38.0127 29.4298 37.9847 29.2762 37.9485C27.994 37.642 26.7885 37.1601 25.7849 36.2714C24.8992 35.4875 24.392 34.5147 24.4206 33.2833C24.4482 32.1133 24.3804 30.9479 24 29.7346C24.1857 29.8123 24.3018 29.8675 24.4223 29.9109C24.8304 30.061 25.2394 30.2056 25.6474 30.353C25.8814 30.438 25.9742 30.2879 26.0019 30.1044C26.2233 28.6361 26.4564 27.1669 26.0474 25.6914C26.0287 25.6236 26.0367 25.5476 26.0957 25.431C26.6109 26.0096 27.1261 26.5892 27.6841 27.2166C28.9914 25.4644 28.9199 23.5215 28.6413 21.517C29.5137 22.187 30.3905 22.8298 30.9915 23.8768C31.0959 23.6887 31.1763 23.5603 31.2415 23.4247C31.4968 22.8913 31.654 22.3344 31.6254 21.7349C31.5763 20.7078 31.5317 19.6808 31.4718 18.6537C31.4602 18.4584 31.3852 18.2658 31.3397 18.0723C31.3727 18.0479 31.4058 18.0244 31.4379 18C31.8201 18.3969 32.2103 18.7866 32.5835 19.1907C33.7497 20.4502 34.1568 22.0369 34.4425 23.6734C34.4675 23.8225 34.4899 23.9726 34.5059 24.1227C34.5363 24.4175 34.7283 24.5386 34.9265 24.3334C35.1238 24.1299 35.2488 23.8406 35.3622 23.5703C35.4453 23.3705 35.4596 23.139 35.5158 22.8633C35.6265 22.9555 35.6971 22.9989 35.7471 23.0595C36.331 23.7719 36.7346 24.5757 36.8882 25.4916C36.9748 26.0132 37.0114 26.5421 37.0784 27.0665C37.09 27.1551 37.1204 27.2862 37.1766 27.3097C37.2391 27.336 37.3802 27.2862 37.4222 27.2239C37.6374 26.9083 37.8454 26.5855 38.0285 26.2501C38.1169 26.0874 38.1428 25.8903 38.2517 25.7085C39.3714 27.8287 39.2312 30.1125 39.108 32.4144C39.4294 32.5491 39.65 32.277 40 32.1477ZM31.9719 25.327C31.8969 25.327 31.7594 25.4554 31.7576 25.5295C31.7415 26.2094 31.7478 26.8893 31.7513 27.5692C31.7513 27.6054 31.7888 27.6406 31.8612 27.7681C31.9969 27.5313 32.1746 27.354 32.1942 27.1606C32.2522 26.6063 32.2549 26.0458 32.2522 25.487C32.2522 25.4283 32.0692 25.327 31.9719 25.327ZM26.1841 38.6718C26.2796 38.6637 26.376 38.6646 26.4725 38.6646C29.8941 38.6673 33.3157 38.6709 36.7382 38.6736C36.9409 38.6736 37.1463 38.651 37.3463 38.6727C37.4257 38.6809 37.5561 38.7767 37.5597 38.8391C37.5793 39.2125 37.5695 39.5877 37.5695 39.9937C37.0918 39.9937 36.6766 39.9937 36.2614 39.9937C32.9675 39.9937 29.6744 39.9891 26.3805 40C26.0769 40.0009 25.9492 39.9177 25.9742 39.6013C25.9912 39.3861 25.9796 39.1673 25.959 38.9512C25.9412 38.7686 26.0189 38.6872 26.1841 38.6718Z" fill="url(#paint3_linear_1322_12864)"/>
</g>
<defs>
<filter id="filter0_ddi_1322_12864" x="8" y="6" width="48" height="57" filterUnits="userSpaceOnUse" color-interpolation-filters="sRGB">
<feFlood flood-opacity="0" result="BackgroundImageFix"/>
<feColorMatrix in="SourceAlpha" type="matrix" values="0 0 0 0 0 0 0 0 0 0 0 0 0 0 0 0 0 0 127 0" result="hardAlpha"/>
<feOffset dy="4"/>
<feGaussianBlur stdDeviation="2"/>
<feComposite in2="hardAlpha" operator="out"/>
<feColorMatrix type="matrix" values="0 0 0 0 0 0 0 0 0 0 0 0 0 0 0 0 0 0 0.25 0"/>
<feBlend mode="normal" in2="BackgroundImageFix" result="effect1_dropShadow_1322_12864"/>
<feColorMatrix in="SourceAlpha" type="matrix" values="0 0 0 0 0 0 0 0 0 0 0 0 0 0 0 0 0 0 127 0" result="hardAlpha"/>
<feOffset/>
<feGaussianBlur stdDeviation="2"/>
<feComposite in2="hardAlpha" operator="out"/>
<feColorMatrix type="matrix" values="0 0 0 0 0.278431 0 0 0 0 0.945098 0 0 0 0 0.533333 0 0 0 0.3 0"/>
<feBlend mode="normal" in2="effect1_dropShadow_1322_12864" result="effect2_dropShadow_1322_12864"/>
<feBlend mode="normal" in="SourceGraphic" in2="effect2_dropShadow_1322_12864" result="shape"/>
<feColorMatrix in="SourceAlpha" type="matrix" values="0 0 0 0 0 0 0 0 0 0 0 0 0 0 0 0 0 0 127 0" result="hardAlpha"/>
<feOffset/>
<feGaussianBlur stdDeviation="5"/>
<feComposite in2="hardAlpha" operator="arithmetic" k2="-1" k3="1"/>
<feColorMatrix type="matrix" values="0 0 0 0 0.278431 0 0 0 0 0.945098 0 0 0 0 0.533333 0 0 0 0.7 0"/>
<feBlend mode="normal" in2="shape" result="effect3_innerShadow_1322_12864"/>
</filter>
<filter id="filter1_f_1322_12864" x="9" y="7" width="46" height="51" filterUnits="userSpaceOnUse" color-interpolation-filters="sRGB">
<feFlood flood-opacity="0" result="BackgroundImageFix"/>
<feBlend mode="normal" in="SourceGraphic" in2="BackgroundImageFix" result="shape"/>
<feGaussianBlur stdDeviation="1.5" result="effect1_foregroundBlur_1322_12864"/>
</filter>
<filter id="filter2_d_1322_12864" x="20" y="18" width="24" height="30" filterUnits="userSpaceOnUse" color-interpolation-filters="sRGB">
<feFlood flood-opacity="0" result="BackgroundImageFix"/>
<feColorMatrix in="SourceAlpha" type="matrix" values="0 0 0 0 0 0 0 0 0 0 0 0 0 0 0 0 0 0 127 0" result="hardAlpha"/>
<feOffset dy="4"/>
<feGaussianBlur stdDeviation="2"/>
<feComposite in2="hardAlpha" operator="out"/>
<feColorMatrix type="matrix" values="0 0 0 0 0 0 0 0 0 0 0 0 0 0 0 0 0 0 0.25 0"/>
<feBlend mode="normal" in2="BackgroundImageFix" result="effect1_dropShadow_1322_12864"/>
<feBlend mode="normal" in="SourceGraphic" in2="effect1_dropShadow_1322_12864" result="shape"/>
</filter>
<linearGradient id="paint0_linear_1322_12864" x1="12" y1="49" x2="12" y2="10" gradientUnits="userSpaceOnUse">
<stop/>
<stop offset="1" stop-color="#47F188"/>
</linearGradient>
<linearGradient id="paint1_linear_1322_12864" x1="32" y1="10" x2="32" y2="43.5" gradientUnits="userSpaceOnUse">
<stop stop-color="white"/>
<stop offset="1" stop-color="#47F188"/>
</linearGradient>
<linearGradient id="paint2_linear_1322_12864" x1="32" y1="10" x2="32" y2="55" gradientUnits="userSpaceOnUse">
<stop stop-color="white" stop-opacity="0"/>
<stop offset="1" stop-color="white"/>
</linearGradient>
<linearGradient id="paint3_linear_1322_12864" x1="32.0001" y1="18" x2="32.0001" y2="37.1375" gradientUnits="userSpaceOnUse">
<stop stop-color="white"/>
<stop offset="1" stop-color="#47F188"/>
</linearGradient>
</defs>
</svg>
