<svg width="64" height="64" viewBox="0 0 64 64" fill="none" xmlns="http://www.w3.org/2000/svg">
<g filter="url(#filter0_ddi_1514_13813)">
<path fill-rule="evenodd" clip-rule="evenodd" d="M36.3409 49.3418L32.0078 55L27.6787 49.3477C18.7129 47.3789 12 39.4314 12 29.9127C12 18.9156 20.9541 10 32 10C43.0459 10 52 18.9156 52 29.9127C52 39.4245 45.2969 47.366 36.3409 49.3418Z" fill="url(#paint0_linear_1514_13813)" fill-opacity="0.502" shape-rendering="crispEdges"/>
<path d="M32 11.5C42.2237 11.5 50.5 19.7506 50.5 29.9131C50.4998 38.6999 44.3067 46.0483 36.0176 47.877C35.7154 47.9436 35.442 48.1015 35.2344 48.3281L35.1504 48.4297L32.0068 52.5332L28.8691 48.4355C28.6807 48.1896 28.4215 48.0092 28.1279 47.917L28 47.8828L27.6133 47.793C19.5102 45.8302 13.5002 38.5691 13.5 29.9131C13.5 19.7506 21.7763 11.5 32 11.5Z" stroke="url(#paint1_linear_1514_13813)" stroke-width="3" stroke-linejoin="round" shape-rendering="crispEdges"/>
</g>
<g filter="url(#filter1_f_1514_13813)">
<path d="M32 10.5C42.7718 10.5 51.5 19.1942 51.5 29.9131C51.4998 39.183 44.9669 46.9267 36.2334 48.8535C36.1471 48.8726 36.0674 48.9137 36.0029 48.9727L35.9443 49.0381L32.0068 54.1777L28.0752 49.0439C28.0214 48.9738 27.9508 48.9192 27.8701 48.8857L27.7861 48.8594L27.3779 48.7646C18.8401 46.6965 12.5002 39.045 12.5 29.9131C12.5 19.1942 21.2282 10.5 32 10.5Z" stroke="white" stroke-linejoin="round"/>
</g>
<path d="M32 10.4004C42.8267 10.4004 51.5996 19.1385 51.5996 29.9131C51.5994 39.2314 45.0329 47.0146 36.2549 48.9512C36.1857 48.9664 36.1219 48.9995 36.0703 49.0469L36.0234 49.0986L32.0068 54.3418L27.9961 49.1045C27.953 49.0482 27.8958 49.0053 27.8311 48.9785L27.7646 48.957L27.3545 48.8623C18.7731 46.7837 12.4006 39.0927 12.4004 29.9131C12.4004 19.1385 21.1733 10.4004 32 10.4004Z" stroke="url(#paint2_linear_1514_13813)" stroke-width="0.8" stroke-linejoin="round"/>
<g filter="url(#filter2_d_1514_13813)">
<path fill-rule="evenodd" clip-rule="evenodd" d="M42 25.0199C42 26.9463 37.8798 31.0398 32 31.0398C26.2747 31.0398 22 26.9893 22 25.0199C22 23.0505 26.2918 19 32 19C37.9227 19 42 23.0419 42 25.0199ZM32 20.075C30.6933 20.075 29.4401 20.5951 28.5161 21.5208C27.5921 22.4465 27.073 23.7021 27.073 25.0113C27.073 26.3205 27.5921 27.5761 28.5161 28.5018C29.4401 29.4275 30.6933 29.9476 32 29.9476C33.3067 29.9476 34.5599 29.4275 35.4839 28.5018C36.4079 27.5761 36.927 26.3205 36.927 25.0113C36.927 23.7021 36.4079 22.4465 35.4839 21.5208C34.5599 20.5951 33.3067 20.075 32 20.075ZM41.1143 31.6115H22.7862C22.3519 31.6115 22 31.9635 22 32.3977C22 32.8319 22.3519 33.1839 22.7862 33.1839H41.1143C41.5486 33.1839 41.9005 32.8319 41.9005 32.3977C41.9005 31.9635 41.5486 31.6115 41.1143 31.6115ZM39.5305 34.1477H24.37C23.9358 34.1477 23.5839 34.4996 23.5839 34.9338C23.5839 35.3681 23.9358 35.72 24.37 35.72H39.5305C39.9647 35.72 40.3166 35.3681 40.3166 34.9338C40.3166 34.4996 39.9647 34.1477 39.5305 34.1477ZM35.1181 36.6838H28.7824C28.3482 36.6838 27.9962 37.0358 27.9962 37.47C27.9962 37.9042 28.3482 38.2562 28.7824 38.2562H35.1181C35.5524 38.2562 35.9043 37.9042 35.9043 37.47C35.9043 37.0358 35.5523 36.6838 35.1181 36.6838ZM30.1316 22.2168C30.6988 21.8553 31.3609 21.671 32.0332 21.6876C32.9191 21.6998 33.7639 22.0627 34.3825 22.6969C35.0011 23.3311 35.3429 24.1848 35.333 25.0707C35.3328 25.7433 35.1321 26.4006 34.7566 26.9586C34.3811 27.5166 33.8477 27.95 33.2247 28.2034C32.6017 28.4568 31.9173 28.5188 31.2589 28.3814C30.6005 28.2439 29.998 27.9134 29.5283 27.4319C29.0587 26.9504 28.7432 26.3398 28.6223 25.6782C28.5013 25.0165 28.5802 24.3339 28.8491 23.7173C29.1179 23.1008 29.5645 22.5784 30.1316 22.2168Z" fill="url(#paint3_linear_1514_13813)"/>
</g>
<defs>
<filter id="filter0_ddi_1514_13813" x="8" y="6" width="48" height="57" filterUnits="userSpaceOnUse" color-interpolation-filters="sRGB">
<feFlood flood-opacity="0" result="BackgroundImageFix"/>
<feColorMatrix in="SourceAlpha" type="matrix" values="0 0 0 0 0 0 0 0 0 0 0 0 0 0 0 0 0 0 127 0" result="hardAlpha"/>
<feOffset dy="4"/>
<feGaussianBlur stdDeviation="2"/>
<feComposite in2="hardAlpha" operator="out"/>
<feColorMatrix type="matrix" values="0 0 0 0 0 0 0 0 0 0 0 0 0 0 0 0 0 0 0.25 0"/>
<feBlend mode="normal" in2="BackgroundImageFix" result="effect1_dropShadow_1514_13813"/>
<feColorMatrix in="SourceAlpha" type="matrix" values="0 0 0 0 0 0 0 0 0 0 0 0 0 0 0 0 0 0 127 0" result="hardAlpha"/>
<feOffset/>
<feGaussianBlur stdDeviation="2"/>
<feComposite in2="hardAlpha" operator="out"/>
<feColorMatrix type="matrix" values="0 0 0 0 0.278431 0 0 0 0 0.945098 0 0 0 0 0.533333 0 0 0 0.3 0"/>
<feBlend mode="normal" in2="effect1_dropShadow_1514_13813" result="effect2_dropShadow_1514_13813"/>
<feBlend mode="normal" in="SourceGraphic" in2="effect2_dropShadow_1514_13813" result="shape"/>
<feColorMatrix in="SourceAlpha" type="matrix" values="0 0 0 0 0 0 0 0 0 0 0 0 0 0 0 0 0 0 127 0" result="hardAlpha"/>
<feOffset/>
<feGaussianBlur stdDeviation="5"/>
<feComposite in2="hardAlpha" operator="arithmetic" k2="-1" k3="1"/>
<feColorMatrix type="matrix" values="0 0 0 0 0.278431 0 0 0 0 0.945098 0 0 0 0 0.533333 0 0 0 0.7 0"/>
<feBlend mode="normal" in2="shape" result="effect3_innerShadow_1514_13813"/>
</filter>
<filter id="filter1_f_1514_13813" x="9" y="7" width="46" height="51" filterUnits="userSpaceOnUse" color-interpolation-filters="sRGB">
<feFlood flood-opacity="0" result="BackgroundImageFix"/>
<feBlend mode="normal" in="SourceGraphic" in2="BackgroundImageFix" result="shape"/>
<feGaussianBlur stdDeviation="1.5" result="effect1_foregroundBlur_1514_13813"/>
</filter>
<filter id="filter2_d_1514_13813" x="18" y="19" width="28" height="27.2562" filterUnits="userSpaceOnUse" color-interpolation-filters="sRGB">
<feFlood flood-opacity="0" result="BackgroundImageFix"/>
<feColorMatrix in="SourceAlpha" type="matrix" values="0 0 0 0 0 0 0 0 0 0 0 0 0 0 0 0 0 0 127 0" result="hardAlpha"/>
<feOffset dy="4"/>
<feGaussianBlur stdDeviation="2"/>
<feComposite in2="hardAlpha" operator="out"/>
<feColorMatrix type="matrix" values="0 0 0 0 0 0 0 0 0 0 0 0 0 0 0 0 0 0 0.25 0"/>
<feBlend mode="normal" in2="BackgroundImageFix" result="effect1_dropShadow_1514_13813"/>
<feBlend mode="normal" in="SourceGraphic" in2="effect1_dropShadow_1514_13813" result="shape"/>
</filter>
<linearGradient id="paint0_linear_1514_13813" x1="12" y1="49" x2="12" y2="10" gradientUnits="userSpaceOnUse">
<stop/>
<stop offset="1" stop-color="#47F188"/>
</linearGradient>
<linearGradient id="paint1_linear_1514_13813" x1="32" y1="10" x2="32" y2="43.5" gradientUnits="userSpaceOnUse">
<stop stop-color="white"/>
<stop offset="1" stop-color="#47F188"/>
</linearGradient>
<linearGradient id="paint2_linear_1514_13813" x1="32" y1="10" x2="32" y2="55" gradientUnits="userSpaceOnUse">
<stop stop-color="white" stop-opacity="0"/>
<stop offset="1" stop-color="white"/>
</linearGradient>
<linearGradient id="paint3_linear_1514_13813" x1="32.0002" y1="19" x2="32.0002" y2="35.7507" gradientUnits="userSpaceOnUse">
<stop stop-color="white"/>
<stop offset="1" stop-color="#47F188"/>
</linearGradient>
</defs>
</svg>
