<svg width="64" height="64" viewBox="0 0 64 64" fill="none" xmlns="http://www.w3.org/2000/svg">
<g filter="url(#filter0_ddi_1516_14024)">
<path fill-rule="evenodd" clip-rule="evenodd" d="M36.3409 49.3418L32.0078 55L27.6787 49.3477C18.7129 47.3789 12 39.4314 12 29.9127C12 18.9156 20.9541 10 32 10C43.0459 10 52 18.9156 52 29.9127C52 39.4245 45.2969 47.366 36.3409 49.3418Z" fill="url(#paint0_linear_1516_14024)" fill-opacity="0.502" shape-rendering="crispEdges"/>
<path d="M32 11.5C42.2237 11.5 50.5 19.7506 50.5 29.9131C50.4998 38.6999 44.3067 46.0483 36.0176 47.877C35.7154 47.9436 35.442 48.1015 35.2344 48.3281L35.1504 48.4297L32.0068 52.5332L28.8691 48.4355C28.6807 48.1896 28.4215 48.0092 28.1279 47.917L28 47.8828L27.6133 47.793C19.5102 45.8302 13.5002 38.5691 13.5 29.9131C13.5 19.7506 21.7763 11.5 32 11.5Z" stroke="url(#paint1_linear_1516_14024)" stroke-width="3" stroke-linejoin="round" shape-rendering="crispEdges"/>
</g>
<g filter="url(#filter1_f_1516_14024)">
<path d="M32 10.5C42.7718 10.5 51.5 19.1942 51.5 29.9131C51.4998 39.183 44.9669 46.9267 36.2334 48.8535C36.1471 48.8726 36.0674 48.9137 36.0029 48.9727L35.9443 49.0381L32.0068 54.1777L28.0752 49.0439C28.0214 48.9738 27.9508 48.9192 27.8701 48.8857L27.7861 48.8594L27.3779 48.7646C18.8401 46.6965 12.5002 39.045 12.5 29.9131C12.5 19.1942 21.2282 10.5 32 10.5Z" stroke="white" stroke-linejoin="round"/>
</g>
<path d="M32 10.4004C42.8267 10.4004 51.5996 19.1385 51.5996 29.9131C51.5994 39.2314 45.0329 47.0146 36.2549 48.9512C36.1857 48.9664 36.1219 48.9995 36.0703 49.0469L36.0234 49.0986L32.0068 54.3418L27.9961 49.1045C27.953 49.0482 27.8958 49.0053 27.8311 48.9785L27.7646 48.957L27.3545 48.8623C18.7731 46.7837 12.4006 39.0927 12.4004 29.9131C12.4004 19.1385 21.1733 10.4004 32 10.4004Z" stroke="url(#paint2_linear_1516_14024)" stroke-width="0.8" stroke-linejoin="round"/>
<g filter="url(#filter2_d_1516_14024)">
<path fill-rule="evenodd" clip-rule="evenodd" d="M30.9927 35.971H26.2362C25.9155 35.9723 25.9128 35.9764 25.9194 36.2943C25.934 36.9058 25.8469 36.9978 25.2529 36.9978C24.9907 36.9978 24.7284 36.9979 24.466 36.9981L24.4609 36.9981C23.9325 36.9984 23.404 36.9987 22.876 36.9978C22.4774 36.9964 22.3388 36.8706 22.3388 36.4661L22.3393 35.575C22.3399 33.7928 22.3405 32.0106 22.3586 30.2284C22.3639 29.7211 22.6015 29.2801 22.9024 28.8824C22.9215 28.8572 22.9391 28.8341 22.9553 28.813C23.049 28.6905 23.0939 28.6318 23.0827 28.5872C23.0724 28.5462 23.0146 28.5172 22.9038 28.4615C22.8735 28.4462 22.8392 28.429 22.8008 28.4089C22.7243 28.369 22.6483 28.3284 22.5724 28.2878L22.5724 28.2878C22.4348 28.2143 22.2975 28.141 22.158 28.0721C22.0287 28.0085 21.9759 27.9165 22.0102 27.7745C22.027 27.7042 22.043 27.6336 22.059 27.563L22.059 27.563C22.0961 27.4 22.1331 27.2369 22.1792 27.0764C22.2412 26.8654 22.4589 26.7234 22.6978 26.722L22.6991 26.722H22.6992C23.2253 26.7193 23.7501 26.7166 24.2763 26.722C24.3938 26.7234 24.473 26.6936 24.5455 26.5881C25.0286 25.8968 25.5156 25.2082 26.0092 24.5251C26.1728 24.2965 26.3946 24.1531 26.681 24.1368C29.0751 23.9948 31.4705 23.9529 33.8672 24.0611C34.0812 24.0702 34.2948 24.0818 34.5085 24.0934C34.7693 24.1076 35.0301 24.1218 35.2913 24.1314C35.5988 24.1436 35.8232 24.3019 35.9947 24.5386C36.4659 25.1893 36.9278 25.8468 37.3871 26.5069C37.498 26.6638 37.622 26.7301 37.8147 26.7247C38.1403 26.7157 38.4658 26.7175 38.7913 26.7193H38.7913C38.9541 26.7202 39.1169 26.7211 39.2797 26.7207C39.5542 26.7193 39.764 26.8762 39.838 27.1535C39.8579 27.2282 39.8753 27.3037 39.8927 27.3792C39.9191 27.4937 39.9455 27.6081 39.9805 27.719C40.0412 27.9111 39.9541 28.0126 39.8036 28.091L39.6609 28.1638L39.6609 28.1639C39.4703 28.2609 39.2794 28.3581 39.0936 28.463C38.8758 28.5848 38.8719 28.6037 39.0289 28.8094C39.0885 28.887 39.1478 28.965 39.2043 29.0447C38.9737 29.0152 38.7386 29 38.5 29C35.4624 29 33 31.4624 33 34.5C33 35.0093 33.0692 35.5025 33.1988 35.9705L32.5898 35.9707L32.5794 35.9707C32.0504 35.9708 31.5215 35.971 30.9927 35.971ZM27.4082 28.0707L27.3927 28.0291L27.3927 28.029C27.3787 27.991 27.3679 27.9614 27.3541 27.9341C27.3298 27.8853 27.3014 27.8376 27.273 27.79C27.2147 27.6922 27.1567 27.595 27.1363 27.4904C27.0716 27.1414 27.0201 26.7856 27.0109 26.4312C26.9938 25.7074 27.3778 25.2718 28.0799 25.1974C28.6435 25.1393 29.2928 25.4463 29.3733 26.1214C29.434 26.63 29.3826 27.1333 29.2361 27.623C29.2117 27.706 29.1712 27.7838 29.1263 27.8699C29.1033 27.9141 29.079 27.9606 29.0553 28.0112H29.2519L29.6419 28.006C30.0319 28.0006 30.4219 27.9953 30.8119 27.9923C32.9117 27.9733 35.0062 28.0707 37.102 28.1925C37.1509 28.1953 37.201 28.1803 37.2506 28.1655C37.2721 28.1591 37.2934 28.1527 37.3145 28.1478C37.3086 28.1254 37.3042 28.1017 37.2997 28.078C37.289 28.0216 37.2782 27.9648 37.2485 27.9219C37.0546 27.642 36.8579 27.3639 36.6612 27.0858L36.6611 27.0857C36.2969 26.5708 35.9326 26.0558 35.5856 25.5289C35.3625 25.192 35.0986 25.0405 34.7158 25.073C34.6901 25.0758 34.6636 25.074 34.637 25.0722C34.6255 25.0714 34.6139 25.0707 34.6023 25.0703C34.2666 25.0542 33.9309 25.0337 33.5953 25.0132L33.5953 25.0132C32.8295 24.9665 32.0642 24.9199 31.2989 24.9255C30.3803 24.9317 29.4617 24.9762 28.5431 25.0207L28.5431 25.0207C28.0495 25.0446 27.5559 25.0685 27.0624 25.0865C26.8156 25.0946 26.6453 25.1961 26.5067 25.3949C26.2663 25.739 26.0247 26.0822 25.7831 26.4253L25.7831 26.4254L25.783 26.4255C25.5023 26.8243 25.2216 27.2231 24.9428 27.623C24.8649 27.7353 24.795 27.8535 24.7252 27.9716L24.7252 27.9716L24.7251 27.9717C24.6933 28.0256 24.6614 28.0795 24.6287 28.133C24.6432 28.156 24.6564 28.179 24.6696 28.2033C25.3882 28.1679 26.1061 28.1334 26.8342 28.0984L27.4082 28.0707ZM25.2068 31.3688V31.4121H25.2072C25.6056 31.4121 26.004 31.4121 26.4012 31.4108C26.6163 31.4108 26.6625 31.3661 26.6664 31.1537C26.6691 31.0049 26.6717 30.8548 26.6664 30.706C26.6532 30.3353 26.4289 30.0688 26.0699 30.016C25.2754 29.8997 24.4795 29.7901 23.6824 29.6819C23.466 29.6521 23.3683 29.7347 23.359 29.9552C23.3498 30.1824 23.3458 30.4097 23.3604 30.6356C23.3815 31.0022 23.6771 31.2863 24.0321 31.3052C24.2247 31.3152 24.4175 31.3259 24.6106 31.3366L24.6109 31.3366L24.611 31.3366C24.8094 31.3476 25.0081 31.3585 25.2068 31.3688ZM43 34.4121C43 36.8585 41.0168 38.8416 38.5704 38.8416C36.124 38.8416 34.1409 36.8585 34.1409 34.4121C34.1409 31.9657 36.124 29.9825 38.5704 29.9825C41.0168 29.9825 43 31.9657 43 34.4121ZM36.6542 32.1979H35.6317C35.53 32.1979 35.4325 32.2329 35.3606 32.2952C35.2887 32.3574 35.2483 32.4419 35.2483 32.53V36.2691C35.2483 36.3572 35.2887 36.4417 35.3606 36.504C35.4325 36.5663 35.53 36.6013 35.6317 36.6013C35.7334 36.6013 35.8309 36.5663 35.9028 36.504C35.9747 36.4417 36.0151 36.3572 36.0151 36.2691V34.6194H36.6542C36.8412 34.6243 37.0276 34.5966 37.2021 34.5379C37.3766 34.4793 37.5357 34.3909 37.67 34.278C37.8044 34.1651 37.9112 34.0299 37.9841 33.8806C38.057 33.7313 38.0946 33.5708 38.0946 33.4086C38.0946 33.2465 38.057 33.086 37.9841 32.9366C37.9112 32.7873 37.8044 32.6522 37.67 32.5392C37.5357 32.4263 37.3766 32.3379 37.2021 32.2793C37.0276 32.2206 36.8412 32.193 36.6542 32.1979ZM36.6542 33.9628H36.0151V32.8556H36.6542C36.8236 32.8556 36.9862 32.9139 37.106 33.0177C37.2259 33.1215 37.2932 33.2623 37.2932 33.4092C37.2932 33.556 37.2259 33.6968 37.106 33.8006C36.9862 33.9045 36.8236 33.9628 36.6542 33.9628ZM41.8392 36.0997L40.5867 34.3016L40.9574 33.8111H41.0468C41.1488 33.8146 41.2497 33.7916 41.3365 33.7451C41.4233 33.6985 41.492 33.6305 41.5338 33.5498L41.8494 32.9386C41.8779 32.8832 41.8926 32.8232 41.8926 32.7625C41.8926 32.7019 41.8779 32.6419 41.8494 32.5865L41.4302 33.2132C41.4244 33.2216 41.4161 33.2285 41.4063 33.2334C41.3964 33.2382 41.3853 33.2408 41.374 33.2409C41.3627 33.2409 41.3516 33.2383 41.342 33.2331C41.3348 33.2297 41.3284 33.225 41.3233 33.2193C41.3181 33.2137 41.3144 33.2072 41.3122 33.2003C41.3101 33.1934 41.3096 33.1861 41.3108 33.179C41.3119 33.1719 41.3147 33.1651 41.319 33.1589L41.7727 32.4802L41.7536 32.4581L41.6488 32.3628C41.6296 32.3458 41.6091 32.3299 41.5874 32.3152L41.0967 33.0493C41.091 33.0576 41.083 33.0644 41.0733 33.069C41.0637 33.0737 41.0528 33.0761 41.0417 33.0759C41.0321 33.078 41.0221 33.0784 41.0123 33.077C41.005 33.0734 40.9986 33.0687 40.9935 33.0629C40.9883 33.0572 40.9846 33.0506 40.9824 33.0436C40.9803 33.0366 40.9798 33.0292 40.981 33.022C40.9821 33.0148 40.985 33.0079 40.9893 33.0017L41.4801 32.2676C41.4543 32.2582 41.4279 32.2504 41.4008 32.2444L41.2615 32.2156C41.2492 32.2145 41.2368 32.2145 41.2245 32.2156L40.7682 32.8976C40.7623 32.906 40.7541 32.913 40.7442 32.9178C40.7344 32.9226 40.7233 32.9252 40.712 32.9253C40.7007 32.9254 40.6896 32.9227 40.68 32.9176C40.6727 32.914 40.6663 32.9092 40.6612 32.9035C40.656 32.8977 40.6523 32.8912 40.6501 32.8841C40.648 32.8771 40.6475 32.8698 40.6487 32.8626C40.6498 32.8554 40.6527 32.8485 40.657 32.8423L41.0788 32.2123C41.0091 32.2192 40.9418 32.2386 40.8811 32.269C40.8204 32.2995 40.7676 32.3405 40.726 32.3894L40.2672 32.9342C40.2079 33.0056 40.1746 33.0908 40.1714 33.1787C40.1682 33.2667 40.1953 33.3535 40.2493 33.428L40.2928 33.4889L40.1496 33.6782L39.1579 32.3019C39.1348 32.27 39.1028 32.2437 39.0648 32.2255C39.0268 32.2073 38.984 32.1978 38.9406 32.1979H38.5712C38.5034 32.1979 38.4384 32.2212 38.3905 32.2627C38.3426 32.3042 38.3156 32.3606 38.3156 32.4193V32.8002C38.3153 32.839 38.3268 32.8772 38.3489 32.9109L39.2179 34.2208C39.2505 34.2698 39.3034 34.3061 39.3659 34.3224C39.4284 34.3386 39.4957 34.3336 39.5541 34.3082L39.6627 34.2617L39.6819 34.2883L38.2977 36.1164C38.2605 36.167 38.2398 36.2255 38.2379 36.2856C38.236 36.3456 38.253 36.405 38.2869 36.4574C38.3209 36.5098 38.3706 36.5532 38.4308 36.583C38.491 36.6128 38.5594 36.628 38.6287 36.6268C38.6906 36.6254 38.7511 36.6111 38.8052 36.5851C38.8593 36.5591 38.9053 36.5221 38.9393 36.4773L40.1202 34.9161L41.1823 36.4397C41.2164 36.4887 41.2646 36.5292 41.3222 36.5573C41.3797 36.5855 41.4447 36.6002 41.5107 36.6002C41.5781 36.5999 41.6442 36.5842 41.7024 36.5547C41.7605 36.5252 41.8087 36.483 41.842 36.4322C41.8753 36.3815 41.8925 36.324 41.8921 36.2657C41.8916 36.2073 41.8733 36.1501 41.8392 36.0997Z" fill="url(#paint3_linear_1516_14024)"/>
</g>
<defs>
<filter id="filter0_ddi_1516_14024" x="8" y="6" width="48" height="57" filterUnits="userSpaceOnUse" color-interpolation-filters="sRGB">
<feFlood flood-opacity="0" result="BackgroundImageFix"/>
<feColorMatrix in="SourceAlpha" type="matrix" values="0 0 0 0 0 0 0 0 0 0 0 0 0 0 0 0 0 0 127 0" result="hardAlpha"/>
<feOffset dy="4"/>
<feGaussianBlur stdDeviation="2"/>
<feComposite in2="hardAlpha" operator="out"/>
<feColorMatrix type="matrix" values="0 0 0 0 0 0 0 0 0 0 0 0 0 0 0 0 0 0 0.25 0"/>
<feBlend mode="normal" in2="BackgroundImageFix" result="effect1_dropShadow_1516_14024"/>
<feColorMatrix in="SourceAlpha" type="matrix" values="0 0 0 0 0 0 0 0 0 0 0 0 0 0 0 0 0 0 127 0" result="hardAlpha"/>
<feOffset/>
<feGaussianBlur stdDeviation="2"/>
<feComposite in2="hardAlpha" operator="out"/>
<feColorMatrix type="matrix" values="0 0 0 0 1 0 0 0 0 0.34902 0 0 0 0 0.368627 0 0 0 0.3 0"/>
<feBlend mode="normal" in2="effect1_dropShadow_1516_14024" result="effect2_dropShadow_1516_14024"/>
<feBlend mode="normal" in="SourceGraphic" in2="effect2_dropShadow_1516_14024" result="shape"/>
<feColorMatrix in="SourceAlpha" type="matrix" values="0 0 0 0 0 0 0 0 0 0 0 0 0 0 0 0 0 0 127 0" result="hardAlpha"/>
<feOffset/>
<feGaussianBlur stdDeviation="5"/>
<feComposite in2="hardAlpha" operator="arithmetic" k2="-1" k3="1"/>
<feColorMatrix type="matrix" values="0 0 0 0 1 0 0 0 0 0.34902 0 0 0 0 0.368627 0 0 0 0.7 0"/>
<feBlend mode="normal" in2="shape" result="effect3_innerShadow_1516_14024"/>
</filter>
<filter id="filter1_f_1516_14024" x="9" y="7" width="46" height="51" filterUnits="userSpaceOnUse" color-interpolation-filters="sRGB">
<feFlood flood-opacity="0" result="BackgroundImageFix"/>
<feBlend mode="normal" in="SourceGraphic" in2="BackgroundImageFix" result="shape"/>
<feGaussianBlur stdDeviation="1.5" result="effect1_foregroundBlur_1516_14024"/>
</filter>
<filter id="filter2_d_1516_14024" x="18" y="24" width="29" height="22.8417" filterUnits="userSpaceOnUse" color-interpolation-filters="sRGB">
<feFlood flood-opacity="0" result="BackgroundImageFix"/>
<feColorMatrix in="SourceAlpha" type="matrix" values="0 0 0 0 0 0 0 0 0 0 0 0 0 0 0 0 0 0 127 0" result="hardAlpha"/>
<feOffset dy="4"/>
<feGaussianBlur stdDeviation="2"/>
<feComposite in2="hardAlpha" operator="out"/>
<feColorMatrix type="matrix" values="0 0 0 0 0 0 0 0 0 0 0 0 0 0 0 0 0 0 0.25 0"/>
<feBlend mode="normal" in2="BackgroundImageFix" result="effect1_dropShadow_1516_14024"/>
<feBlend mode="normal" in="SourceGraphic" in2="effect1_dropShadow_1516_14024" result="shape"/>
</filter>
<linearGradient id="paint0_linear_1516_14024" x1="12" y1="49" x2="12" y2="10" gradientUnits="userSpaceOnUse">
<stop/>
<stop offset="1" stop-color="#FF595E"/>
</linearGradient>
<linearGradient id="paint1_linear_1516_14024" x1="32" y1="10" x2="32" y2="42.5" gradientUnits="userSpaceOnUse">
<stop stop-color="white"/>
<stop offset="1" stop-color="#FF595E"/>
</linearGradient>
<linearGradient id="paint2_linear_1516_14024" x1="32" y1="10" x2="32" y2="55" gradientUnits="userSpaceOnUse">
<stop stop-color="white" stop-opacity="0"/>
<stop offset="1" stop-color="white"/>
</linearGradient>
<linearGradient id="paint3_linear_1516_14024" x1="32.5" y1="24" x2="32.5" y2="38.8416" gradientUnits="userSpaceOnUse">
<stop stop-color="white"/>
<stop offset="1" stop-color="#FF595E"/>
</linearGradient>
</defs>
</svg>
