<svg width="64" height="64" viewBox="0 0 64 64" fill="none" xmlns="http://www.w3.org/2000/svg">
<g filter="url(#filter0_ddi_1516_14057)">
<path fill-rule="evenodd" clip-rule="evenodd" d="M36.3409 49.3418L32.0078 55L27.6787 49.3477C18.7129 47.3789 12 39.4314 12 29.9127C12 18.9156 20.9541 10 32 10C43.0459 10 52 18.9156 52 29.9127C52 39.4245 45.2969 47.366 36.3409 49.3418Z" fill="url(#paint0_linear_1516_14057)" fill-opacity="0.502" shape-rendering="crispEdges"/>
<path d="M32 11.5C42.2237 11.5 50.5 19.7506 50.5 29.9131C50.4998 38.6999 44.3067 46.0483 36.0176 47.877C35.7154 47.9436 35.442 48.1015 35.2344 48.3281L35.1504 48.4297L32.0068 52.5332L28.8691 48.4355C28.6807 48.1896 28.4215 48.0092 28.1279 47.917L28 47.8828L27.6133 47.793C19.5102 45.8302 13.5002 38.5691 13.5 29.9131C13.5 19.7506 21.7763 11.5 32 11.5Z" stroke="url(#paint1_linear_1516_14057)" stroke-width="3" stroke-linejoin="round" shape-rendering="crispEdges"/>
</g>
<g filter="url(#filter1_f_1516_14057)">
<path d="M32 10.5C42.7718 10.5 51.5 19.1942 51.5 29.9131C51.4998 39.183 44.9669 46.9267 36.2334 48.8535C36.1471 48.8726 36.0674 48.9137 36.0029 48.9727L35.9443 49.0381L32.0068 54.1777L28.0752 49.0439C28.0214 48.9738 27.9508 48.9192 27.8701 48.8857L27.7861 48.8594L27.3779 48.7646C18.8401 46.6965 12.5002 39.045 12.5 29.9131C12.5 19.1942 21.2282 10.5 32 10.5Z" stroke="white" stroke-linejoin="round"/>
</g>
<path d="M32 10.4004C42.8267 10.4004 51.5996 19.1385 51.5996 29.9131C51.5994 39.2314 45.0329 47.0146 36.2549 48.9512C36.1857 48.9664 36.1219 48.9995 36.0703 49.0469L36.0234 49.0986L32.0068 54.3418L27.9961 49.1045C27.953 49.0482 27.8958 49.0053 27.8311 48.9785L27.7646 48.957L27.3545 48.8623C18.7731 46.7837 12.4006 39.0927 12.4004 29.9131C12.4004 19.1385 21.1733 10.4004 32 10.4004Z" stroke="url(#paint2_linear_1516_14057)" stroke-width="0.8" stroke-linejoin="round"/>
<g filter="url(#filter2_d_1516_14057)">
<path fill-rule="evenodd" clip-rule="evenodd" d="M29.3724 22.3989L29.5325 22.4108C29.6854 22.4108 29.8354 22.4273 29.9839 22.4602L30.2023 22.5201C30.8802 22.6897 31.4662 23.1261 31.8341 23.7353C32.202 24.3445 32.3224 25.0778 32.1693 25.7773L31.6161 28.0276L31.4894 28.674L31.6539 28.9239L31.7122 29.0226L32.6933 30.8248C32.2516 31.6167 32 32.5289 32 33.5C32 35.1769 32.7504 36.6785 33.9338 37.6873C33.7365 37.8601 33.4925 37.9697 33.2322 37.9999H33.0764C32.8099 38.0033 32.5486 37.9241 32.3266 37.7725C32.1938 37.6863 32.081 37.5714 31.996 37.4357C31.911 37.3 31.8558 37.1468 31.8345 36.987C31.6848 35.6796 31.4192 34.3889 31.0409 33.1312L30.2824 31.7487L30.2037 31.6993C27.845 30.4096 27.5436 28.7847 27.7751 27.5847L28.1595 25.9L27.7853 26.2621L26.4895 29.0181C26.3478 29.2668 26.1208 29.452 25.8529 29.5373C25.5851 29.6226 25.2959 29.6018 25.0422 29.479C24.9163 29.4282 24.8021 29.3513 24.7066 29.2529C24.6111 29.1545 24.5365 29.0369 24.4875 28.9074C24.439 28.7785 24.4178 28.6404 24.4253 28.5023C24.4329 28.3643 24.4689 28.2295 24.5312 28.1069L25.8066 25.3778C25.8911 25.2088 25.9974 25.0532 26.1226 24.9125L28.3444 22.7699C28.6313 22.5216 28.9982 22.3899 29.3724 22.3989ZM33.8338 29.4C34.1688 29.1003 34.5408 28.841 34.942 28.6298C34.9636 28.564 34.9794 28.4961 34.989 28.427C35.0127 28.2558 34.998 28.0813 34.9459 27.9169L34.9168 27.9109C34.8353 27.6596 34.6591 27.4501 34.4261 27.3304L32.4576 26.3339L31.9451 28.4466L33.5758 29.3233C33.6582 29.3611 33.745 29.3869 33.8338 29.4ZM27.4446 29.5583L27.6601 29.9966C28.0037 30.6729 28.5279 31.2385 29.1744 31.6275L29.3214 31.7083L28.7798 33.2315C28.6212 33.6302 28.4277 34.0133 28.2017 34.3761L26.341 37.1665C26.1961 37.4169 25.9689 37.6058 25.7003 37.6992L25.5649 37.7396L25.4339 37.7455L25.3014 37.7396C25.0412 37.7412 24.7868 37.6614 24.5719 37.5106C24.439 37.4288 24.3234 37.3205 24.2318 37.192C24.1403 37.0635 24.0748 36.9175 24.039 36.7625C23.9981 36.6119 23.9892 36.4541 24.0131 36.2996C24.037 36.1452 24.093 35.9979 24.1774 35.8678L26.1444 33.0489C26.2769 32.8798 26.3832 32.6898 26.4604 32.4893L27.4446 29.5598V29.5583ZM31.3569 18C31.9495 18 32.5173 18.2394 32.9367 18.6628C33.1435 18.8712 33.308 19.1198 33.4205 19.3942C33.533 19.6685 33.5912 19.9631 33.5919 20.2608C33.58 20.8587 33.3379 21.4274 32.9187 21.8422C32.4995 22.257 31.9373 22.4841 31.3554 22.4737C30.7741 22.4829 30.2128 22.2551 29.7945 21.8401C29.3762 21.4251 29.1349 20.8567 29.1234 20.2593C29.1234 19.6608 29.3593 19.0848 29.7786 18.6613C30.1996 18.2372 30.7658 17.9997 31.3554 18H31.3569ZM42 33.4121C42 35.8585 40.0168 37.8416 37.5704 37.8416C35.124 37.8416 33.1409 35.8585 33.1409 33.4121C33.1409 30.9657 35.124 28.9825 37.5704 28.9825C40.0168 28.9825 42 30.9657 42 33.4121ZM35.6542 31.1979H34.6317C34.53 31.1979 34.4325 31.2329 34.3606 31.2952C34.2887 31.3574 34.2483 31.4419 34.2483 31.53V35.2691C34.2483 35.3572 34.2887 35.4417 34.3606 35.504C34.4325 35.5663 34.53 35.6013 34.6317 35.6013C34.7334 35.6013 34.8309 35.5663 34.9028 35.504C34.9747 35.4417 35.0151 35.3572 35.0151 35.2691V33.6194H35.6542C35.8412 33.6243 36.0276 33.5966 36.2021 33.5379C36.3766 33.4793 36.5357 33.3909 36.67 33.278C36.8044 33.1651 36.9112 33.0299 36.9841 32.8806C37.057 32.7313 37.0946 32.5708 37.0946 32.4086C37.0946 32.2465 37.057 32.086 36.9841 31.9366C36.9112 31.7873 36.8044 31.6522 36.67 31.5392C36.5357 31.4263 36.3766 31.3379 36.2021 31.2793C36.0276 31.2206 35.8412 31.193 35.6542 31.1979ZM35.6542 32.9628H35.0151V31.8556H35.6542C35.8236 31.8556 35.9862 31.9139 36.106 32.0177C36.2259 32.1215 36.2932 32.2623 36.2932 32.4092C36.2932 32.556 36.2259 32.6968 36.106 32.8006C35.9862 32.9045 35.8236 32.9628 35.6542 32.9628ZM40.8392 35.0997L39.5867 33.3016L39.9574 32.8111H40.0468C40.1488 32.8146 40.2497 32.7916 40.3365 32.7451C40.4233 32.6985 40.492 32.6305 40.5338 32.5498L40.8494 31.9386C40.8779 31.8832 40.8926 31.8232 40.8926 31.7625C40.8926 31.7019 40.8779 31.6419 40.8494 31.5865L40.4302 32.2132C40.4244 32.2216 40.4161 32.2285 40.4063 32.2334C40.3964 32.2382 40.3853 32.2408 40.374 32.2409C40.3627 32.2409 40.3516 32.2383 40.342 32.2331C40.3348 32.2297 40.3284 32.225 40.3233 32.2193C40.3181 32.2137 40.3144 32.2072 40.3122 32.2003C40.3101 32.1934 40.3096 32.1861 40.3108 32.179C40.3119 32.1719 40.3147 32.1651 40.319 32.1589L40.7727 31.4802L40.7536 31.4581L40.6488 31.3628C40.6296 31.3458 40.6091 31.3299 40.5874 31.3152L40.0967 32.0493C40.091 32.0576 40.083 32.0644 40.0733 32.069C40.0637 32.0737 40.0528 32.0761 40.0417 32.0759C40.0321 32.078 40.0221 32.0784 40.0123 32.077C40.005 32.0734 39.9986 32.0687 39.9935 32.0629C39.9883 32.0572 39.9846 32.0506 39.9824 32.0436C39.9803 32.0366 39.9798 32.0292 39.981 32.022C39.9821 32.0148 39.985 32.0079 39.9893 32.0017L40.4801 31.2676C40.4543 31.2582 40.4279 31.2504 40.4008 31.2444L40.2615 31.2156C40.2492 31.2145 40.2368 31.2145 40.2245 31.2156L39.7682 31.8976C39.7623 31.906 39.7541 31.913 39.7442 31.9178C39.7344 31.9226 39.7233 31.9252 39.712 31.9253C39.7007 31.9254 39.6896 31.9227 39.68 31.9176C39.6727 31.914 39.6663 31.9092 39.6612 31.9035C39.656 31.8977 39.6523 31.8912 39.6501 31.8841C39.648 31.8771 39.6475 31.8698 39.6487 31.8626C39.6498 31.8554 39.6527 31.8485 39.657 31.8423L40.0788 31.2123C40.0091 31.2192 39.9418 31.2386 39.8811 31.269C39.8204 31.2995 39.7676 31.3405 39.726 31.3894L39.2672 31.9342C39.2079 32.0056 39.1746 32.0908 39.1714 32.1787C39.1682 32.2667 39.1953 32.3535 39.2493 32.428L39.2928 32.4889L39.1496 32.6782L38.1579 31.3019C38.1348 31.27 38.1028 31.2437 38.0648 31.2255C38.0268 31.2073 37.984 31.1978 37.9406 31.1979H37.5712C37.5034 31.1979 37.4384 31.2212 37.3905 31.2627C37.3426 31.3042 37.3156 31.3606 37.3156 31.4193V31.8002C37.3153 31.839 37.3268 31.8772 37.3489 31.9109L38.2179 33.2208C38.2505 33.2698 38.3034 33.3061 38.3659 33.3224C38.4284 33.3386 38.4957 33.3336 38.5541 33.3082L38.6627 33.2617L38.6819 33.2883L37.2977 35.1164C37.2605 35.167 37.2398 35.2255 37.2379 35.2856C37.236 35.3456 37.253 35.405 37.2869 35.4574C37.3209 35.5098 37.3706 35.5532 37.4308 35.583C37.491 35.6128 37.5594 35.628 37.6287 35.6268C37.6906 35.6254 37.7511 35.6111 37.8052 35.5851C37.8593 35.5591 37.9053 35.5221 37.9393 35.4773L39.1202 33.9161L40.1823 35.4397C40.2164 35.4887 40.2646 35.5292 40.3222 35.5573C40.3797 35.5855 40.4447 35.6002 40.5107 35.6002C40.5781 35.5999 40.6442 35.5842 40.7024 35.5547C40.7605 35.5252 40.8087 35.483 40.842 35.4322C40.8753 35.3815 40.8925 35.324 40.8921 35.2657C40.8916 35.2073 40.8733 35.1501 40.8392 35.0997Z" fill="url(#paint3_linear_1516_14057)"/>
</g>
<defs>
<filter id="filter0_ddi_1516_14057" x="8" y="6" width="48" height="57" filterUnits="userSpaceOnUse" color-interpolation-filters="sRGB">
<feFlood flood-opacity="0" result="BackgroundImageFix"/>
<feColorMatrix in="SourceAlpha" type="matrix" values="0 0 0 0 0 0 0 0 0 0 0 0 0 0 0 0 0 0 127 0" result="hardAlpha"/>
<feOffset dy="4"/>
<feGaussianBlur stdDeviation="2"/>
<feComposite in2="hardAlpha" operator="out"/>
<feColorMatrix type="matrix" values="0 0 0 0 0 0 0 0 0 0 0 0 0 0 0 0 0 0 0.25 0"/>
<feBlend mode="normal" in2="BackgroundImageFix" result="effect1_dropShadow_1516_14057"/>
<feColorMatrix in="SourceAlpha" type="matrix" values="0 0 0 0 0 0 0 0 0 0 0 0 0 0 0 0 0 0 127 0" result="hardAlpha"/>
<feOffset/>
<feGaussianBlur stdDeviation="2"/>
<feComposite in2="hardAlpha" operator="out"/>
<feColorMatrix type="matrix" values="0 0 0 0 0.278431 0 0 0 0 0.945098 0 0 0 0 0.533333 0 0 0 0.3 0"/>
<feBlend mode="normal" in2="effect1_dropShadow_1516_14057" result="effect2_dropShadow_1516_14057"/>
<feBlend mode="normal" in="SourceGraphic" in2="effect2_dropShadow_1516_14057" result="shape"/>
<feColorMatrix in="SourceAlpha" type="matrix" values="0 0 0 0 0 0 0 0 0 0 0 0 0 0 0 0 0 0 127 0" result="hardAlpha"/>
<feOffset/>
<feGaussianBlur stdDeviation="5"/>
<feComposite in2="hardAlpha" operator="arithmetic" k2="-1" k3="1"/>
<feColorMatrix type="matrix" values="0 0 0 0 0.278431 0 0 0 0 0.945098 0 0 0 0 0.533333 0 0 0 0.7 0"/>
<feBlend mode="normal" in2="shape" result="effect3_innerShadow_1516_14057"/>
</filter>
<filter id="filter1_f_1516_14057" x="9" y="7" width="46" height="51" filterUnits="userSpaceOnUse" color-interpolation-filters="sRGB">
<feFlood flood-opacity="0" result="BackgroundImageFix"/>
<feBlend mode="normal" in="SourceGraphic" in2="BackgroundImageFix" result="shape"/>
<feGaussianBlur stdDeviation="1.5" result="effect1_foregroundBlur_1516_14057"/>
</filter>
<filter id="filter2_d_1516_14057" x="20" y="18" width="26" height="28" filterUnits="userSpaceOnUse" color-interpolation-filters="sRGB">
<feFlood flood-opacity="0" result="BackgroundImageFix"/>
<feColorMatrix in="SourceAlpha" type="matrix" values="0 0 0 0 0 0 0 0 0 0 0 0 0 0 0 0 0 0 127 0" result="hardAlpha"/>
<feOffset dy="4"/>
<feGaussianBlur stdDeviation="2"/>
<feComposite in2="hardAlpha" operator="out"/>
<feColorMatrix type="matrix" values="0 0 0 0 0 0 0 0 0 0 0 0 0 0 0 0 0 0 0.25 0"/>
<feBlend mode="normal" in2="BackgroundImageFix" result="effect1_dropShadow_1516_14057"/>
<feBlend mode="normal" in="SourceGraphic" in2="effect1_dropShadow_1516_14057" result="shape"/>
</filter>
<linearGradient id="paint0_linear_1516_14057" x1="12" y1="49" x2="12" y2="10" gradientUnits="userSpaceOnUse">
<stop/>
<stop offset="1" stop-color="#47F188"/>
</linearGradient>
<linearGradient id="paint1_linear_1516_14057" x1="32" y1="10" x2="32" y2="43.5" gradientUnits="userSpaceOnUse">
<stop stop-color="white"/>
<stop offset="1" stop-color="#47F188"/>
</linearGradient>
<linearGradient id="paint2_linear_1516_14057" x1="32" y1="10" x2="32" y2="55" gradientUnits="userSpaceOnUse">
<stop stop-color="white" stop-opacity="0"/>
<stop offset="1" stop-color="white"/>
</linearGradient>
<linearGradient id="paint3_linear_1516_14057" x1="33.0001" y1="18" x2="33.0001" y2="35.3978" gradientUnits="userSpaceOnUse">
<stop stop-color="white"/>
<stop offset="1" stop-color="#47F188"/>
</linearGradient>
</defs>
</svg>
