<svg width="64" height="64" viewBox="0 0 64 64" fill="none" xmlns="http://www.w3.org/2000/svg">
<g filter="url(#filter0_ddi_1516_13994)">
<path fill-rule="evenodd" clip-rule="evenodd" d="M36.3409 49.3418L32.0078 55L27.6787 49.3477C18.7129 47.3789 12 39.4314 12 29.9127C12 18.9156 20.9541 10 32 10C43.0459 10 52 18.9156 52 29.9127C52 39.4245 45.2969 47.366 36.3409 49.3418Z" fill="url(#paint0_linear_1516_13994)" fill-opacity="0.502" shape-rendering="crispEdges"/>
<path d="M32 11.5C42.2237 11.5 50.5 19.7506 50.5 29.9131C50.4998 38.6999 44.3067 46.0483 36.0176 47.877C35.7154 47.9436 35.442 48.1015 35.2344 48.3281L35.1504 48.4297L32.0068 52.5332L28.8691 48.4355C28.6807 48.1896 28.4215 48.0092 28.1279 47.917L28 47.8828L27.6133 47.793C19.5102 45.8302 13.5002 38.5691 13.5 29.9131C13.5 19.7506 21.7763 11.5 32 11.5Z" stroke="url(#paint1_linear_1516_13994)" stroke-width="3" stroke-linejoin="round" shape-rendering="crispEdges"/>
</g>
<g filter="url(#filter1_f_1516_13994)">
<path d="M32 10.5C42.7718 10.5 51.5 19.1942 51.5 29.9131C51.4998 39.183 44.9669 46.9267 36.2334 48.8535C36.1471 48.8726 36.0674 48.9137 36.0029 48.9727L35.9443 49.0381L32.0068 54.1777L28.0752 49.0439C28.0214 48.9738 27.9508 48.9192 27.8701 48.8857L27.7861 48.8594L27.3779 48.7646C18.8401 46.6965 12.5002 39.045 12.5 29.9131C12.5 19.1942 21.2282 10.5 32 10.5Z" stroke="white" stroke-linejoin="round"/>
</g>
<path d="M32 10.4004C42.8267 10.4004 51.5996 19.1385 51.5996 29.9131C51.5994 39.2314 45.0329 47.0146 36.2549 48.9512C36.1857 48.9664 36.1219 48.9995 36.0703 49.0469L36.0234 49.0986L32.0068 54.3418L27.9961 49.1045C27.953 49.0482 27.8958 49.0053 27.8311 48.9785L27.7646 48.957L27.3545 48.8623C18.7731 46.7837 12.4006 39.0927 12.4004 29.9131C12.4004 19.1385 21.1733 10.4004 32 10.4004Z" stroke="url(#paint2_linear_1516_13994)" stroke-width="0.8" stroke-linejoin="round"/>
<g filter="url(#filter2_d_1516_13994)">
<path fill-rule="evenodd" clip-rule="evenodd" d="M30.9927 34.971H26.2362C25.9155 34.9723 25.9128 34.9764 25.9194 35.2943C25.934 35.9058 25.8469 35.9978 25.2529 35.9978C24.9907 35.9978 24.7284 35.9979 24.466 35.9981L24.4609 35.9981C23.9325 35.9984 23.404 35.9987 22.876 35.9978C22.4774 35.9964 22.3388 35.8706 22.3388 35.4661L22.3393 34.575C22.3399 32.7928 22.3405 31.0106 22.3586 29.2284C22.3639 28.7211 22.6015 28.2801 22.9024 27.8824C22.9215 27.8572 22.9391 27.8341 22.9553 27.813C23.049 27.6905 23.0939 27.6318 23.0827 27.5872C23.0724 27.5462 23.0146 27.5172 22.9038 27.4615C22.8735 27.4462 22.8392 27.429 22.8008 27.4089C22.7243 27.369 22.6483 27.3284 22.5724 27.2878L22.5724 27.2878C22.4348 27.2143 22.2975 27.141 22.158 27.0721C22.0287 27.0085 21.9759 26.9165 22.0102 26.7745C22.027 26.7042 22.043 26.6336 22.059 26.563L22.059 26.563C22.0961 26.4 22.1331 26.2369 22.1792 26.0764C22.2412 25.8654 22.4589 25.7234 22.6978 25.722L22.6991 25.722H22.6992C23.2253 25.7193 23.7501 25.7166 24.2763 25.722C24.3938 25.7234 24.473 25.6936 24.5455 25.5881C25.0286 24.8968 25.5156 24.2082 26.0092 23.5251C26.1728 23.2965 26.3946 23.1531 26.681 23.1368C29.0751 22.9948 31.4705 22.9529 33.8672 23.0611C34.0812 23.0702 34.2948 23.0818 34.5085 23.0934C34.7693 23.1076 35.0301 23.1218 35.2913 23.1314C35.5988 23.1436 35.8232 23.3019 35.9947 23.5386C36.4659 24.1893 36.9278 24.8468 37.3871 25.5069C37.498 25.6638 37.622 25.7301 37.8147 25.7247C38.1403 25.7157 38.4658 25.7175 38.7913 25.7193H38.7913C38.9541 25.7202 39.1169 25.7211 39.2797 25.7207C39.5542 25.7193 39.764 25.8762 39.838 26.1535C39.8579 26.2282 39.8753 26.3037 39.8927 26.3792C39.9191 26.4937 39.9455 26.6081 39.9805 26.719C40.0412 26.9111 39.9541 27.0126 39.8036 27.091L39.6609 27.1638L39.6609 27.1639C39.4703 27.2609 39.2794 27.3581 39.0936 27.463C38.8758 27.5848 38.8719 27.6037 39.0289 27.8094C39.0885 27.887 39.1478 27.965 39.2043 28.0447C38.9737 28.0152 38.7386 28 38.5 28C35.4624 28 33 30.4624 33 33.5C33 34.0093 33.0692 34.5025 33.1988 34.9705L32.5898 34.9707L32.5794 34.9707C32.0504 34.9708 31.5215 34.971 30.9927 34.971ZM27.4082 27.0707L27.3927 27.0291L27.3927 27.029C27.3787 26.991 27.3679 26.9614 27.3541 26.9341C27.3298 26.8853 27.3014 26.8376 27.273 26.79C27.2147 26.6922 27.1567 26.595 27.1363 26.4904C27.0716 26.1414 27.0201 25.7856 27.0109 25.4312C26.9938 24.7074 27.3778 24.2718 28.0799 24.1974C28.6435 24.1393 29.2928 24.4463 29.3733 25.1214C29.434 25.63 29.3826 26.1333 29.2361 26.623C29.2117 26.706 29.1712 26.7838 29.1263 26.8699C29.1033 26.9141 29.079 26.9606 29.0553 27.0112H29.2519L29.6419 27.006C30.0319 27.0006 30.4219 26.9953 30.8119 26.9923C32.9117 26.9733 35.0062 27.0707 37.102 27.1925C37.1509 27.1953 37.201 27.1803 37.2506 27.1655C37.2721 27.1591 37.2934 27.1527 37.3145 27.1478C37.3086 27.1254 37.3042 27.1017 37.2997 27.078C37.289 27.0216 37.2782 26.9648 37.2485 26.9219C37.0546 26.642 36.8579 26.3639 36.6612 26.0858L36.6611 26.0857C36.2969 25.5708 35.9326 25.0558 35.5856 24.5289C35.3625 24.192 35.0986 24.0405 34.7158 24.073C34.6901 24.0758 34.6636 24.074 34.637 24.0722C34.6255 24.0714 34.6139 24.0707 34.6023 24.0703C34.2666 24.0542 33.9309 24.0337 33.5953 24.0132L33.5953 24.0132C32.8295 23.9665 32.0642 23.9199 31.2989 23.9255C30.3803 23.9317 29.4617 23.9762 28.5431 24.0207L28.5431 24.0207C28.0495 24.0446 27.5559 24.0685 27.0624 24.0865C26.8156 24.0946 26.6453 24.1961 26.5067 24.3949C26.2663 24.739 26.0247 25.0822 25.7831 25.4253L25.7831 25.4254L25.783 25.4255C25.5023 25.8243 25.2216 26.2231 24.9428 26.623C24.8649 26.7353 24.795 26.8535 24.7252 26.9716L24.7252 26.9716L24.7251 26.9717C24.6933 27.0256 24.6614 27.0795 24.6287 27.133C24.6432 27.156 24.6564 27.179 24.6696 27.2033C25.3882 27.1679 26.1061 27.1334 26.8342 27.0984L27.4082 27.0707ZM25.2068 30.3688V30.4121H25.2072C25.6056 30.4121 26.004 30.4121 26.4012 30.4108C26.6163 30.4108 26.6625 30.3661 26.6664 30.1537C26.6691 30.0049 26.6717 29.8548 26.6664 29.706C26.6532 29.3353 26.4289 29.0688 26.0699 29.016C25.2754 28.8997 24.4795 28.7901 23.6824 28.6819C23.466 28.6521 23.3683 28.7347 23.359 28.9552C23.3498 29.1824 23.3458 29.4097 23.3604 29.6356C23.3815 30.0022 23.6771 30.2863 24.0321 30.3052C24.2247 30.3152 24.4175 30.3259 24.6106 30.3366L24.6109 30.3366L24.611 30.3366C24.8094 30.3476 25.0081 30.3585 25.2068 30.3688ZM43 33.4121C43 35.8585 41.0168 37.8416 38.5704 37.8416C36.124 37.8416 34.1409 35.8585 34.1409 33.4121C34.1409 30.9657 36.124 28.9825 38.5704 28.9825C41.0168 28.9825 43 30.9657 43 33.4121ZM36.6542 31.1979H35.6317C35.53 31.1979 35.4325 31.2329 35.3606 31.2952C35.2887 31.3574 35.2483 31.4419 35.2483 31.53V35.2691C35.2483 35.3572 35.2887 35.4417 35.3606 35.504C35.4325 35.5663 35.53 35.6013 35.6317 35.6013C35.7334 35.6013 35.8309 35.5663 35.9028 35.504C35.9747 35.4417 36.0151 35.3572 36.0151 35.2691V33.6194H36.6542C36.8412 33.6243 37.0276 33.5966 37.2021 33.5379C37.3766 33.4793 37.5357 33.3909 37.67 33.278C37.8044 33.1651 37.9112 33.0299 37.9841 32.8806C38.057 32.7313 38.0946 32.5708 38.0946 32.4086C38.0946 32.2465 38.057 32.086 37.9841 31.9366C37.9112 31.7873 37.8044 31.6522 37.67 31.5392C37.5357 31.4263 37.3766 31.3379 37.2021 31.2793C37.0276 31.2206 36.8412 31.193 36.6542 31.1979ZM36.6542 32.9628H36.0151V31.8556H36.6542C36.8236 31.8556 36.9862 31.9139 37.106 32.0177C37.2259 32.1215 37.2932 32.2623 37.2932 32.4092C37.2932 32.556 37.2259 32.6968 37.106 32.8006C36.9862 32.9045 36.8236 32.9628 36.6542 32.9628ZM41.8392 35.0997L40.5867 33.3016L40.9574 32.8111H41.0468C41.1488 32.8146 41.2497 32.7916 41.3365 32.7451C41.4233 32.6985 41.492 32.6305 41.5338 32.5498L41.8494 31.9386C41.8779 31.8832 41.8926 31.8232 41.8926 31.7625C41.8926 31.7019 41.8779 31.6419 41.8494 31.5865L41.4302 32.2132C41.4244 32.2216 41.4161 32.2285 41.4063 32.2334C41.3964 32.2382 41.3853 32.2408 41.374 32.2409C41.3627 32.2409 41.3516 32.2383 41.342 32.2331C41.3348 32.2297 41.3284 32.225 41.3233 32.2193C41.3181 32.2137 41.3144 32.2072 41.3122 32.2003C41.3101 32.1934 41.3096 32.1861 41.3108 32.179C41.3119 32.1719 41.3147 32.1651 41.319 32.1589L41.7727 31.4802L41.7536 31.4581L41.6488 31.3628C41.6296 31.3458 41.6091 31.3299 41.5874 31.3152L41.0967 32.0493C41.091 32.0576 41.083 32.0644 41.0733 32.069C41.0637 32.0737 41.0528 32.0761 41.0417 32.0759C41.0321 32.078 41.0221 32.0784 41.0123 32.077C41.005 32.0734 40.9986 32.0687 40.9935 32.0629C40.9883 32.0572 40.9846 32.0506 40.9824 32.0436C40.9803 32.0366 40.9798 32.0292 40.981 32.022C40.9821 32.0148 40.985 32.0079 40.9893 32.0017L41.4801 31.2676C41.4543 31.2582 41.4279 31.2504 41.4008 31.2444L41.2615 31.2156C41.2492 31.2145 41.2368 31.2145 41.2245 31.2156L40.7682 31.8976C40.7623 31.906 40.7541 31.913 40.7442 31.9178C40.7344 31.9226 40.7233 31.9252 40.712 31.9253C40.7007 31.9254 40.6896 31.9227 40.68 31.9176C40.6727 31.914 40.6663 31.9092 40.6612 31.9035C40.656 31.8977 40.6523 31.8912 40.6501 31.8841C40.648 31.8771 40.6475 31.8698 40.6487 31.8626C40.6498 31.8554 40.6527 31.8485 40.657 31.8423L41.0788 31.2123C41.0091 31.2192 40.9418 31.2386 40.8811 31.269C40.8204 31.2995 40.7676 31.3405 40.726 31.3894L40.2672 31.9342C40.2079 32.0056 40.1746 32.0908 40.1714 32.1787C40.1682 32.2667 40.1953 32.3535 40.2493 32.428L40.2928 32.4889L40.1496 32.6782L39.1579 31.3019C39.1348 31.27 39.1028 31.2437 39.0648 31.2255C39.0268 31.2073 38.984 31.1978 38.9406 31.1979H38.5712C38.5034 31.1979 38.4384 31.2212 38.3905 31.2627C38.3426 31.3042 38.3156 31.3606 38.3156 31.4193V31.8002C38.3153 31.839 38.3268 31.8772 38.3489 31.9109L39.2179 33.2208C39.2505 33.2698 39.3034 33.3061 39.3659 33.3224C39.4284 33.3386 39.4957 33.3336 39.5541 33.3082L39.6627 33.2617L39.6819 33.2883L38.2977 35.1164C38.2605 35.167 38.2398 35.2255 38.2379 35.2856C38.236 35.3456 38.253 35.405 38.2869 35.4574C38.3209 35.5098 38.3706 35.5532 38.4308 35.583C38.491 35.6128 38.5594 35.628 38.6287 35.6268C38.6906 35.6254 38.7511 35.6111 38.8052 35.5851C38.8593 35.5591 38.9053 35.5221 38.9393 35.4773L40.1202 33.9161L41.1823 35.4397C41.2164 35.4887 41.2646 35.5292 41.3222 35.5573C41.3797 35.5855 41.4447 35.6002 41.5107 35.6002C41.5781 35.5999 41.6442 35.5842 41.7024 35.5547C41.7605 35.5252 41.8087 35.483 41.842 35.4322C41.8753 35.3815 41.8925 35.324 41.8921 35.2657C41.8916 35.2073 41.8733 35.1501 41.8392 35.0997Z" fill="url(#paint3_linear_1516_13994)"/>
</g>
<defs>
<filter id="filter0_ddi_1516_13994" x="8" y="6" width="48" height="57" filterUnits="userSpaceOnUse" color-interpolation-filters="sRGB">
<feFlood flood-opacity="0" result="BackgroundImageFix"/>
<feColorMatrix in="SourceAlpha" type="matrix" values="0 0 0 0 0 0 0 0 0 0 0 0 0 0 0 0 0 0 127 0" result="hardAlpha"/>
<feOffset dy="4"/>
<feGaussianBlur stdDeviation="2"/>
<feComposite in2="hardAlpha" operator="out"/>
<feColorMatrix type="matrix" values="0 0 0 0 0 0 0 0 0 0 0 0 0 0 0 0 0 0 0.25 0"/>
<feBlend mode="normal" in2="BackgroundImageFix" result="effect1_dropShadow_1516_13994"/>
<feColorMatrix in="SourceAlpha" type="matrix" values="0 0 0 0 0 0 0 0 0 0 0 0 0 0 0 0 0 0 127 0" result="hardAlpha"/>
<feOffset/>
<feGaussianBlur stdDeviation="2"/>
<feComposite in2="hardAlpha" operator="out"/>
<feColorMatrix type="matrix" values="0 0 0 0 0.278431 0 0 0 0 0.945098 0 0 0 0 0.533333 0 0 0 0.3 0"/>
<feBlend mode="normal" in2="effect1_dropShadow_1516_13994" result="effect2_dropShadow_1516_13994"/>
<feBlend mode="normal" in="SourceGraphic" in2="effect2_dropShadow_1516_13994" result="shape"/>
<feColorMatrix in="SourceAlpha" type="matrix" values="0 0 0 0 0 0 0 0 0 0 0 0 0 0 0 0 0 0 127 0" result="hardAlpha"/>
<feOffset/>
<feGaussianBlur stdDeviation="5"/>
<feComposite in2="hardAlpha" operator="arithmetic" k2="-1" k3="1"/>
<feColorMatrix type="matrix" values="0 0 0 0 0.278431 0 0 0 0 0.945098 0 0 0 0 0.533333 0 0 0 0.7 0"/>
<feBlend mode="normal" in2="shape" result="effect3_innerShadow_1516_13994"/>
</filter>
<filter id="filter1_f_1516_13994" x="9" y="7" width="46" height="51" filterUnits="userSpaceOnUse" color-interpolation-filters="sRGB">
<feFlood flood-opacity="0" result="BackgroundImageFix"/>
<feBlend mode="normal" in="SourceGraphic" in2="BackgroundImageFix" result="shape"/>
<feGaussianBlur stdDeviation="1.5" result="effect1_foregroundBlur_1516_13994"/>
</filter>
<filter id="filter2_d_1516_13994" x="18" y="23" width="29" height="22.8417" filterUnits="userSpaceOnUse" color-interpolation-filters="sRGB">
<feFlood flood-opacity="0" result="BackgroundImageFix"/>
<feColorMatrix in="SourceAlpha" type="matrix" values="0 0 0 0 0 0 0 0 0 0 0 0 0 0 0 0 0 0 127 0" result="hardAlpha"/>
<feOffset dy="4"/>
<feGaussianBlur stdDeviation="2"/>
<feComposite in2="hardAlpha" operator="out"/>
<feColorMatrix type="matrix" values="0 0 0 0 0 0 0 0 0 0 0 0 0 0 0 0 0 0 0.25 0"/>
<feBlend mode="normal" in2="BackgroundImageFix" result="effect1_dropShadow_1516_13994"/>
<feBlend mode="normal" in="SourceGraphic" in2="effect1_dropShadow_1516_13994" result="shape"/>
</filter>
<linearGradient id="paint0_linear_1516_13994" x1="12" y1="49" x2="12" y2="10" gradientUnits="userSpaceOnUse">
<stop/>
<stop offset="1" stop-color="#47F188"/>
</linearGradient>
<linearGradient id="paint1_linear_1516_13994" x1="32" y1="10" x2="32" y2="43.5" gradientUnits="userSpaceOnUse">
<stop stop-color="white"/>
<stop offset="1" stop-color="#47F188"/>
</linearGradient>
<linearGradient id="paint2_linear_1516_13994" x1="32" y1="10" x2="32" y2="55" gradientUnits="userSpaceOnUse">
<stop stop-color="white" stop-opacity="0"/>
<stop offset="1" stop-color="white"/>
</linearGradient>
<linearGradient id="paint3_linear_1516_13994" x1="32.5001" y1="23" x2="32.5001" y2="35.9106" gradientUnits="userSpaceOnUse">
<stop stop-color="white"/>
<stop offset="1" stop-color="#47F188"/>
</linearGradient>
</defs>
</svg>
