<svg width="64" height="64" viewBox="0 0 64 64" fill="none" xmlns="http://www.w3.org/2000/svg">
<g filter="url(#filter0_ddi_1516_14083)">
<path fill-rule="evenodd" clip-rule="evenodd" d="M36.3409 49.3418L32.0078 55L27.6787 49.3477C18.7129 47.3789 12 39.4314 12 29.9127C12 18.9156 20.9541 10 32 10C43.0459 10 52 18.9156 52 29.9127C52 39.4245 45.2969 47.366 36.3409 49.3418Z" fill="url(#paint0_linear_1516_14083)" fill-opacity="0.502" shape-rendering="crispEdges"/>
<path d="M32 11.5C42.2237 11.5 50.5 19.7506 50.5 29.9131C50.4998 38.6999 44.3067 46.0483 36.0176 47.877C35.7154 47.9436 35.442 48.1015 35.2344 48.3281L35.1504 48.4297L32.0068 52.5332L28.8691 48.4355C28.6807 48.1896 28.4215 48.0092 28.1279 47.917L28 47.8828L27.6133 47.793C19.5102 45.8302 13.5002 38.5691 13.5 29.9131C13.5 19.7506 21.7763 11.5 32 11.5Z" stroke="url(#paint1_linear_1516_14083)" stroke-width="3" stroke-linejoin="round" shape-rendering="crispEdges"/>
</g>
<g filter="url(#filter1_f_1516_14083)">
<path d="M32 10.5C42.7718 10.5 51.5 19.1942 51.5 29.9131C51.4998 39.183 44.9669 46.9267 36.2334 48.8535C36.1471 48.8726 36.0674 48.9137 36.0029 48.9727L35.9443 49.0381L32.0068 54.1777L28.0752 49.0439C28.0214 48.9738 27.9508 48.9192 27.8701 48.8857L27.7861 48.8594L27.3779 48.7646C18.8401 46.6965 12.5002 39.045 12.5 29.9131C12.5 19.1942 21.2282 10.5 32 10.5Z" stroke="white" stroke-linejoin="round"/>
</g>
<path d="M32 10.4004C42.8267 10.4004 51.5996 19.1385 51.5996 29.9131C51.5994 39.2314 45.0329 47.0146 36.2549 48.9512C36.1857 48.9664 36.1219 48.9995 36.0703 49.0469L36.0234 49.0986L32.0068 54.3418L27.9961 49.1045C27.953 49.0482 27.8958 49.0053 27.8311 48.9785L27.7646 48.957L27.3545 48.8623C18.7731 46.7837 12.4006 39.0927 12.4004 29.9131C12.4004 19.1385 21.1733 10.4004 32 10.4004Z" stroke="url(#paint2_linear_1516_14083)" stroke-width="0.8" stroke-linejoin="round"/>
<g filter="url(#filter2_d_1516_14083)">
<path fill-rule="evenodd" clip-rule="evenodd" d="M29.3724 23.3989L29.5325 23.4108C29.6854 23.4108 29.8354 23.4273 29.9839 23.4602L30.2023 23.5201C30.8802 23.6897 31.4662 24.1261 31.8341 24.7353C32.202 25.3445 32.3224 26.0778 32.1693 26.7773L31.6161 29.0276L31.4894 29.674L31.6539 29.9239L31.7122 30.0226L32.6933 31.8248C32.2516 32.6167 32 33.5289 32 34.5C32 36.1769 32.7504 37.6785 33.9338 38.6873C33.7365 38.8601 33.4925 38.9697 33.2322 38.9999H33.0764C32.8099 39.0033 32.5486 38.9241 32.3266 38.7725C32.1938 38.6863 32.081 38.5714 31.996 38.4357C31.911 38.3 31.8558 38.1468 31.8345 37.987C31.6848 36.6796 31.4192 35.3889 31.0409 34.1312L30.2824 32.7487L30.2037 32.6993C27.845 31.4096 27.5436 29.7847 27.7751 28.5847L28.1595 26.9L27.7853 27.2621L26.4895 30.0181C26.3478 30.2668 26.1208 30.452 25.8529 30.5373C25.5851 30.6226 25.2959 30.6018 25.0422 30.479C24.9163 30.4282 24.8021 30.3513 24.7066 30.2529C24.6111 30.1545 24.5365 30.0369 24.4875 29.9074C24.439 29.7785 24.4178 29.6404 24.4253 29.5023C24.4329 29.3643 24.4689 29.2295 24.5312 29.1069L25.8066 26.3778C25.8911 26.2088 25.9974 26.0532 26.1226 25.9125L28.3444 23.7699C28.6313 23.5216 28.9982 23.3899 29.3724 23.3989ZM33.8338 30.4C34.1688 30.1003 34.5408 29.841 34.942 29.6298C34.9636 29.564 34.9794 29.4961 34.989 29.427C35.0127 29.2558 34.998 29.0813 34.9459 28.9169L34.9168 28.9109C34.8353 28.6596 34.6591 28.4501 34.4261 28.3304L32.4576 27.3339L31.9451 29.4466L33.5758 30.3233C33.6582 30.3611 33.745 30.3869 33.8338 30.4ZM27.4446 30.5583L27.6601 30.9966C28.0037 31.6729 28.5279 32.2385 29.1744 32.6275L29.3214 32.7083L28.7798 34.2315C28.6212 34.6302 28.4277 35.0133 28.2017 35.3761L26.341 38.1665C26.1961 38.4169 25.9689 38.6058 25.7003 38.6992L25.5649 38.7396L25.4339 38.7455L25.3014 38.7396C25.0412 38.7412 24.7868 38.6614 24.5719 38.5106C24.439 38.4288 24.3234 38.3205 24.2318 38.192C24.1403 38.0635 24.0748 37.9175 24.039 37.7625C23.9981 37.6119 23.9892 37.4541 24.0131 37.2996C24.037 37.1452 24.093 36.9979 24.1774 36.8678L26.1444 34.0489C26.2769 33.8798 26.3832 33.6898 26.4604 33.4893L27.4446 30.5598V30.5583ZM31.3569 19C31.9495 19 32.5173 19.2394 32.9367 19.6628C33.1435 19.8712 33.308 20.1198 33.4205 20.3942C33.533 20.6685 33.5912 20.9631 33.5919 21.2608C33.58 21.8587 33.3379 22.4274 32.9187 22.8422C32.4995 23.257 31.9373 23.4841 31.3554 23.4737C30.7741 23.4829 30.2128 23.2551 29.7945 22.8401C29.3762 22.4251 29.1349 21.8567 29.1234 21.2593C29.1234 20.6608 29.3593 20.0848 29.7786 19.6613C30.1996 19.2372 30.7658 18.9997 31.3554 19H31.3569ZM42 34.4121C42 36.8585 40.0168 38.8416 37.5704 38.8416C35.124 38.8416 33.1409 36.8585 33.1409 34.4121C33.1409 31.9657 35.124 29.9825 37.5704 29.9825C40.0168 29.9825 42 31.9657 42 34.4121ZM35.6542 32.1979H34.6317C34.53 32.1979 34.4325 32.2329 34.3606 32.2952C34.2887 32.3574 34.2483 32.4419 34.2483 32.53V36.2691C34.2483 36.3572 34.2887 36.4417 34.3606 36.504C34.4325 36.5663 34.53 36.6013 34.6317 36.6013C34.7334 36.6013 34.8309 36.5663 34.9028 36.504C34.9747 36.4417 35.0151 36.3572 35.0151 36.2691V34.6194H35.6542C35.8412 34.6243 36.0276 34.5966 36.2021 34.5379C36.3766 34.4793 36.5357 34.3909 36.67 34.278C36.8044 34.1651 36.9112 34.0299 36.9841 33.8806C37.057 33.7313 37.0946 33.5708 37.0946 33.4086C37.0946 33.2465 37.057 33.086 36.9841 32.9366C36.9112 32.7873 36.8044 32.6522 36.67 32.5392C36.5357 32.4263 36.3766 32.3379 36.2021 32.2793C36.0276 32.2206 35.8412 32.193 35.6542 32.1979ZM35.6542 33.9628H35.0151V32.8556H35.6542C35.8236 32.8556 35.9862 32.9139 36.106 33.0177C36.2259 33.1215 36.2932 33.2623 36.2932 33.4092C36.2932 33.556 36.2259 33.6968 36.106 33.8006C35.9862 33.9045 35.8236 33.9628 35.6542 33.9628ZM40.8392 36.0997L39.5867 34.3016L39.9574 33.8111H40.0468C40.1488 33.8146 40.2497 33.7916 40.3365 33.7451C40.4233 33.6985 40.492 33.6305 40.5338 33.5498L40.8494 32.9386C40.8779 32.8832 40.8926 32.8232 40.8926 32.7625C40.8926 32.7019 40.8779 32.6419 40.8494 32.5865L40.4302 33.2132C40.4244 33.2216 40.4161 33.2285 40.4063 33.2334C40.3964 33.2382 40.3853 33.2408 40.374 33.2409C40.3627 33.2409 40.3516 33.2383 40.342 33.2331C40.3348 33.2297 40.3284 33.225 40.3233 33.2193C40.3181 33.2137 40.3144 33.2072 40.3122 33.2003C40.3101 33.1934 40.3096 33.1861 40.3108 33.179C40.3119 33.1719 40.3147 33.1651 40.319 33.1589L40.7727 32.4802L40.7536 32.4581L40.6488 32.3628C40.6296 32.3458 40.6091 32.3299 40.5874 32.3152L40.0967 33.0493C40.091 33.0576 40.083 33.0644 40.0733 33.069C40.0637 33.0737 40.0528 33.0761 40.0417 33.0759C40.0321 33.078 40.0221 33.0784 40.0123 33.077C40.005 33.0734 39.9986 33.0687 39.9935 33.0629C39.9883 33.0572 39.9846 33.0506 39.9824 33.0436C39.9803 33.0366 39.9798 33.0292 39.981 33.022C39.9821 33.0148 39.985 33.0079 39.9893 33.0017L40.4801 32.2676C40.4543 32.2582 40.4279 32.2504 40.4008 32.2444L40.2615 32.2156C40.2492 32.2145 40.2368 32.2145 40.2245 32.2156L39.7682 32.8976C39.7623 32.906 39.7541 32.913 39.7442 32.9178C39.7344 32.9226 39.7233 32.9252 39.712 32.9253C39.7007 32.9254 39.6896 32.9227 39.68 32.9176C39.6727 32.914 39.6663 32.9092 39.6612 32.9035C39.656 32.8977 39.6523 32.8912 39.6501 32.8841C39.648 32.8771 39.6475 32.8698 39.6487 32.8626C39.6498 32.8554 39.6527 32.8485 39.657 32.8423L40.0788 32.2123C40.0091 32.2192 39.9418 32.2386 39.8811 32.269C39.8204 32.2995 39.7676 32.3405 39.726 32.3894L39.2672 32.9342C39.2079 33.0056 39.1746 33.0908 39.1714 33.1787C39.1682 33.2667 39.1953 33.3535 39.2493 33.428L39.2928 33.4889L39.1496 33.6782L38.1579 32.3019C38.1348 32.27 38.1028 32.2437 38.0648 32.2255C38.0268 32.2073 37.984 32.1978 37.9406 32.1979H37.5712C37.5034 32.1979 37.4384 32.2212 37.3905 32.2627C37.3426 32.3042 37.3156 32.3606 37.3156 32.4193V32.8002C37.3153 32.839 37.3268 32.8772 37.3489 32.9109L38.2179 34.2208C38.2505 34.2698 38.3034 34.3061 38.3659 34.3224C38.4284 34.3386 38.4957 34.3336 38.5541 34.3082L38.6627 34.2617L38.6819 34.2883L37.2977 36.1164C37.2605 36.167 37.2398 36.2255 37.2379 36.2856C37.236 36.3456 37.253 36.405 37.2869 36.4574C37.3209 36.5098 37.3706 36.5532 37.4308 36.583C37.491 36.6128 37.5594 36.628 37.6287 36.6268C37.6906 36.6254 37.7511 36.6111 37.8052 36.5851C37.8593 36.5591 37.9053 36.5221 37.9393 36.4773L39.1202 34.9161L40.1823 36.4397C40.2164 36.4887 40.2646 36.5292 40.3222 36.5573C40.3797 36.5855 40.4447 36.6002 40.5107 36.6002C40.5781 36.5999 40.6442 36.5842 40.7024 36.5547C40.7605 36.5252 40.8087 36.483 40.842 36.4322C40.8753 36.3815 40.8925 36.324 40.8921 36.2657C40.8916 36.2073 40.8733 36.1501 40.8392 36.0997Z" fill="url(#paint3_linear_1516_14083)"/>
</g>
<defs>
<filter id="filter0_ddi_1516_14083" x="8" y="6" width="48" height="57" filterUnits="userSpaceOnUse" color-interpolation-filters="sRGB">
<feFlood flood-opacity="0" result="BackgroundImageFix"/>
<feColorMatrix in="SourceAlpha" type="matrix" values="0 0 0 0 0 0 0 0 0 0 0 0 0 0 0 0 0 0 127 0" result="hardAlpha"/>
<feOffset dy="4"/>
<feGaussianBlur stdDeviation="2"/>
<feComposite in2="hardAlpha" operator="out"/>
<feColorMatrix type="matrix" values="0 0 0 0 0 0 0 0 0 0 0 0 0 0 0 0 0 0 0.25 0"/>
<feBlend mode="normal" in2="BackgroundImageFix" result="effect1_dropShadow_1516_14083"/>
<feColorMatrix in="SourceAlpha" type="matrix" values="0 0 0 0 0 0 0 0 0 0 0 0 0 0 0 0 0 0 127 0" result="hardAlpha"/>
<feOffset/>
<feGaussianBlur stdDeviation="2"/>
<feComposite in2="hardAlpha" operator="out"/>
<feColorMatrix type="matrix" values="0 0 0 0 1 0 0 0 0 0.34902 0 0 0 0 0.368627 0 0 0 0.3 0"/>
<feBlend mode="normal" in2="effect1_dropShadow_1516_14083" result="effect2_dropShadow_1516_14083"/>
<feBlend mode="normal" in="SourceGraphic" in2="effect2_dropShadow_1516_14083" result="shape"/>
<feColorMatrix in="SourceAlpha" type="matrix" values="0 0 0 0 0 0 0 0 0 0 0 0 0 0 0 0 0 0 127 0" result="hardAlpha"/>
<feOffset/>
<feGaussianBlur stdDeviation="5"/>
<feComposite in2="hardAlpha" operator="arithmetic" k2="-1" k3="1"/>
<feColorMatrix type="matrix" values="0 0 0 0 1 0 0 0 0 0.34902 0 0 0 0 0.368627 0 0 0 0.7 0"/>
<feBlend mode="normal" in2="shape" result="effect3_innerShadow_1516_14083"/>
</filter>
<filter id="filter1_f_1516_14083" x="9" y="7" width="46" height="51" filterUnits="userSpaceOnUse" color-interpolation-filters="sRGB">
<feFlood flood-opacity="0" result="BackgroundImageFix"/>
<feBlend mode="normal" in="SourceGraphic" in2="BackgroundImageFix" result="shape"/>
<feGaussianBlur stdDeviation="1.5" result="effect1_foregroundBlur_1516_14083"/>
</filter>
<filter id="filter2_d_1516_14083" x="20" y="19" width="26" height="28" filterUnits="userSpaceOnUse" color-interpolation-filters="sRGB">
<feFlood flood-opacity="0" result="BackgroundImageFix"/>
<feColorMatrix in="SourceAlpha" type="matrix" values="0 0 0 0 0 0 0 0 0 0 0 0 0 0 0 0 0 0 127 0" result="hardAlpha"/>
<feOffset dy="4"/>
<feGaussianBlur stdDeviation="2"/>
<feComposite in2="hardAlpha" operator="out"/>
<feColorMatrix type="matrix" values="0 0 0 0 0 0 0 0 0 0 0 0 0 0 0 0 0 0 0.25 0"/>
<feBlend mode="normal" in2="BackgroundImageFix" result="effect1_dropShadow_1516_14083"/>
<feBlend mode="normal" in="SourceGraphic" in2="effect1_dropShadow_1516_14083" result="shape"/>
</filter>
<linearGradient id="paint0_linear_1516_14083" x1="12" y1="49" x2="12" y2="10" gradientUnits="userSpaceOnUse">
<stop/>
<stop offset="1" stop-color="#FF595E"/>
</linearGradient>
<linearGradient id="paint1_linear_1516_14083" x1="32" y1="10" x2="32" y2="42.5" gradientUnits="userSpaceOnUse">
<stop stop-color="white"/>
<stop offset="1" stop-color="#FF595E"/>
</linearGradient>
<linearGradient id="paint2_linear_1516_14083" x1="32" y1="10" x2="32" y2="55" gradientUnits="userSpaceOnUse">
<stop stop-color="white" stop-opacity="0"/>
<stop offset="1" stop-color="white"/>
</linearGradient>
<linearGradient id="paint3_linear_1516_14083" x1="33" y1="19" x2="33" y2="39" gradientUnits="userSpaceOnUse">
<stop stop-color="white"/>
<stop offset="1" stop-color="#FF595E"/>
</linearGradient>
</defs>
</svg>
