<svg width="64" height="64" viewBox="0 0 64 64" fill="none" xmlns="http://www.w3.org/2000/svg">
<g filter="url(#filter0_ddi_1516_13946)">
<path fill-rule="evenodd" clip-rule="evenodd" d="M36.3409 49.3418L32.0078 55L27.6787 49.3477C18.7129 47.3789 12 39.4314 12 29.9127C12 18.9156 20.9541 10 32 10C43.0459 10 52 18.9156 52 29.9127C52 39.4245 45.2969 47.366 36.3409 49.3418Z" fill="url(#paint0_linear_1516_13946)" fill-opacity="0.502" shape-rendering="crispEdges"/>
<path d="M32 11.5C42.2237 11.5 50.5 19.7506 50.5 29.9131C50.4998 38.6999 44.3067 46.0483 36.0176 47.877C35.7154 47.9436 35.442 48.1015 35.2344 48.3281L35.1504 48.4297L32.0068 52.5332L28.8691 48.4355C28.6807 48.1896 28.4215 48.0092 28.1279 47.917L28 47.8828L27.6133 47.793C19.5102 45.8302 13.5002 38.5691 13.5 29.9131C13.5 19.7506 21.7763 11.5 32 11.5Z" stroke="url(#paint1_linear_1516_13946)" stroke-width="3" stroke-linejoin="round" shape-rendering="crispEdges"/>
</g>
<g filter="url(#filter1_f_1516_13946)">
<path d="M32 10.5C42.7718 10.5 51.5 19.1942 51.5 29.9131C51.4998 39.183 44.9669 46.9267 36.2334 48.8535C36.1471 48.8726 36.0674 48.9137 36.0029 48.9727L35.9443 49.0381L32.0068 54.1777L28.0752 49.0439C28.0214 48.9738 27.9508 48.9192 27.8701 48.8857L27.7861 48.8594L27.3779 48.7646C18.8401 46.6965 12.5002 39.045 12.5 29.9131C12.5 19.1942 21.2282 10.5 32 10.5Z" stroke="white" stroke-linejoin="round"/>
</g>
<path d="M32 10.4004C42.8267 10.4004 51.5996 19.1385 51.5996 29.9131C51.5994 39.2314 45.0329 47.0146 36.2549 48.9512C36.1857 48.9664 36.1219 48.9995 36.0703 49.0469L36.0234 49.0986L32.0068 54.3418L27.9961 49.1045C27.953 49.0482 27.8958 49.0053 27.8311 48.9785L27.7646 48.957L27.3545 48.8623C18.7731 46.7837 12.4006 39.0927 12.4004 29.9131C12.4004 19.1385 21.1733 10.4004 32 10.4004Z" stroke="url(#paint2_linear_1516_13946)" stroke-width="0.8" stroke-linejoin="round"/>
<g filter="url(#filter2_d_1516_13946)">
<path fill-rule="evenodd" clip-rule="evenodd" d="M21.3755 37.2218L23.2109 39.0573L39.1648 23.1034L37.3294 21.2679L21.3755 37.2218ZM26.5139 37.1585V38.2878H28.8454V34.827L26.5139 37.1585ZM31.2031 32.4693H32.6341C32.7721 32.4876 32.8012 32.4873 32.894 32.4862C32.9204 32.4859 32.9519 32.4856 32.9926 32.4856C33.1994 32.4856 33.4031 32.4703 33.6026 32.4408C33.3071 33.0345 33.1409 33.7039 33.1409 34.4121C33.1409 36.8584 35.1241 38.8416 37.5705 38.8416C40.0168 38.8416 42 36.8584 42 34.4121C42 31.9657 40.0168 29.9825 37.5705 29.9825C37.3478 29.9825 37.1289 29.999 36.915 30.0307C37.3418 29.2525 37.5878 28.3374 37.5878 27.3582C37.5878 26.9606 37.5472 26.5736 37.4704 26.202L31.2031 32.4693ZM34.6286 22.5654C34.1204 22.3492 33.5689 22.2308 32.9926 22.2308C32.8863 22.2308 32.782 22.2392 32.6779 22.2475L32.6501 22.2498H28.5907V22.2597H26.5139V30.6801L28.8454 28.3486V24.8728H32.3212L34.6286 22.5654ZM35.6542 32.1978H34.6318C34.5301 32.1978 34.4326 32.2328 34.3607 32.2951C34.2887 32.3574 34.2484 32.4419 34.2484 32.53V36.2691C34.2484 36.3572 34.2887 36.4417 34.3607 36.504C34.4326 36.5663 34.5301 36.6013 34.6318 36.6013C34.7335 36.6013 34.831 36.5663 34.9029 36.504C34.9748 36.4417 35.0152 36.3572 35.0152 36.2691V34.6194H35.6542C35.8413 34.6243 36.0276 34.5966 36.2021 34.5379C36.3766 34.4793 36.5357 34.3909 36.6701 34.278C36.8044 34.1651 36.9112 34.0299 36.9841 33.8806C37.0571 33.7313 37.0947 33.5707 37.0947 33.4086C37.0947 33.2464 37.0571 33.0859 36.9841 32.9366C36.9112 32.7873 36.8044 32.6521 36.6701 32.5392C36.5357 32.4263 36.3766 32.3379 36.2021 32.2793C36.0276 32.2206 35.8413 32.1929 35.6542 32.1978ZM35.6542 33.9628H35.0152V32.8555H35.6542C35.8237 32.8555 35.9862 32.9139 36.1061 33.0177C36.2259 33.1215 36.2932 33.2623 36.2932 33.4091C36.2932 33.556 36.2259 33.6968 36.1061 33.8006C35.9862 33.9044 35.8237 33.9628 35.6542 33.9628ZM40.8393 36.0997L39.5868 34.3016L39.9574 33.8111H40.0469C40.1489 33.8146 40.2498 33.7916 40.3365 33.745C40.4233 33.6985 40.492 33.6305 40.5338 33.5498L40.8495 32.9386C40.878 32.8832 40.8927 32.8232 40.8927 32.7625C40.8927 32.7019 40.878 32.6419 40.8495 32.5865L40.4303 33.2132C40.4244 33.2215 40.4162 33.2285 40.4063 33.2333C40.3965 33.2382 40.3854 33.2408 40.374 33.2408C40.3628 33.2409 40.3517 33.2382 40.3421 33.2331C40.3348 33.2297 40.3284 33.225 40.3233 33.2193C40.3182 33.2137 40.3144 33.2072 40.3123 33.2003C40.3101 33.1933 40.3096 33.1861 40.3108 33.179C40.312 33.1719 40.3148 33.1651 40.3191 33.1589L40.7728 32.4802L40.7536 32.458L40.6488 32.3628C40.6296 32.3458 40.6091 32.3299 40.5875 32.3152L40.0967 33.0493C40.0911 33.0575 40.083 33.0643 40.0734 33.069C40.0637 33.0737 40.0528 33.076 40.0418 33.0759C40.0321 33.078 40.0221 33.0783 40.0124 33.077C40.005 33.0734 39.9986 33.0686 39.9935 33.0629C39.9884 33.0571 39.9846 33.0506 39.9825 33.0435C39.9803 33.0365 39.9798 33.0292 39.981 33.022C39.9822 33.0148 39.985 33.0079 39.9894 33.0017L40.4801 32.2676C40.4544 32.2582 40.4279 32.2504 40.4009 32.2443L40.2616 32.2156C40.2493 32.2145 40.2368 32.2145 40.2245 32.2156L39.7682 32.8976C39.7624 32.906 39.7541 32.9129 39.7443 32.9178C39.7344 32.9226 39.7233 32.9252 39.712 32.9253C39.7007 32.9254 39.6897 32.9227 39.6801 32.9175C39.6728 32.914 39.6663 32.9092 39.6612 32.9035C39.6561 32.8977 39.6523 32.8911 39.6502 32.8841C39.648 32.8771 39.6475 32.8698 39.6487 32.8626C39.6499 32.8554 39.6527 32.8485 39.6571 32.8422L40.0788 32.2122C40.0091 32.2192 39.9419 32.2385 39.8812 32.269C39.8205 32.2995 39.7677 32.3405 39.7261 32.3894L39.2673 32.9341C39.208 33.0056 39.1746 33.0907 39.1714 33.1787C39.1683 33.2666 39.1954 33.3534 39.2494 33.428L39.2928 33.4889L39.1497 33.6782L38.1579 32.3019C38.1349 32.27 38.1029 32.2437 38.0648 32.2255C38.0268 32.2073 37.9841 32.1978 37.9406 32.1978H37.5713C37.5035 32.1978 37.4385 32.2212 37.3905 32.2627C37.3426 32.3042 37.3157 32.3606 37.3157 32.4193V32.8002C37.3154 32.839 37.3268 32.8771 37.3489 32.9109L38.218 34.2207C38.2505 34.2697 38.3035 34.3061 38.366 34.3224C38.4285 34.3386 38.4958 34.3336 38.5541 34.3082L38.6627 34.2617L38.6819 34.2883L37.2978 36.1163C37.2605 36.167 37.2399 36.2255 37.238 36.2856C37.2361 36.3456 37.253 36.405 37.287 36.4574C37.3209 36.5097 37.3707 36.5531 37.4309 36.583C37.4911 36.6128 37.5595 36.6279 37.6288 36.6268C37.6906 36.6254 37.7512 36.6111 37.8053 36.5851C37.8593 36.559 37.9054 36.5221 37.9394 36.4773L39.1203 34.9161L40.1823 36.4396C40.2165 36.4887 40.2647 36.5292 40.3222 36.5573C40.3798 36.5854 40.4447 36.6002 40.5108 36.6002C40.5782 36.5999 40.6443 36.5842 40.7024 36.5547C40.7606 36.5252 40.8087 36.4829 40.842 36.4322C40.8753 36.3815 40.8926 36.324 40.8921 36.2656C40.8916 36.2073 40.8734 36.15 40.8393 36.0997Z" fill="url(#paint3_linear_1516_13946)"/>
</g>
<defs>
<filter id="filter0_ddi_1516_13946" x="8" y="6" width="48" height="57" filterUnits="userSpaceOnUse" color-interpolation-filters="sRGB">
<feFlood flood-opacity="0" result="BackgroundImageFix"/>
<feColorMatrix in="SourceAlpha" type="matrix" values="0 0 0 0 0 0 0 0 0 0 0 0 0 0 0 0 0 0 127 0" result="hardAlpha"/>
<feOffset dy="4"/>
<feGaussianBlur stdDeviation="2"/>
<feComposite in2="hardAlpha" operator="out"/>
<feColorMatrix type="matrix" values="0 0 0 0 0 0 0 0 0 0 0 0 0 0 0 0 0 0 0.25 0"/>
<feBlend mode="normal" in2="BackgroundImageFix" result="effect1_dropShadow_1516_13946"/>
<feColorMatrix in="SourceAlpha" type="matrix" values="0 0 0 0 0 0 0 0 0 0 0 0 0 0 0 0 0 0 127 0" result="hardAlpha"/>
<feOffset/>
<feGaussianBlur stdDeviation="2"/>
<feComposite in2="hardAlpha" operator="out"/>
<feColorMatrix type="matrix" values="0 0 0 0 0.996078 0 0 0 0 0.698039 0 0 0 0 0.266667 0 0 0 0.3 0"/>
<feBlend mode="normal" in2="effect1_dropShadow_1516_13946" result="effect2_dropShadow_1516_13946"/>
<feBlend mode="normal" in="SourceGraphic" in2="effect2_dropShadow_1516_13946" result="shape"/>
<feColorMatrix in="SourceAlpha" type="matrix" values="0 0 0 0 0 0 0 0 0 0 0 0 0 0 0 0 0 0 127 0" result="hardAlpha"/>
<feOffset/>
<feGaussianBlur stdDeviation="5"/>
<feComposite in2="hardAlpha" operator="arithmetic" k2="-1" k3="1"/>
<feColorMatrix type="matrix" values="0 0 0 0 0.996078 0 0 0 0 0.698039 0 0 0 0 0.266667 0 0 0 0.7 0"/>
<feBlend mode="normal" in2="shape" result="effect3_innerShadow_1516_13946"/>
</filter>
<filter id="filter1_f_1516_13946" x="9" y="7" width="46" height="51" filterUnits="userSpaceOnUse" color-interpolation-filters="sRGB">
<feFlood flood-opacity="0" result="BackgroundImageFix"/>
<feBlend mode="normal" in="SourceGraphic" in2="BackgroundImageFix" result="shape"/>
<feGaussianBlur stdDeviation="1.5" result="effect1_foregroundBlur_1516_13946"/>
</filter>
<filter id="filter2_d_1516_13946" x="17.3755" y="21.2679" width="28.6245" height="25.7893" filterUnits="userSpaceOnUse" color-interpolation-filters="sRGB">
<feFlood flood-opacity="0" result="BackgroundImageFix"/>
<feColorMatrix in="SourceAlpha" type="matrix" values="0 0 0 0 0 0 0 0 0 0 0 0 0 0 0 0 0 0 127 0" result="hardAlpha"/>
<feOffset dy="4"/>
<feGaussianBlur stdDeviation="2"/>
<feComposite in2="hardAlpha" operator="out"/>
<feColorMatrix type="matrix" values="0 0 0 0 0 0 0 0 0 0 0 0 0 0 0 0 0 0 0.25 0"/>
<feBlend mode="normal" in2="BackgroundImageFix" result="effect1_dropShadow_1516_13946"/>
<feBlend mode="normal" in="SourceGraphic" in2="effect1_dropShadow_1516_13946" result="shape"/>
</filter>
<linearGradient id="paint0_linear_1516_13946" x1="12" y1="49" x2="12" y2="10" gradientUnits="userSpaceOnUse">
<stop/>
<stop offset="1" stop-color="#FEB244"/>
</linearGradient>
<linearGradient id="paint1_linear_1516_13946" x1="32" y1="10" x2="32" y2="43.5" gradientUnits="userSpaceOnUse">
<stop stop-color="white"/>
<stop offset="1" stop-color="#FEB244"/>
</linearGradient>
<linearGradient id="paint2_linear_1516_13946" x1="32" y1="10" x2="32" y2="55" gradientUnits="userSpaceOnUse">
<stop stop-color="white" stop-opacity="0"/>
<stop offset="1" stop-color="white"/>
</linearGradient>
<linearGradient id="paint3_linear_1516_13946" x1="31.6877" y1="21.2679" x2="31.6877" y2="39.0573" gradientUnits="userSpaceOnUse">
<stop stop-color="white"/>
<stop offset="1" stop-color="#FEB244"/>
</linearGradient>
</defs>
</svg>
