<svg width="64" height="64" viewBox="0 0 64 64" fill="none" xmlns="http://www.w3.org/2000/svg">
<g filter="url(#filter0_ddi_1516_13936)">
<path fill-rule="evenodd" clip-rule="evenodd" d="M36.3409 49.3418L32.0078 55L27.6787 49.3477C18.7129 47.3789 12 39.4314 12 29.9127C12 18.9156 20.9541 10 32 10C43.0459 10 52 18.9156 52 29.9127C52 39.4245 45.2969 47.366 36.3409 49.3418Z" fill="url(#paint0_linear_1516_13936)" fill-opacity="0.502" shape-rendering="crispEdges"/>
<path d="M32 11.5C42.2237 11.5 50.5 19.7506 50.5 29.9131C50.4998 38.6999 44.3067 46.0483 36.0176 47.877C35.7154 47.9436 35.442 48.1015 35.2344 48.3281L35.1504 48.4297L32.0068 52.5332L28.8691 48.4355C28.6807 48.1896 28.4215 48.0092 28.1279 47.917L28 47.8828L27.6133 47.793C19.5102 45.8302 13.5002 38.5691 13.5 29.9131C13.5 19.7506 21.7763 11.5 32 11.5Z" stroke="url(#paint1_linear_1516_13936)" stroke-width="3" stroke-linejoin="round" shape-rendering="crispEdges"/>
</g>
<g filter="url(#filter1_f_1516_13936)">
<path d="M32 10.5C42.7718 10.5 51.5 19.1942 51.5 29.9131C51.4998 39.183 44.9669 46.9267 36.2334 48.8535C36.1471 48.8726 36.0674 48.9137 36.0029 48.9727L35.9443 49.0381L32.0068 54.1777L28.0752 49.0439C28.0214 48.9738 27.9508 48.9192 27.8701 48.8857L27.7861 48.8594L27.3779 48.7646C18.8401 46.6965 12.5002 39.045 12.5 29.9131C12.5 19.1942 21.2282 10.5 32 10.5Z" stroke="white" stroke-linejoin="round"/>
</g>
<path d="M32 10.4004C42.8267 10.4004 51.5996 19.1385 51.5996 29.9131C51.5994 39.2314 45.0329 47.0146 36.2549 48.9512C36.1857 48.9664 36.1219 48.9995 36.0703 49.0469L36.0234 49.0986L32.0068 54.3418L27.9961 49.1045C27.953 49.0482 27.8958 49.0053 27.8311 48.9785L27.7646 48.957L27.3545 48.8623C18.7731 46.7837 12.4006 39.0927 12.4004 29.9131C12.4004 19.1385 21.1733 10.4004 32 10.4004Z" stroke="url(#paint2_linear_1516_13936)" stroke-width="0.8" stroke-linejoin="round"/>
<g filter="url(#filter2_d_1516_13936)">
<path fill-rule="evenodd" clip-rule="evenodd" d="M21.3755 36.2218L23.2109 38.0573L39.1648 22.1034L37.3294 20.2679L21.3755 36.2218ZM26.5139 36.1585V37.2878H28.8454V33.827L26.5139 36.1585ZM31.2031 31.4693H32.6341C32.7721 31.4876 32.8012 31.4873 32.894 31.4862C32.9204 31.4859 32.9519 31.4856 32.9926 31.4856C33.1994 31.4856 33.4031 31.4703 33.6026 31.4408C33.3071 32.0345 33.1409 32.7039 33.1409 33.4121C33.1409 35.8584 35.1241 37.8416 37.5705 37.8416C40.0168 37.8416 42 35.8584 42 33.4121C42 30.9657 40.0168 28.9825 37.5705 28.9825C37.3478 28.9825 37.1289 28.999 36.915 29.0307C37.3418 28.2525 37.5878 27.3374 37.5878 26.3582C37.5878 25.9606 37.5472 25.5736 37.4704 25.202L31.2031 31.4693ZM34.6286 21.5654C34.1204 21.3492 33.5689 21.2308 32.9926 21.2308C32.8863 21.2308 32.782 21.2392 32.6779 21.2475L32.6501 21.2498H28.5907V21.2597H26.5139V29.6801L28.8454 27.3486V23.8728H32.3212L34.6286 21.5654ZM35.6542 31.1978H34.6318C34.5301 31.1978 34.4326 31.2328 34.3607 31.2951C34.2887 31.3574 34.2484 31.4419 34.2484 31.53V35.2691C34.2484 35.3572 34.2887 35.4417 34.3607 35.504C34.4326 35.5663 34.5301 35.6013 34.6318 35.6013C34.7335 35.6013 34.831 35.5663 34.9029 35.504C34.9748 35.4417 35.0152 35.3572 35.0152 35.2691V33.6194H35.6542C35.8413 33.6243 36.0276 33.5966 36.2021 33.5379C36.3766 33.4793 36.5357 33.3909 36.6701 33.278C36.8044 33.1651 36.9112 33.0299 36.9841 32.8806C37.0571 32.7313 37.0947 32.5707 37.0947 32.4086C37.0947 32.2464 37.0571 32.0859 36.9841 31.9366C36.9112 31.7873 36.8044 31.6521 36.6701 31.5392C36.5357 31.4263 36.3766 31.3379 36.2021 31.2793C36.0276 31.2206 35.8413 31.1929 35.6542 31.1978ZM35.6542 32.9628H35.0152V31.8555H35.6542C35.8237 31.8555 35.9862 31.9139 36.1061 32.0177C36.2259 32.1215 36.2932 32.2623 36.2932 32.4091C36.2932 32.556 36.2259 32.6968 36.1061 32.8006C35.9862 32.9044 35.8237 32.9628 35.6542 32.9628ZM40.8393 35.0997L39.5868 33.3016L39.9574 32.8111H40.0469C40.1489 32.8146 40.2498 32.7916 40.3365 32.745C40.4233 32.6985 40.492 32.6305 40.5338 32.5498L40.8495 31.9386C40.878 31.8832 40.8927 31.8232 40.8927 31.7625C40.8927 31.7019 40.878 31.6419 40.8495 31.5865L40.4303 32.2132C40.4244 32.2215 40.4162 32.2285 40.4063 32.2333C40.3965 32.2382 40.3854 32.2408 40.374 32.2408C40.3628 32.2409 40.3517 32.2382 40.3421 32.2331C40.3348 32.2297 40.3284 32.225 40.3233 32.2193C40.3182 32.2137 40.3144 32.2072 40.3123 32.2003C40.3101 32.1933 40.3096 32.1861 40.3108 32.179C40.312 32.1719 40.3148 32.1651 40.3191 32.1589L40.7728 31.4802L40.7536 31.458L40.6488 31.3628C40.6296 31.3458 40.6091 31.3299 40.5875 31.3152L40.0967 32.0493C40.0911 32.0575 40.083 32.0643 40.0734 32.069C40.0637 32.0737 40.0528 32.076 40.0418 32.0759C40.0321 32.078 40.0221 32.0783 40.0124 32.077C40.005 32.0734 39.9986 32.0686 39.9935 32.0629C39.9884 32.0571 39.9846 32.0506 39.9825 32.0435C39.9803 32.0365 39.9798 32.0292 39.981 32.022C39.9822 32.0148 39.985 32.0079 39.9894 32.0017L40.4801 31.2676C40.4544 31.2582 40.4279 31.2504 40.4009 31.2443L40.2616 31.2156C40.2493 31.2145 40.2368 31.2145 40.2245 31.2156L39.7682 31.8976C39.7624 31.906 39.7541 31.9129 39.7443 31.9178C39.7344 31.9226 39.7233 31.9252 39.712 31.9253C39.7007 31.9254 39.6897 31.9227 39.6801 31.9175C39.6728 31.914 39.6663 31.9092 39.6612 31.9035C39.6561 31.8977 39.6523 31.8911 39.6502 31.8841C39.648 31.8771 39.6475 31.8698 39.6487 31.8626C39.6499 31.8554 39.6527 31.8485 39.6571 31.8422L40.0788 31.2122C40.0091 31.2192 39.9419 31.2385 39.8812 31.269C39.8205 31.2995 39.7677 31.3405 39.7261 31.3894L39.2673 31.9341C39.208 32.0056 39.1746 32.0907 39.1714 32.1787C39.1683 32.2666 39.1954 32.3534 39.2494 32.428L39.2928 32.4889L39.1497 32.6782L38.1579 31.3019C38.1349 31.27 38.1029 31.2437 38.0648 31.2255C38.0268 31.2073 37.9841 31.1978 37.9406 31.1978H37.5713C37.5035 31.1978 37.4385 31.2212 37.3905 31.2627C37.3426 31.3042 37.3157 31.3606 37.3157 31.4193V31.8002C37.3154 31.839 37.3268 31.8771 37.3489 31.9109L38.218 33.2207C38.2505 33.2697 38.3035 33.3061 38.366 33.3224C38.4285 33.3386 38.4958 33.3336 38.5541 33.3082L38.6627 33.2617L38.6819 33.2883L37.2978 35.1163C37.2605 35.167 37.2399 35.2255 37.238 35.2856C37.2361 35.3456 37.253 35.405 37.287 35.4574C37.3209 35.5097 37.3707 35.5531 37.4309 35.583C37.4911 35.6128 37.5595 35.6279 37.6288 35.6268C37.6906 35.6254 37.7512 35.6111 37.8053 35.5851C37.8593 35.559 37.9054 35.5221 37.9394 35.4773L39.1203 33.9161L40.1823 35.4396C40.2165 35.4887 40.2647 35.5292 40.3222 35.5573C40.3798 35.5854 40.4447 35.6002 40.5108 35.6002C40.5782 35.5999 40.6443 35.5842 40.7024 35.5547C40.7606 35.5252 40.8087 35.4829 40.842 35.4322C40.8753 35.3815 40.8926 35.324 40.8921 35.2656C40.8916 35.2073 40.8734 35.15 40.8393 35.0997Z" fill="url(#paint3_linear_1516_13936)"/>
</g>
<defs>
<filter id="filter0_ddi_1516_13936" x="8" y="6" width="48" height="57" filterUnits="userSpaceOnUse" color-interpolation-filters="sRGB">
<feFlood flood-opacity="0" result="BackgroundImageFix"/>
<feColorMatrix in="SourceAlpha" type="matrix" values="0 0 0 0 0 0 0 0 0 0 0 0 0 0 0 0 0 0 127 0" result="hardAlpha"/>
<feOffset dy="4"/>
<feGaussianBlur stdDeviation="2"/>
<feComposite in2="hardAlpha" operator="out"/>
<feColorMatrix type="matrix" values="0 0 0 0 0 0 0 0 0 0 0 0 0 0 0 0 0 0 0.25 0"/>
<feBlend mode="normal" in2="BackgroundImageFix" result="effect1_dropShadow_1516_13936"/>
<feColorMatrix in="SourceAlpha" type="matrix" values="0 0 0 0 0 0 0 0 0 0 0 0 0 0 0 0 0 0 127 0" result="hardAlpha"/>
<feOffset/>
<feGaussianBlur stdDeviation="2"/>
<feComposite in2="hardAlpha" operator="out"/>
<feColorMatrix type="matrix" values="0 0 0 0 0.278431 0 0 0 0 0.945098 0 0 0 0 0.533333 0 0 0 0.3 0"/>
<feBlend mode="normal" in2="effect1_dropShadow_1516_13936" result="effect2_dropShadow_1516_13936"/>
<feBlend mode="normal" in="SourceGraphic" in2="effect2_dropShadow_1516_13936" result="shape"/>
<feColorMatrix in="SourceAlpha" type="matrix" values="0 0 0 0 0 0 0 0 0 0 0 0 0 0 0 0 0 0 127 0" result="hardAlpha"/>
<feOffset/>
<feGaussianBlur stdDeviation="5"/>
<feComposite in2="hardAlpha" operator="arithmetic" k2="-1" k3="1"/>
<feColorMatrix type="matrix" values="0 0 0 0 0.278431 0 0 0 0 0.945098 0 0 0 0 0.533333 0 0 0 0.7 0"/>
<feBlend mode="normal" in2="shape" result="effect3_innerShadow_1516_13936"/>
</filter>
<filter id="filter1_f_1516_13936" x="9" y="7" width="46" height="51" filterUnits="userSpaceOnUse" color-interpolation-filters="sRGB">
<feFlood flood-opacity="0" result="BackgroundImageFix"/>
<feBlend mode="normal" in="SourceGraphic" in2="BackgroundImageFix" result="shape"/>
<feGaussianBlur stdDeviation="1.5" result="effect1_foregroundBlur_1516_13936"/>
</filter>
<filter id="filter2_d_1516_13936" x="17.3755" y="20.2679" width="28.6245" height="25.7893" filterUnits="userSpaceOnUse" color-interpolation-filters="sRGB">
<feFlood flood-opacity="0" result="BackgroundImageFix"/>
<feColorMatrix in="SourceAlpha" type="matrix" values="0 0 0 0 0 0 0 0 0 0 0 0 0 0 0 0 0 0 127 0" result="hardAlpha"/>
<feOffset dy="4"/>
<feGaussianBlur stdDeviation="2"/>
<feComposite in2="hardAlpha" operator="out"/>
<feColorMatrix type="matrix" values="0 0 0 0 0 0 0 0 0 0 0 0 0 0 0 0 0 0 0.25 0"/>
<feBlend mode="normal" in2="BackgroundImageFix" result="effect1_dropShadow_1516_13936"/>
<feBlend mode="normal" in="SourceGraphic" in2="effect1_dropShadow_1516_13936" result="shape"/>
</filter>
<linearGradient id="paint0_linear_1516_13936" x1="12" y1="49" x2="12" y2="10" gradientUnits="userSpaceOnUse">
<stop/>
<stop offset="1" stop-color="#47F188"/>
</linearGradient>
<linearGradient id="paint1_linear_1516_13936" x1="32" y1="10" x2="32" y2="43.5" gradientUnits="userSpaceOnUse">
<stop stop-color="white"/>
<stop offset="1" stop-color="#47F188"/>
</linearGradient>
<linearGradient id="paint2_linear_1516_13936" x1="32" y1="10" x2="32" y2="55" gradientUnits="userSpaceOnUse">
<stop stop-color="white" stop-opacity="0"/>
<stop offset="1" stop-color="white"/>
</linearGradient>
<linearGradient id="paint3_linear_1516_13936" x1="31.6879" y1="20.2679" x2="31.6879" y2="35.7427" gradientUnits="userSpaceOnUse">
<stop stop-color="white"/>
<stop offset="1" stop-color="#47F188"/>
</linearGradient>
</defs>
</svg>
