<svg width="44" height="56" viewBox="0 0 44 56" fill="none" xmlns="http://www.w3.org/2000/svg">
<path d="M17.999 44.5L0.559568 14.8574L2.84082 9.5L41.1445 9.5L43.4414 14.8291L25.9834 44.5L17.999 44.5Z" stroke="url(#paint0_linear_7637_36099)" stroke-opacity="0.9"/>
<path d="M17.7127 44.5L7.01829e-07 8.89294L2.50945 3L41.4735 3L44 8.86401L26.2703 44.5L17.7127 44.5Z" fill="url(#paint1_linear_7637_36099)" fill-opacity="0.8"/>
<path d="M18.332 43.5L1.10156 8.86036L3.17089 4L40.8154 4L42.8984 8.83398L25.6514 43.5L18.332 43.5Z" stroke="url(#paint2_linear_7637_36099)" stroke-opacity="0.9" stroke-width="2"/>
<path d="M5 6H9L8 8H4L5 6Z" fill="white" fill-opacity="0.14"/>
<path d="M11 6H15L14 8H10L11 6Z" fill="white" fill-opacity="0.14"/>
<path d="M17 6H21L20 8H16L17 6Z" fill="white" fill-opacity="0.14"/>
<path d="M23 6H27L26 8H22L23 6Z" fill="white" fill-opacity="0.14"/>
<path d="M29 6H33L32 8H28L29 6Z" fill="white" fill-opacity="0.14"/>
<path d="M35 6H39.5L38.5 8H34L35 6Z" fill="white" fill-opacity="0.14"/>
<g filter="url(#filter0_d_7637_36099)">
<path d="M32.8616 21.1092C32.7661 20.7733 32.6473 20.4447 32.459 20.1486C32.2197 19.7729 31.9345 19.4364 31.5903 19.1482C31.2795 18.8883 30.9401 18.6839 30.5657 18.5377C30.2455 18.4124 29.916 18.3244 29.5734 18.2809C29.3257 18.2494 29.078 18.2437 28.8335 18.2735C28.481 18.316 28.1295 18.3726 27.7937 18.4989C27.7051 18.5324 27.6394 18.5015 27.6024 18.4161C27.4772 18.1284 27.3145 17.8595 27.1696 17.5818C26.9318 17.1274 26.7003 16.6689 26.4109 16.2439C26.3447 16.1464 26.3306 16.05 26.3806 15.9368C26.4672 15.7419 26.5538 15.5459 26.6174 15.3425C26.6753 15.1586 26.791 15.0585 26.9673 15.0103C27.009 14.9987 27.0491 14.9804 27.0903 14.9678C27.4798 14.8483 27.6874 14.5711 27.7671 14.1828C27.799 14.0277 27.7953 14.0203 27.6342 14.0203C27.0606 14.0193 26.487 14.0203 25.9134 14.0198C25.3659 14.0198 24.8184 14.0198 24.2709 14.0198C24.2188 14.0198 24.1666 14.0188 24.1145 14.023C23.9841 14.0345 23.9263 14.1299 23.8991 14.2378C23.8746 14.3348 23.9403 14.405 24.0212 14.4469C24.1134 14.4951 24.2094 14.5381 24.3074 14.5711C24.6948 14.7006 25.0875 14.809 25.489 14.8856C25.6423 14.9149 25.6731 14.9663 25.6173 15.1125C25.5286 15.3441 25.4269 15.571 25.3456 15.8053C25.2966 15.9468 25.2126 15.9834 25.0718 15.9829C23.9987 15.9777 22.9256 15.9798 21.852 15.9792C21.1913 15.9792 20.5307 15.9897 19.8705 15.973C19.3408 15.9593 18.8115 15.9468 18.2817 15.9635C18.1696 15.9672 18.131 15.9153 18.1738 15.8047C18.2447 15.6213 18.2953 15.4321 18.3276 15.2393C18.3761 14.9495 18.349 14.6848 18.0888 14.4883C17.9913 14.415 17.899 14.3369 17.7895 14.2813C17.7175 14.2446 17.6993 14.177 17.7081 14.1042C17.7165 14.0313 17.7645 13.9852 17.8354 13.9737C17.9078 13.9622 17.9824 13.9569 18.0554 13.9569C18.4548 13.9569 18.8537 13.9559 19.2531 13.9622C19.3668 13.9637 19.4111 13.9171 19.4117 13.8097C19.4117 13.6048 19.4153 13.3999 19.4153 13.195C19.4153 13.0189 19.3971 13.0011 19.2198 13.0011C18.7025 13.0011 18.1858 12.9974 17.6685 13.0037C17.2044 13.0094 16.8525 13.2049 16.6428 13.6357C16.5015 13.9265 16.5328 14.3379 16.7299 14.5617C16.8827 14.7351 17.0485 14.8945 17.2555 15.004C17.3369 15.047 17.364 15.1114 17.3374 15.2C17.3035 15.3127 17.2764 15.4274 17.2378 15.538C17.0172 16.1669 16.8462 16.8104 16.6543 17.4482C16.5657 17.7443 16.4838 18.0419 16.3936 18.3375C16.3508 18.4774 16.3175 18.4889 16.1845 18.4339C15.9869 18.3522 15.7799 18.3013 15.5708 18.2652C14.5524 18.0896 13.5997 18.2604 12.7321 18.8369C12.183 19.2016 11.7633 19.6785 11.4483 20.2644C11.1323 20.855 10.9915 21.4771 11.0004 22.1353C11.0093 22.7584 11.1641 23.3469 11.4639 23.8982C11.757 24.4369 12.1496 24.886 12.6502 25.2308C13.3177 25.6904 14.0555 25.9346 14.8767 25.921C15.4785 25.9111 16.0468 25.7806 16.5839 25.5159C17.194 25.2146 17.6815 24.7655 18.0549 24.2011C18.6269 23.3364 18.8339 22.3847 18.6457 21.3613C18.4939 20.5353 18.1023 19.8263 17.4917 19.2577C17.2967 19.0764 17.243 18.9239 17.3489 18.697C17.3525 18.6891 17.353 18.6802 17.3551 18.6718C17.3796 18.5738 17.4266 18.5702 17.5058 18.6236C18.2927 19.1576 19.0847 19.6843 19.8684 20.223C20.4916 20.6512 21.1084 21.0887 21.7399 21.5038C21.8103 21.5499 21.8369 21.6044 21.8207 21.6904C21.7513 22.0551 21.7774 22.413 21.9365 22.7505C22.1372 23.1766 22.4574 23.4706 22.9178 23.6021C23.1754 23.6755 23.4335 23.6603 23.6932 23.633C23.7641 23.6257 23.8199 23.6309 23.8548 23.7053C23.9122 23.8274 23.9794 23.9448 24.0347 24.068C24.0712 24.1487 24.0514 24.2032 23.9476 24.2027C23.6984 24.2021 23.6984 24.2032 23.6989 24.4479C23.6989 24.4783 23.701 24.5092 23.6989 24.5396C23.6926 24.6366 23.7328 24.6806 23.834 24.6853C24.0451 24.6958 24.261 24.6853 24.4612 24.7775C24.4899 24.7906 24.5243 24.7885 24.5494 24.7702C24.662 24.689 24.7903 24.7094 24.9149 24.7089C25.2439 24.7068 25.2408 24.7078 25.2324 24.3735C25.2298 24.2629 25.1876 24.2126 25.0771 24.2168C24.9118 24.2236 24.7475 24.2032 24.5827 24.1953C24.4873 24.1906 24.4305 24.1539 24.3919 24.0685C24.3147 23.8982 24.2334 23.7289 24.151 23.5612C24.1176 23.4936 24.1343 23.4491 24.1911 23.404C24.4612 23.1886 24.6677 22.9235 24.7955 22.5996C24.8132 22.555 24.8325 22.4984 24.8815 22.4911C25.0093 22.4717 25.1438 22.4377 25.2653 22.4963C25.3654 22.5446 25.3258 22.6578 25.3388 22.7453C25.3419 22.7668 25.343 22.7888 25.3472 22.8103C25.4801 23.4858 25.7581 24.0968 26.2039 24.6188C26.6878 25.1853 27.2859 25.593 28.0007 25.8209C28.5576 25.9986 29.1286 26.0463 29.7001 25.954C30.1444 25.8822 30.5735 25.746 30.9761 25.5217C31.5423 25.2057 32.008 24.7912 32.3626 24.2493C32.7703 23.6252 32.9841 22.9413 32.9992 22.1945C33.0065 21.8256 32.9622 21.4634 32.8621 21.1097L32.8616 21.1092ZM17.6085 22.544C17.5235 23.0534 17.3077 23.5093 16.9588 23.904C16.6517 24.2514 16.2956 24.5218 15.8659 24.6795C15.4399 24.8352 15.0029 24.9065 14.5378 24.8425C14.1368 24.787 13.7645 24.6785 13.4225 24.4725C12.7717 24.0806 12.3415 23.5198 12.1554 22.7751C12.0959 22.5377 12.0412 22.3009 12.0641 22.0928C12.0485 20.7371 12.9803 19.5784 14.2802 19.3101C14.8423 19.1943 15.3857 19.2645 15.9186 19.4569C15.9947 19.4841 16.0719 19.5302 16.0322 19.6293C15.9154 19.9212 15.857 20.2309 15.7548 20.5275C15.6062 20.9577 15.3267 21.2774 14.9675 21.541C14.8277 21.6437 14.6958 21.7585 14.6025 21.9094C14.5279 22.0305 14.4888 22.152 14.5858 22.2852C14.6833 22.4188 14.8131 22.4691 14.9706 22.4544C15.3507 22.4193 15.6568 22.2259 15.942 21.9896C16.4369 21.5798 16.6804 21.0232 16.853 20.4248C16.8592 20.4038 16.8603 20.3818 16.8671 20.3608C16.8832 20.3132 16.8817 20.2476 16.9448 20.2366C17.0052 20.2256 17.036 20.2786 17.0657 20.3205C17.5387 20.9897 17.7441 21.7312 17.6085 22.5435V22.544ZM27.3359 19.9783C27.4235 19.9028 27.4751 19.907 27.5273 20.004C27.764 20.4436 28.0013 20.8833 28.237 21.3235C28.2636 21.3733 28.2849 21.4257 28.3261 21.4666C28.3579 21.4986 28.3871 21.5331 28.3611 21.5814C28.3386 21.6233 28.3001 21.6421 28.2531 21.6411C27.9971 21.6374 27.7421 21.6689 27.4725 21.649C27.1701 21.6835 26.8546 21.6117 26.5371 21.6474C26.4015 21.6626 26.3676 21.606 26.4067 21.475C26.5819 20.8922 26.8687 20.3802 27.3359 19.9783ZM22.1388 20.7686C21.5063 20.3325 20.8769 19.8923 20.2366 19.4679C19.8638 19.2205 19.5034 18.9543 19.1285 18.7117C18.6759 18.4187 18.2426 18.099 17.7905 17.8066C17.6789 17.7343 17.6377 17.6599 17.6862 17.5262C17.754 17.3386 17.8088 17.1453 17.8578 16.9514C17.8896 16.8261 17.961 16.7873 18.083 16.7884C18.5695 16.7926 19.056 16.79 19.7647 16.79C20.611 16.7737 21.6789 16.8172 22.7473 16.824C23.4246 16.8282 24.102 16.834 24.7793 16.835C24.9081 16.835 24.918 16.8481 24.868 16.9702C24.5796 17.6704 24.2881 18.3689 24.0029 19.0701C23.834 19.4851 23.6723 19.9033 23.5128 20.3221C23.4757 20.4195 23.422 20.4725 23.3172 20.4829C23.166 20.4981 23.0158 20.5212 22.8651 20.5427C22.7994 20.5521 22.7426 20.5432 22.7092 20.4782C22.6498 20.3619 22.5903 20.2455 22.5335 20.1282C22.4944 20.0464 22.5246 20.0029 22.6143 20.0019C22.6967 20.0008 22.7796 19.9992 22.862 20.0029C22.9725 20.0082 23.0101 19.9521 22.9991 19.8499C22.996 19.82 22.9939 19.7891 22.9939 19.7592C22.9976 19.5108 22.9981 19.5082 22.7421 19.5114C22.5674 19.5134 22.3964 19.482 22.2238 19.4647C22.01 19.4437 21.7988 19.4773 21.5876 19.4988C21.5475 19.503 21.5021 19.5145 21.4932 19.5564C21.4656 19.6806 21.4677 19.8074 21.4932 19.9316C21.5047 19.9872 21.561 19.9924 21.6106 19.9935C21.7409 19.9971 21.8713 20.0024 22.0011 20.0024C22.0752 20.0024 22.1237 20.0328 22.1549 20.0993C22.2483 20.3006 22.3411 20.5023 22.4381 20.7015C22.4767 20.7811 22.4532 20.812 22.3713 20.8231C22.2853 20.8351 22.2118 20.8189 22.1383 20.768L22.1388 20.7686ZM23.4147 23.1944C23.0612 23.2358 22.6055 22.9785 22.423 22.6599C22.1763 22.2296 22.2253 21.574 22.6435 21.2156C23.0414 20.8744 23.5685 20.8597 24.0024 21.2077C24.274 21.4257 24.4008 21.727 24.3987 22.0787C24.3987 22.6504 23.9774 23.1284 23.4147 23.1944ZM25.8415 20.1449C25.6089 20.539 25.4311 20.9593 25.3581 21.4194C25.3206 21.6563 25.3086 21.6547 25.0369 21.6463C24.8899 21.6862 24.8064 21.6023 24.7465 21.443C24.6792 21.2638 24.5707 21.1029 24.4435 20.9583C24.3872 20.8943 24.3825 20.8356 24.4159 20.7565C24.7929 19.8578 25.1422 18.948 25.5208 18.0498C25.6287 17.794 25.7257 17.5331 25.8399 17.2789C25.8613 17.2312 25.8769 17.1757 25.9432 17.1778C26.0037 17.1793 26.0329 17.226 26.0579 17.2726C26.1971 17.5289 26.3353 17.7851 26.474 18.0414C26.6002 18.2746 26.7264 18.5083 26.8531 18.7415C26.9401 18.9014 26.9355 18.9375 26.7988 19.0507C26.4218 19.3646 26.0897 19.7225 25.841 20.1444L25.8415 20.1449ZM31.6033 23.4643C31.2576 24.1083 30.7414 24.5664 30.0416 24.7865C29.2319 25.0411 28.4434 24.9788 27.7067 24.5396C27.1127 24.1859 26.7107 23.6697 26.4948 23.0083C26.4568 22.8925 26.4208 22.7762 26.3921 22.6578C26.352 22.4937 26.3707 22.4675 26.5449 22.4675C26.9662 22.467 27.3875 22.4675 27.8094 22.4675V22.466C28.2224 22.466 28.6353 22.4576 29.0478 22.4691C29.2835 22.4754 29.3998 22.3302 29.5077 22.162C29.5405 22.1112 29.5186 22.054 29.503 21.998C29.4039 21.6448 29.1933 21.3466 29.0248 21.028C28.7746 20.5547 28.5133 20.0878 28.2573 19.6177C28.1942 19.5024 28.2208 19.4631 28.3418 19.428C28.5988 19.3531 28.8653 19.3232 29.1265 19.3227C29.4764 19.3216 29.8253 19.3735 30.159 19.5061C30.8785 19.7922 31.4062 20.2922 31.7071 20.9949C32.0612 21.8219 32.0356 22.6604 31.6044 23.4637L31.6033 23.4643Z" fill="url(#paint3_linear_7637_36099)"/>
</g>
<ellipse cx="22" cy="49.5" rx="11" ry="4.5" fill="#FF5C00" fill-opacity="0.14"/>
<path d="M32.874 48.8193C32.8973 48.882 32.9167 48.9453 32.9336 49.0088L32.8389 49.0342C32.8551 49.0953 32.8681 49.157 32.8779 49.2188L32.9727 49.2031C32.9831 49.2686 32.9896 49.3342 32.9932 49.4004L32.8975 49.4062C32.8991 49.4374 32.9004 49.4687 32.9004 49.5C32.9004 49.5313 32.8991 49.5626 32.8975 49.5938L32.9932 49.5986C32.9897 49.6649 32.9831 49.7304 32.9727 49.7959L32.8779 49.7812C32.8681 49.843 32.8551 49.9047 32.8389 49.9658L32.9336 49.9902C32.9167 50.0538 32.8973 50.117 32.874 50.1797L32.7812 50.1455C32.7596 50.2039 32.7345 50.2625 32.707 50.3203L32.7959 50.3623C32.7679 50.4213 32.7357 50.479 32.7021 50.5371L32.6191 50.4883C32.5878 50.5425 32.5539 50.5968 32.5176 50.6504L32.5967 50.7051C32.56 50.7591 32.5229 50.814 32.4814 50.8672L32.4033 50.8066C32.3646 50.8563 32.3233 50.906 32.2803 50.9551L32.3545 51.0195C32.3117 51.0683 32.2665 51.1161 32.2197 51.1641L32.1494 51.0967C32.1051 51.1421 32.0587 51.1876 32.0107 51.2324L32.0781 51.3037C32.0301 51.3485 31.9811 51.3935 31.9297 51.4375L31.8652 51.3623C31.817 51.4036 31.7671 51.4447 31.7158 51.4854L31.7764 51.5605C31.7247 51.6015 31.6719 51.6424 31.6172 51.6826L31.5605 51.6035C31.5088 51.6416 31.4549 51.6794 31.4004 51.7168L31.4551 51.7979C31.4017 51.8345 31.3468 51.8703 31.291 51.9062L31.2383 51.8252C31.1837 51.8604 31.1273 51.8951 31.0703 51.9297L31.1221 52.0146C31.0666 52.0483 31.0088 52.0794 30.9512 52.1123L30.9033 52.0283C30.8469 52.0606 30.789 52.0924 30.7305 52.124L30.7773 52.2109C30.7198 52.2421 30.661 52.2723 30.6016 52.3027L30.5576 52.2158C30.4998 52.2455 30.4405 52.2747 30.3809 52.3037L30.4238 52.3916C30.3651 52.4202 30.3056 52.4486 30.2451 52.4766L30.2041 52.3877C30.1451 52.415 30.085 52.442 30.0244 52.4688L30.0635 52.5586C30.0034 52.5851 29.9424 52.6108 29.8809 52.6367L29.8438 52.5469C29.7837 52.5721 29.7226 52.5964 29.6611 52.6211L29.6973 52.7129C29.6364 52.7373 29.5749 52.7613 29.5127 52.7852L29.4775 52.6934C29.4166 52.7167 29.3552 52.74 29.293 52.7627L29.3262 52.8555C29.2646 52.878 29.2024 52.8999 29.1396 52.9219L29.1074 52.8291C29.0456 52.8507 28.983 52.8715 28.9199 52.8926L28.9512 52.9873C28.8891 53.008 28.8259 53.0267 28.7627 53.0469L28.7334 52.9541C28.6707 52.9741 28.6068 52.9932 28.543 53.0127L28.5723 53.1084C28.5098 53.1275 28.4463 53.1445 28.3828 53.1631L28.3555 53.0693C28.2925 53.0877 28.229 53.1062 28.165 53.124L28.1904 53.2188C28.1274 53.2363 28.0639 53.2535 28 53.2705L27.9746 53.1758C27.9113 53.1927 27.8474 53.2092 27.7832 53.2256L27.8066 53.3213C27.7429 53.3375 27.6788 53.3534 27.6143 53.3691L27.5918 53.2734C27.5283 53.2889 27.4638 53.3034 27.3994 53.3184L27.4209 53.415C27.3568 53.4299 27.2925 53.4456 27.2275 53.46L27.2061 53.3623C27.1424 53.3764 27.0781 53.3907 27.0137 53.4043L27.0332 53.5C26.9684 53.5137 26.9034 53.5279 26.8379 53.541L26.8193 53.4443C26.7552 53.4572 26.6908 53.4701 26.626 53.4824L26.6436 53.5791C26.5788 53.5915 26.5137 53.6034 26.4482 53.6152L26.4316 53.5186C26.3668 53.5303 26.3009 53.5415 26.2354 53.5527L26.252 53.6504C26.1872 53.6615 26.122 53.671 26.0566 53.6816L26.042 53.585C25.977 53.5955 25.9113 53.6061 25.8457 53.6162L25.8594 53.7139C25.7943 53.7238 25.7288 53.7327 25.6631 53.7422L25.6504 53.6455C25.5855 53.6549 25.5196 53.664 25.4541 53.6729L25.4668 53.7695C25.4012 53.7784 25.3357 53.7894 25.2695 53.7979L25.2568 53.6982C25.1921 53.7065 25.1268 53.7149 25.0615 53.7227L25.0732 53.8203C25.0074 53.8281 24.9413 53.8354 24.875 53.8428L24.8652 53.7451C24.7998 53.7524 24.7339 53.7599 24.668 53.7666L24.6768 53.8643C24.6116 53.8709 24.5461 53.8766 24.4805 53.8828L24.4717 53.7852C24.4061 53.7913 24.3404 53.798 24.2744 53.8037L24.2812 53.9014C24.2157 53.907 24.1499 53.9118 24.084 53.917L24.0771 53.8193C24.0116 53.8245 23.9458 53.8293 23.8799 53.834L23.8857 53.9316C23.8198 53.9363 23.7538 53.9431 23.6875 53.9473L23.6816 53.8477C23.6162 53.8518 23.5502 53.8557 23.4844 53.8594L23.4893 53.957C23.4233 53.9607 23.3573 53.9646 23.291 53.9678L23.2871 53.8691C23.2212 53.8723 23.1551 53.8753 23.0889 53.8779L23.0918 53.9775C23.0259 53.9802 22.9598 53.9812 22.8936 53.9834L22.8916 53.8857C22.8257 53.8879 22.7596 53.8899 22.6934 53.8916L22.6953 53.9893C22.6291 53.9909 22.5627 53.9929 22.4961 53.9941L22.4951 53.8955C22.4295 53.8967 22.3638 53.8977 22.2979 53.8984V53.9961C22.2319 53.9968 22.1658 53.9978 22.0996 53.998V53.8994C22.0665 53.8995 22.0332 53.9004 22 53.9004C21.9668 53.9004 21.9335 53.8995 21.9004 53.8994V53.998C21.8338 53.9978 21.7674 53.9968 21.7012 53.9961L21.7021 53.8984C21.6362 53.8977 21.5705 53.8967 21.5049 53.8955L21.5029 53.9941C21.4364 53.9929 21.37 53.991 21.3037 53.9893L21.3066 53.8916C21.2404 53.8899 21.1743 53.8879 21.1084 53.8857L21.1055 53.9834C21.0392 53.9812 20.9731 53.9802 20.9072 53.9775L20.9111 53.8779C20.8449 53.8753 20.7788 53.8723 20.7129 53.8691L20.708 53.9678C20.6417 53.9646 20.5757 53.9607 20.5098 53.957L20.5156 53.8594C20.4498 53.8557 20.3838 53.8518 20.3184 53.8477L20.3125 53.9473H20.3115C20.2452 53.9431 20.1792 53.9363 20.1133 53.9316L20.1201 53.834C20.0542 53.8293 19.9884 53.8245 19.9229 53.8193L19.915 53.917C19.8491 53.9118 19.7833 53.907 19.7178 53.9014L19.7256 53.8037C19.6596 53.798 19.5939 53.7913 19.5283 53.7852L19.5186 53.8828C19.4526 53.8766 19.3868 53.871 19.3213 53.8643L19.332 53.7666C19.2661 53.7599 19.2002 53.7524 19.1348 53.7451L19.124 53.8428C19.0577 53.8354 18.9916 53.8281 18.9258 53.8203L18.9385 53.7227C18.8732 53.7149 18.8079 53.7065 18.7432 53.6982L18.7305 53.7979H18.7285C18.6627 53.7895 18.5975 53.7784 18.5322 53.7695L18.5459 53.6729C18.4804 53.664 18.4145 53.6549 18.3496 53.6455L18.3359 53.7422C18.2703 53.7327 18.2047 53.7239 18.1396 53.7139L18.1543 53.6162C18.0887 53.6061 18.023 53.5955 17.958 53.585L17.9424 53.6816C17.877 53.671 17.8118 53.6615 17.7471 53.6504L17.7646 53.5527C17.6991 53.5415 17.6332 53.5303 17.5684 53.5186L17.5508 53.6152C17.4853 53.6034 17.4202 53.5915 17.3555 53.5791L17.374 53.4824C17.3092 53.4701 17.2448 53.4572 17.1807 53.4443L17.1611 53.541C17.0956 53.5279 17.0306 53.5137 16.9658 53.5L16.9863 53.4043C16.9219 53.3907 16.8576 53.3764 16.7939 53.3623L16.7725 53.46H16.7715C16.7066 53.4456 16.6423 53.4299 16.5781 53.415L16.6006 53.3184C16.5362 53.3034 16.4717 53.2889 16.4082 53.2734L16.3848 53.3691C16.3202 53.3534 16.2561 53.3375 16.1924 53.3213L16.2168 53.2256C16.1526 53.2092 16.0887 53.1927 16.0254 53.1758L15.999 53.2705C15.9351 53.2535 15.8716 53.2363 15.8086 53.2188L15.835 53.124C15.771 53.1062 15.7075 53.0877 15.6445 53.0693L15.6162 53.1631C15.5527 53.1445 15.4892 53.1275 15.4268 53.1084H15.4277L15.457 53.0127C15.3932 52.9932 15.3293 52.9741 15.2666 52.9541L15.2363 53.0469C15.1731 53.0267 15.1099 53.008 15.0479 52.9873L15.0801 52.8926C15.017 52.8715 14.9544 52.8507 14.8926 52.8291L14.8594 52.9219C14.7966 52.8999 14.7344 52.878 14.6729 52.8555L14.707 52.7627C14.6448 52.74 14.5834 52.7167 14.5225 52.6934L14.4863 52.7852C14.4241 52.7613 14.3626 52.7373 14.3018 52.7129L14.3389 52.6211C14.2774 52.5964 14.2163 52.5721 14.1562 52.5469L14.1182 52.6367C14.0566 52.6108 13.9956 52.5851 13.9355 52.5586L13.9756 52.4688C13.915 52.442 13.8549 52.415 13.7959 52.3877L13.7539 52.4766C13.6935 52.4486 13.6339 52.4202 13.5752 52.3916L13.6191 52.3037C13.5595 52.2747 13.5002 52.2455 13.4424 52.2158L13.3975 52.3027C13.338 52.2723 13.2792 52.2421 13.2217 52.2109L13.2695 52.124C13.211 52.0924 13.1531 52.0606 13.0967 52.0283L13.0479 52.1123C12.9902 52.0793 12.9324 52.0483 12.877 52.0146L12.9297 51.9297C12.8727 51.8951 12.8163 51.8604 12.7617 51.8252L12.708 51.9062C12.6522 51.8703 12.5973 51.8345 12.5439 51.7979L12.5996 51.7168C12.5451 51.6794 12.4912 51.6416 12.4395 51.6035L12.3818 51.6826C12.3272 51.6424 12.2744 51.6015 12.2227 51.5605L12.2842 51.4854C12.2329 51.4447 12.183 51.4036 12.1348 51.3623L12.0693 51.4375C12.0179 51.3935 11.9689 51.3485 11.9209 51.3037L11.9893 51.2324C11.9413 51.1877 11.8949 51.1421 11.8506 51.0967L11.7793 51.1641C11.7326 51.1161 11.6873 51.0683 11.6445 51.0195L11.7197 50.9551C11.6767 50.906 11.6354 50.8563 11.5967 50.8066L11.5176 50.8672C11.4762 50.814 11.439 50.7591 11.4023 50.7051L11.4824 50.6504C11.446 50.5968 11.4122 50.5425 11.3809 50.4883L11.2969 50.5371C11.2633 50.479 11.2311 50.4213 11.2031 50.3623L11.293 50.3203C11.2655 50.2625 11.2404 50.2039 11.2188 50.1455L11.125 50.1797C11.1018 50.117 11.0823 50.0538 11.0654 49.9902L11.1611 49.9658C11.1449 49.9047 11.1319 49.843 11.1221 49.7812L11.0264 49.7959C11.016 49.7304 11.0093 49.6648 11.0059 49.5986L11.1025 49.5938C11.1009 49.5626 11.0996 49.5313 11.0996 49.5C11.0996 49.4687 11.1009 49.4374 11.1025 49.4062L11.0059 49.4004C11.0094 49.3342 11.0159 49.2686 11.0264 49.2031L11.1221 49.2188C11.1319 49.157 11.1449 49.0953 11.1611 49.0342L11.0654 49.0088L11.125 48.8193L11.2188 48.8545C11.2404 48.7961 11.2655 48.7375 11.293 48.6797L11.2031 48.6367C11.2311 48.5778 11.2633 48.52 11.2969 48.4619L11.3809 48.5117C11.4122 48.4575 11.4461 48.4032 11.4824 48.3496L11.4023 48.2939C11.439 48.2399 11.4761 48.185 11.5176 48.1318L11.5967 48.1934C11.6354 48.1437 11.6767 48.094 11.7197 48.0449L11.6445 47.9795C11.6873 47.9308 11.7326 47.8829 11.7793 47.835L11.8506 47.9033C11.8949 47.8579 11.9413 47.8124 11.9893 47.7676L11.9209 47.6953C11.9689 47.6506 12.018 47.6055 12.0693 47.5615L12.1348 47.6377C12.183 47.5964 12.2329 47.5553 12.2842 47.5146L12.2227 47.4385C12.2744 47.3975 12.3272 47.3566 12.3818 47.3164L12.4395 47.3965C12.4912 47.3584 12.5451 47.3206 12.5996 47.2832L12.5439 47.2012C12.5973 47.1645 12.6522 47.1287 12.708 47.0928L12.7617 47.1748C12.8163 47.1396 12.8727 47.1049 12.9297 47.0703L12.877 46.9844C12.9324 46.9508 12.9902 46.9197 13.0479 46.8867L13.0967 46.9717C13.1531 46.9394 13.211 46.9076 13.2695 46.876L13.2217 46.7881C13.2792 46.757 13.338 46.7268 13.3975 46.6963L13.4424 46.7842C13.5002 46.7545 13.5595 46.7253 13.6191 46.6963L13.5752 46.6074C13.6339 46.5788 13.6935 46.5504 13.7539 46.5225L13.7959 46.6123C13.8549 46.585 13.915 46.558 13.9756 46.5312L13.9355 46.4404C13.9956 46.414 14.0566 46.3882 14.1182 46.3623L14.1562 46.4531C14.2163 46.4279 14.2774 46.4036 14.3389 46.3789L14.3018 46.2861C14.3626 46.2617 14.4241 46.2377 14.4863 46.2139L14.5225 46.3066C14.5834 46.2833 14.6448 46.26 14.707 46.2373L14.6729 46.1436C14.7344 46.1211 14.7966 46.0991 14.8594 46.0771L14.8926 46.1709C14.9544 46.1493 15.017 46.1285 15.0801 46.1074L15.0488 46.0127L15.0479 46.0117C15.1099 45.991 15.1731 45.9723 15.2363 45.9521L15.2666 46.0459C15.3293 46.0259 15.3932 46.0068 15.457 45.9873L15.4277 45.8916L15.4268 45.8906C15.4892 45.8716 15.5527 45.8545 15.6162 45.8359L15.6445 45.9307C15.7075 45.9123 15.771 45.8938 15.835 45.876L15.8086 45.7803C15.8716 45.7627 15.9351 45.7456 15.999 45.7285L16.0254 45.8242C16.0887 45.8073 16.1526 45.7908 16.2168 45.7744L16.1924 45.6777C16.2561 45.6615 16.3202 45.6456 16.3848 45.6299L16.4082 45.7266C16.4717 45.7111 16.5362 45.6966 16.6006 45.6816L16.5781 45.584C16.6423 45.5691 16.7066 45.5534 16.7715 45.5391L16.7725 45.54L16.7939 45.6377C16.8576 45.6236 16.9219 45.6093 16.9863 45.5957L16.9658 45.499C17.0306 45.4854 17.0956 45.4712 17.1611 45.458L17.1807 45.5557C17.2448 45.5428 17.3092 45.5299 17.374 45.5176L17.3555 45.4199C17.4202 45.4076 17.4853 45.3956 17.5508 45.3838L17.5684 45.4814C17.6332 45.4697 17.6991 45.4585 17.7646 45.4473L17.7471 45.3486C17.8118 45.3375 17.877 45.328 17.9424 45.3174L17.958 45.415C18.023 45.4045 18.0887 45.3939 18.1543 45.3838L18.1396 45.2852C18.2047 45.2752 18.2703 45.2663 18.3359 45.2568L18.3496 45.3545C18.4145 45.3451 18.4804 45.336 18.5459 45.3271L18.5322 45.2295C18.5978 45.2206 18.6634 45.2096 18.7295 45.2012L18.7305 45.2021L18.7432 45.3018C18.8079 45.2935 18.8732 45.2851 18.9385 45.2773L18.9258 45.1787C18.9916 45.1709 19.0577 45.1636 19.124 45.1562L19.1348 45.2549C19.2002 45.2476 19.2661 45.2401 19.332 45.2334L19.3223 45.1348C19.3874 45.1281 19.4529 45.1224 19.5186 45.1162L19.5283 45.2148C19.5939 45.2087 19.6596 45.202 19.7256 45.1963L19.7178 45.0977C19.7833 45.092 19.8491 45.0872 19.915 45.082L19.9229 45.1807C19.9884 45.1755 20.0542 45.1707 20.1201 45.166L20.1133 45.0674C20.1792 45.0627 20.2452 45.0559 20.3115 45.0518L20.3125 45.0527L20.3184 45.1523C20.3838 45.1482 20.4498 45.1443 20.5156 45.1406L20.5098 45.042C20.5757 45.0383 20.6417 45.0344 20.708 45.0312L20.7129 45.1309C20.7788 45.1277 20.8449 45.1247 20.9111 45.1221L20.9072 45.0215C20.9731 45.0188 21.0392 45.0178 21.1055 45.0156L21.1084 45.1143C21.1743 45.1121 21.2404 45.1101 21.3066 45.1084L21.3037 45.0098C21.37 45.0081 21.4364 45.0061 21.5029 45.0049L21.5049 45.1045C21.5705 45.1033 21.6362 45.1023 21.7021 45.1016L21.7012 45.0029C21.7674 45.0022 21.8338 45.0012 21.9004 45.001V45.1006C21.9335 45.1005 21.9668 45.0996 22 45.0996C22.0332 45.0996 22.0665 45.1005 22.0996 45.1006V45.001C22.1658 45.0012 22.2319 45.0022 22.2979 45.0029V45.1016C22.3638 45.1023 22.4295 45.1033 22.4951 45.1045L22.4961 45.0049C22.5627 45.0061 22.6291 45.0081 22.6953 45.0098L22.6934 45.1084C22.7596 45.1101 22.8257 45.1121 22.8916 45.1143L22.8936 45.0156C22.9598 45.0178 23.0259 45.0188 23.0918 45.0215L23.0889 45.1221C23.1551 45.1247 23.2212 45.1277 23.2871 45.1309L23.291 45.0312C23.3573 45.0344 23.4233 45.0383 23.4893 45.042L23.4844 45.1406C23.5502 45.1443 23.6162 45.1482 23.6816 45.1523L23.6875 45.0527V45.0518C23.7538 45.0559 23.8198 45.0627 23.8857 45.0674L23.8799 45.166C23.9458 45.1707 24.0116 45.1755 24.0771 45.1807L24.084 45.082C24.1499 45.0872 24.2157 45.092 24.2812 45.0977L24.2744 45.1963C24.3404 45.202 24.4061 45.2087 24.4717 45.2148L24.4805 45.1162C24.5464 45.1224 24.6122 45.1281 24.6777 45.1348L24.668 45.2334C24.7339 45.2401 24.7998 45.2476 24.8652 45.2549L24.875 45.1562C24.9413 45.1636 25.0074 45.1709 25.0732 45.1787L25.0615 45.2773C25.1268 45.2851 25.1921 45.2935 25.2568 45.3018L25.2695 45.2021V45.2012C25.3357 45.2096 25.4012 45.2206 25.4668 45.2295L25.4541 45.3271C25.5196 45.336 25.5855 45.3451 25.6504 45.3545L25.6631 45.2568C25.7288 45.2663 25.7943 45.2752 25.8594 45.2852L25.8457 45.3838C25.9113 45.3939 25.977 45.4045 26.042 45.415L26.0566 45.3174C26.122 45.328 26.1872 45.3375 26.252 45.3486L26.2354 45.4473C26.3009 45.4585 26.3668 45.4697 26.4316 45.4814L26.4482 45.3838C26.5137 45.3956 26.5788 45.4076 26.6436 45.4199L26.626 45.5176C26.6908 45.5299 26.7552 45.5428 26.8193 45.5557L26.8379 45.458C26.9034 45.4712 26.9684 45.4854 27.0332 45.499L27.0137 45.5957C27.0781 45.6093 27.1424 45.6236 27.2061 45.6377L27.2275 45.54V45.5391C27.2925 45.5534 27.3568 45.5691 27.4209 45.584L27.3994 45.6816C27.4638 45.6966 27.5283 45.7111 27.5918 45.7266L27.6143 45.6299C27.6788 45.6456 27.7429 45.6615 27.8066 45.6777L27.7832 45.7744C27.8474 45.7908 27.9113 45.8073 27.9746 45.8242L28 45.7285C28.0639 45.7456 28.1274 45.7627 28.1904 45.7803L28.165 45.876C28.229 45.8938 28.2925 45.9123 28.3555 45.9307L28.3828 45.8359C28.4463 45.8545 28.5098 45.8716 28.5723 45.8906V45.8916L28.543 45.9873C28.6068 46.0068 28.6707 46.0259 28.7334 46.0459L28.7627 45.9521C28.8259 45.9723 28.8891 45.991 28.9512 46.0117V46.0127L28.9199 46.1074C28.983 46.1285 29.0456 46.1493 29.1074 46.1709L29.1396 46.0771C29.2024 46.0991 29.2646 46.1211 29.3262 46.1436L29.293 46.2373C29.3552 46.26 29.4166 46.2833 29.4775 46.3066L29.5127 46.2139C29.5749 46.2377 29.6364 46.2617 29.6973 46.2861L29.6611 46.3789C29.7226 46.4036 29.7837 46.4279 29.8438 46.4531L29.8809 46.3623C29.9424 46.3882 30.0034 46.414 30.0635 46.4404L30.0244 46.5312C30.085 46.558 30.1451 46.585 30.2041 46.6123L30.2451 46.5225C30.3056 46.5504 30.3651 46.5788 30.4238 46.6074L30.3809 46.6963C30.4405 46.7253 30.4998 46.7545 30.5576 46.7842L30.6016 46.6963C30.661 46.7268 30.7198 46.757 30.7773 46.7881L30.7305 46.876C30.789 46.9076 30.8469 46.9394 30.9033 46.9717L30.9512 46.8867C31.0088 46.9197 31.0666 46.9508 31.1221 46.9844L31.0703 47.0703C31.1273 47.1049 31.1837 47.1396 31.2383 47.1748L31.291 47.0928C31.3468 47.1287 31.4017 47.1645 31.4551 47.2012L31.4004 47.2832C31.4549 47.3206 31.5088 47.3584 31.5605 47.3965L31.6172 47.3164C31.6719 47.3566 31.7247 47.3975 31.7764 47.4385L31.7158 47.5146C31.7671 47.5553 31.817 47.5964 31.8652 47.6377L31.9297 47.5615C31.9811 47.6055 32.0302 47.6506 32.0781 47.6953L32.0107 47.7676C32.0587 47.8123 32.1051 47.8579 32.1494 47.9033L32.2197 47.835C32.2665 47.8829 32.3117 47.9307 32.3545 47.9795L32.2803 48.0449C32.3233 48.094 32.3646 48.1437 32.4033 48.1934L32.4814 48.1318C32.5229 48.185 32.56 48.2399 32.5967 48.2939L32.5176 48.3496C32.554 48.4032 32.5878 48.4575 32.6191 48.5117L32.7021 48.4619C32.7358 48.52 32.7679 48.5777 32.7959 48.6367L32.707 48.6797C32.7345 48.7375 32.7596 48.7961 32.7812 48.8545L32.874 48.8193Z" stroke="#FF5C00" stroke-opacity="0.39" stroke-width="0.2" stroke-dasharray="0.2 0.2"/>
<ellipse cx="22" cy="49.5" rx="7" ry="2.5" fill="url(#paint4_linear_7637_36099)" fill-opacity="0.63"/>
<path d="M22 47.0996C23.9246 47.0996 25.6627 47.3786 26.916 47.8262C27.5431 48.0501 28.044 48.315 28.3857 48.6035C28.7277 48.8924 28.9004 49.1958 28.9004 49.5C28.9004 49.8042 28.7277 50.1076 28.3857 50.3965C28.044 50.685 27.5431 50.9499 26.916 51.1738C25.6627 51.6214 23.9246 51.9004 22 51.9004C20.0754 51.9004 18.3373 51.6214 17.084 51.1738C16.4569 50.9499 15.956 50.685 15.6143 50.3965C15.2723 50.1076 15.0996 49.8042 15.0996 49.5C15.0996 49.1958 15.2723 48.8924 15.6143 48.6035C15.956 48.315 16.4569 48.0501 17.084 47.8262C18.3373 47.3786 20.0754 47.0996 22 47.0996Z" stroke="#FF5C00" stroke-opacity="0.39" stroke-width="0.2"/>
<path d="M22 43L27 50L17 50L22 43Z" fill="url(#paint5_linear_7637_36099)" fill-opacity="0.3"/>
<path d="M22 41L20 38H24L22 41Z" fill="url(#paint6_linear_7637_36099)" fill-opacity="0.3"/>
<defs>
<filter id="filter0_d_7637_36099" x="7" y="13" width="30" height="21" filterUnits="userSpaceOnUse" color-interpolation-filters="sRGB">
<feFlood flood-opacity="0" result="BackgroundImageFix"/>
<feColorMatrix in="SourceAlpha" type="matrix" values="0 0 0 0 0 0 0 0 0 0 0 0 0 0 0 0 0 0 127 0" result="hardAlpha"/>
<feOffset dy="4"/>
<feGaussianBlur stdDeviation="2"/>
<feComposite in2="hardAlpha" operator="out"/>
<feColorMatrix type="matrix" values="0 0 0 0 0 0 0 0 0 0 0 0 0 0 0 0 0 0 0.25 0"/>
<feBlend mode="normal" in2="BackgroundImageFix" result="effect1_dropShadow_7637_36099"/>
<feBlend mode="normal" in="SourceGraphic" in2="effect1_dropShadow_7637_36099" result="shape"/>
</filter>
<linearGradient id="paint0_linear_7637_36099" x1="22" y1="40.2289" x2="22" y2="8.99998" gradientUnits="userSpaceOnUse">
<stop stop-color="#FF5C00" stop-opacity="0.1"/>
<stop offset="0.515626" stop-color="#FF5C00"/>
<stop offset="1" stop-color="#FF5C00" stop-opacity="0.1"/>
</linearGradient>
<linearGradient id="paint1_linear_7637_36099" x1="22" y1="39" x2="22" y2="2.99998" gradientUnits="userSpaceOnUse">
<stop stop-color="#4A2916"/>
<stop offset="0.505209" stop-color="#4A2916"/>
<stop offset="1" stop-color="#4A2916"/>
</linearGradient>
<linearGradient id="paint2_linear_7637_36099" x1="22" y1="39" x2="22" y2="2.99998" gradientUnits="userSpaceOnUse">
<stop stop-color="#FF5C00" stop-opacity="0.1"/>
<stop offset="0.515626" stop-color="#FF5C00"/>
<stop offset="1" stop-color="#FF5C00" stop-opacity="0.1"/>
</linearGradient>
<linearGradient id="paint3_linear_7637_36099" x1="22" y1="13" x2="22" y2="26" gradientUnits="userSpaceOnUse">
<stop stop-color="white"/>
<stop offset="1" stop-color="#FF5C00"/>
</linearGradient>
<linearGradient id="paint4_linear_7637_36099" x1="22" y1="47" x2="22" y2="52" gradientUnits="userSpaceOnUse">
<stop stop-color="#FF5C00"/>
<stop offset="1" stop-color="#FF5C00" stop-opacity="0"/>
</linearGradient>
<linearGradient id="paint5_linear_7637_36099" x1="22" y1="50" x2="22" y2="43" gradientUnits="userSpaceOnUse">
<stop stop-color="white"/>
<stop offset="1" stop-color="#FF5C00"/>
</linearGradient>
<linearGradient id="paint6_linear_7637_36099" x1="22" y1="38" x2="22" y2="41" gradientUnits="userSpaceOnUse">
<stop stop-color="white"/>
<stop offset="1" stop-color="#FF5C00"/>
</linearGradient>
</defs>
</svg>
